<ttFont>
          <CharString index="0">
            -9 7 -7 9 vhcurveto
            26 hlineto
            9 7 6 10 hvcurveto
            60 vlineto
            9 -6 7 -10 vhcurveto
            -26 hlineto
            -11 -5 -6 -10 hvcurveto
            return
          </CharString>
          <CharString index="1">
            9 -134 26 0 7 134 0 67 -42 0 rlineto
            return
          </CharString>
          <CharString index="2">
            -85 29 -40 98 vhcurveto
            101 hlineto
            101 28 40 85 hvcurveto
            133 vlineto
            85 -29 40 -98 vhcurveto
            -101 hlineto
            -101 -28 -40 -85 hvcurveto
            return
          </CharString>
          <CharString index="3">
            133 vlineto
            74 25 19 72 vhcurveto
            101 hlineto
            73 22 -25 -68 hvcurveto
            -133 vlineto
            -74 -26 -19 -71 vhcurveto
            -101 hlineto
            -67 -28 20 73 hvcurveto
            return
          </CharString>
          <CharString index="4">
            -316 159 -220 0 vhcurveto
            46 hlineto
            0 -164 236 300 272 164 262 0 hvcurveto
            -46 hlineto
            0 -159 -260 -274 hvcurveto
            return
          </CharString>
          <CharString index="5">
            45 hlineto
            0 159 220 316 274 -159 260 0 hvcurveto
            -45 hlineto
            0 163 -262 -272 -300 -163 -236 0 hvcurveto
            return
          </CharString>
          <CharString index="6">
            -9 8 -7 9 vhcurveto
            25 hlineto
            9 7 5 11 hvcurveto
            60 vlineto
            10 -5 6 -11 vhcurveto
            -25 hlineto
            -11 -6 -6 -10 hvcurveto
            return
          </CharString>
          <CharString index="7">
            -120 81 -42 91 vhcurveto
            144 hlineto
            99 69 43 119 hvcurveto
            408 vlineto
            89 -46 73 -122 vhcurveto
            -144 hlineto
            -95 -77 -54 -108 hvcurveto
            return
          </CharString>
          <CharString index="8">
            408 vlineto
            74 48 47 83 vhcurveto
            144 hlineto
            89 38 -46 -75 hvcurveto
            -408 vlineto
            -74 -37 -47 -90 vhcurveto
            -144 hlineto
            -76 -55 37 84 hvcurveto
            return
          </CharString>
          <CharString index="9">
            283 hlineto
            103 59 -50 -117 hvcurveto
            0 -166 -336 -252 -102 -77 rrcurveto
            -38 480 41 -405 vlineto
            58 42 347 263 0 186 0 117 -57 93 -146 0 rrcurveto
            return
          </CharString>
          <CharString index="10">
            294 hlineto
            72 62 -37 -87 hvcurveto
            -69 vlineto
            0 -77 -62 -35 -75 -2 rrcurveto
            return
          </CharString>
          <CharString index="11">
            223 -7 rlineto
            56 -2 79 -28 0 -93 rrcurveto
            -59 vlineto
            -106 -68 -20 -70 vhcurveto
            return
          </CharString>
          <CharString index="12">
            -117 2 -111 0 -70 -18 rrcurveto
            return
          </CharString>
          <CharString index="13">
            19 -29 385 0 0 -202 41 0 0 202 rlineto
            return
          </CharString>
          <CharString index="14">
            -19 -75 0 -226 -346 0 301 486 -48 0 rlineto
            return
          </CharString>
          <CharString index="15">
            -22 -445 38 0 rlineto
            62 58 46 53 vhcurveto
            153 hlineto
            113 10 -83 -44 hvcurveto
            -100 vlineto
            -81 -52 -48 -70 vhcurveto
            return
          </CharString>
          <CharString index="16">
            -307 79 -78 109 vhcurveto
            129 hlineto
            94 67 37 112 hvcurveto
            118 vlineto
            81 -26 66 -135 vhcurveto
            return
          </CharString>
          <CharString index="17">
            -74 0 -117 -5 -85 -10 1 102 22 197 115 0 rrcurveto
            return
          </CharString>
          <CharString index="18">
            -73 9 -108 3 -101 0 rrcurveto
            -89 -83 -94 -260 hvcurveto
            return
          </CharString>
          <CharString index="19">
            276 hlineto
            66 55 -15 -90 hvcurveto
            -117 vlineto
            -93 -63 -16 -58 vhcurveto
            -129 hlineto
            -132 -15 196 135 hvcurveto
            return
          </CharString>
          <CharString index="20">
            -41 4 -113 172 vhcurveto
            125 hlineto
            64 99 24 130 hvcurveto
            98 vlineto
            0 56 -21 56 -65 17 61 8 25 67 0 43 rrcurveto
            65 vlineto
            123 -55 50 -107 vhcurveto
            -126 hlineto
            -103 -73 -39 -134 hvcurveto
            -65 vlineto
            0 -53 16 -65 79 -17 -39 -4 -56 -32 0 -75 rrcurveto
            return
          </CharString>
          <CharString index="21">
            105 vlineto
            75 78 23 46 vhcurveto
            139 hlineto
            48 71 -9 -89 hvcurveto
            -105 vlineto
            -81 -67 -29 -55 vhcurveto
            -125 hlineto
            -81 -54 32 78 hvcurveto
            return
          </CharString>
          <CharString index="22">
            68 vlineto
            99 41 35 94 vhcurveto
            126 hlineto
            81 40 -36 -98 hvcurveto
            -68 vlineto
            -43 -30 -57 -89 vhcurveto
            -139 hlineto
            -55 -69 11 89 hvcurveto
            return
          </CharString>
          <CharString index="23">
            -81 26 -66 135 vhcurveto
            return
          </CharString>
          <CharString index="24">
            74 0 117 4 85 10 -1 -102 -21 -196 -115 0 rrcurveto
            return
          </CharString>
          <CharString index="25">
            117 vlineto
            93 63 16 58 vhcurveto
            129 hlineto
            return
          </CharString>
          <CharString index="26">
            132 15 -196 -135 hvcurveto
            return
          </CharString>
          <CharString index="27">
            -276 hlineto
            -66 -55 15 90 hvcurveto
            return
          </CharString>
          <CharString index="28">
            354 -193 0 46 -301 168 301 157 0 45 -354 -182 rlineto
            return
          </CharString>
          <CharString index="29">
            -116 66 -62 102 vhcurveto
            329 hlineto
            138 39 80 98 hvcurveto
            512 vlineto
            0 125 -71 61 -106 2 rrcurveto
            -106 hlineto
            return
          </CharString>
          <CharString index="30">
            -126 1 -114 -7 -48 -10 rrcurveto
            -25 vlineto
            return
          </CharString>
          <CharString index="31">
            394 hlineto
            89 47 -59 -88 hvcurveto
            -512 vlineto
            -90 -40 -46 -96 vhcurveto
            -329 hlineto
            -58 -69 28 108 hvcurveto
            348 vlineto
            95 54 28 73 vhcurveto
            202 hlineto
            return
          </CharString>
          <CharString index="32">
            71 45 -28 -73 hvcurveto
            1 -1 -1 -75 0 0 rrcurveto
            -1 -126 1 -81 -83 -46 -53 -80 vhcurveto
            -53 vlineto
            -1 -68 55 -51 74 2 91 0 116 73 2 0 rrcurveto
            return
          </CharString>
          <CharString index="33">
            372 vlineto
            110 -82 30 -71 vhcurveto
            -205 hlineto
            -166 -2 -128 -36 hvcurveto
            return
          </CharString>
          <CharString index="34">
            48 0 84 236 319 0 82 -236 47 0 -261 732 -47 0 rlineto
            return
          </CharString>
          <CharString index="35">
            148 401 141 -401 rlineto
            return
          </CharString>
          <CharString index="36">
            263 hlineto
            154 40 102 102 hvcurveto
            0 114 -76 55 -44 10 66 12 50 63 0 89 rrcurveto
            98 -43 87 -147 vhcurveto
            -263 hlineto
            return
          </CharString>
          <CharString index="37">
            320 221 vlineto
            89 1 64 -71 0 -86 rrcurveto
            -139 -85 -25 -68 vhcurveto
            return
          </CharString>
          <CharString index="38">
            287 221 vlineto
            88 0 64 -33 -3 -111 -2 -93 -60 -50 -87 0 rrcurveto
            return
          </CharString>
          <CharString index="39">
            -215 58 -159 185 vhcurveto
            52 0 102 9 70 13 rrcurveto
            29 vlineto
            0 -118 -10 -105 -146 -57 125 206 267 62 66 140 vhcurveto
            92 0 131 -13 1 0 rrcurveto
            30 vlineto
            -70 13 -102 11 -52 0 rrcurveto
            -202 -41 -141 -231 hvcurveto
            return
          </CharString>
          <CharString index="40">
            260 hlineto
            188 71 197 166 150 -33 219 -226 hvcurveto
            -260 hlineto
            return
          </CharString>
          <CharString index="41">
            649 219 vlineto
            137 81 -98 -229 -150 -63 -172 -155 hvcurveto
            return
          </CharString>
          <CharString index="42">
            0 -113 70 -16 66 3 rrcurveto
            return
          </CharString>
          <CharString index="43">
            294 12 0 29 rlineto
            return
          </CharString>
          <CharString index="44">
            -294 hlineto
            -46 -49 6 79 hvcurveto
            0 218 rlineto
            return
          </CharString>
          <CharString index="45">
            349 7 0 29 rlineto
            return
          </CharString>
          <CharString index="46">
            -349 7 0 218 rlineto
            59 26 30 59 vhcurveto
            return
          </CharString>
          <CharString index="47">
            -304 12 rlineto
            -65 2 -61 -34 0 -98 rrcurveto
            return
          </CharString>
          <CharString index="48">
            0 -209 21 -168 207 2 90 0 100 39 33 18 rrcurveto
            11 -52 28 0 0 386 rlineto
            -24 2 -23 1 -21 0 rrcurveto
            return
          </CharString>
          <CharString index="49">
            -81 0 -50 -5 -40 -11 rrcurveto
            -26 198 -263 vlineto
            0 -144 -48 -77 vhcurveto
            -147 1 -40 92 0 239 0 212 28 119 154 0 96 0 149 -19 6 0 rrcurveto
            33 vlineto
            -70 13 -129 14 -52 0 rrcurveto
            -199 -24 -170 -200 hvcurveto
            return
          </CharString>
          <CharString index="50">
            41 334 410 -334 41 732 -41 -358 -410 358 -41 hlineto
            return
          </CharString>
          <CharString index="51">
            41 732 -41 hlineto
            return
          </CharString>
          <CharString index="52">
            52 -34 94 -2 46 33 47 33 5 67 0 47 rrcurveto
            567 -41 -567 vlineto
            0 -162 -116 22 -83 24 rrcurveto
            return
          </CharString>
          <CharString index="53">
            42 346 127 hlineto
            237 -346 51 0 -250 367 250 365 -50 0 -237 -344 -129 0 0 344 -41 0 rlineto
            return
          </CharString>
          <CharString index="54">
            -113 70 -13 66 vhcurveto
            287 41 -287 hlineto
            -46 -49 6 79 hvcurveto
            606 -41 vlineto
            return
          </CharString>
          <CharString index="55">
            41 0 64 667 208 -667 44 0 204 667 69 -667 41 0 -75 732 -59 0 -202 -663 -207 663 -59 0 rlineto
            return
          </CharString>
          <CharString index="56">
            41 655 hlineto
            425 -655 41 0 0 732 -41 0 0 -655 -423 655 -43 0 rlineto
            return
          </CharString>
          <CharString index="57">
            -333 94 -32 180 180 92 42 323 343 -99 33 -173 -171 -103 -33 -343 vhcurveto
            return
          </CharString>
          <CharString index="58">
            324 90 11 143 152 79 -19 -316 -280 -65 -44 -166 -172 -61 40 284 vhcurveto
            return
          </CharString>
          <CharString index="59">
            5 -3 198 -11 40 0 rrcurveto
            74 102 8 206 179 -97 25 -79 hvcurveto
            -284 hlineto
            return
          </CharString>
          <CharString index="60">
            334 243 vlineto
            62 0 71 -16 1 -146 rrcurveto
            return
          </CharString>
          <CharString index="61">
            3 -2 190 -8 35 -1 rrcurveto
            160 -315 43 0 -158 316 rlineto
            57 3 91 17 0 189 rrcurveto
            175 -90 32 -84 vhcurveto
            -288 hlineto
            return
          </CharString>
          <CharString index="62">
            332 247 vlineto
            65 67 -19 -146 -152 -64 -15 -68 hvcurveto
            return
          </CharString>
          <CharString index="63">
            -80 18 -76 157 vhcurveto
            121 hlineto
            88 31 -39 -75 hvcurveto
            -68 vlineto
            -107 -82 -16 -73 vhcurveto
            -93 0 -104 4 -43 4 rrcurveto
            -31 vlineto
            46 -8 145 -10 49 0 rrcurveto
            99 97 22 142 hvcurveto
            68 vlineto
            82 -27 74 -133 vhcurveto
            -123 hlineto
            -81 -51 14 100 hvcurveto
            66 vlineto
            0 114 61 27 93 -4 0 0 167 -5 64 -4 rrcurveto
            29 vlineto
            -45 7 -133 14 -53 0 rrcurveto
            -112 -83 -33 -145 hvcurveto
            return
          </CharString>
          <CharString index="64">
            234 -691 41 691 240 41 -515 hlineto
            return
          </CharString>
          <CharString index="65">
            -330 126 5 136 121 135 2 323 vhcurveto
            412 -42 -412 vlineto
            -273 -98 -11 -116 -130 -91 -1 285 vhcurveto
            412 -41 vlineto
            return
          </CharString>
          <CharString index="66">
            260 -732 47 0 133 389 152 -389 47 0 246 732 -43 0 -228 -674 -152 396 91 278 -46 0 -223 -672 -240 672 rlineto
            return
          </CharString>
          <CharString index="67">
            239 -472 0 -260 41 0 0 260 260 472 -46 0 -234 -422 -215 422 rlineto
            return
          </CharString>
          <CharString index="68">
            473 41 -420 hlineto
            420 650 0 41 -473 0 0 -41 420 0 -420 -650 rlineto
            return
          </CharString>
          <CharString index="69">
            36 0 109 100 98 -100 36 0 -115 130 -37 0 rlineto
            return
          </CharString>
          <CharString index="70">
            133 -133 32 0 -116 133 rlineto
            return
          </CharString>
          <CharString index="71">
            -85 60 -47 73 vhcurveto
            96 0 137 70 2 0 rrcurveto
            return
          </CharString>
          <CharString index="72">
            13 -64 28 0 rlineto
            return
          </CharString>
          <CharString index="73">
            387 vlineto
            0 110 -70 45 -83 -1 -100 -1 -77 -14 -62 -16 rrcurveto
            -27 vlineto
            93 12 73 8 72 -1 84 -1 29 -48 0 -66 1 -1 -1 -66 0 0 rrcurveto
            -1 -235 1 0 -82 -51 -50 -83 vhcurveto
            return
          </CharString>
          <CharString index="74">
            54 vlineto
            0 51 24 40 68 3 rrcurveto
            235 12 0 -199 rlineto
            0 0 -155 -58 -80 1 -44 1 -48 23 0 72 rrcurveto
            return
          </CharString>
          <CharString index="75">
            14 59 rlineto
            26 -22 102 -43 68 0 rrcurveto
            145 36 147 122 136 -30 140 -151 hvcurveto
            -45 0 -88 -14 -64 -26 rrcurveto
            286 -39 vlineto
            return
          </CharString>
          <CharString index="76">
            382 vlineto
            69 18 50 11 77 0 rrcurveto
            77 63 -44 -191 -159 -62 -69 -78 hvcurveto
            -79 0 -64 27 -53 25 rrcurveto
            return
          </CharString>
          <CharString index="77">
            -233 75 -38 99 vhcurveto
            83 1 52 5 81 23 rrcurveto
            30 vlineto
            0 -124 -18 -92 -81 -52 38 188 207 53 26 80 89 119 -13 0 vhcurveto
            28 vlineto
            -65 14 -91 12 -52 0 rrcurveto
            -102 -72 -38 -232 hvcurveto
            return
          </CharString>
          <CharString index="78">
            -122 36 -147 145 vhcurveto
            68 0 102 43 26 22 rrcurveto
            return
          </CharString>
          <CharString index="79">
            785 -39 -286 vlineto
            -64 26 -88 14 -45 0 rrcurveto
            -151 -30 -140 -136 hvcurveto
            return
          </CharString>
          <CharString index="80">
            193 63 42 77 vhcurveto
            77 0 50 -11 69 -18 rrcurveto
            -382 vlineto
            -53 -25 -64 -27 -79 0 rrcurveto
            -78 -62 64 164 hvcurveto
            return
          </CharString>
          <CharString index="81">
            0 -200 38 -72 136 -1 83 -1 66 6 81 23 rrcurveto
            30 vlineto
            -75 -11 -63 -6 -92 0 rrcurveto
            -84 -49 30 176 hvcurveto
            237 hlineto
            89 47 27 78 176 -80 12 -122 -153 -59 -32 -235 hvcurveto
            return
          </CharString>
          <CharString index="82">
            192 41 20 130 115 46 -12 -135 -57 -43 -8 -52 vhcurveto
            return
          </CharString>
          <CharString index="83">
            490 168 41 -168 99 vlineto
            68 6 48 67 vhcurveto
            return
          </CharString>
          <CharString index="84">
            -40 12 -71 3 -36 0 rrcurveto
            -100 -3 -102 -54 hvcurveto
            0 -99 rlineto
            return
          </CharString>
          <CharString index="85">
            41 439 hlineto
            75 39 49 21 85 0 rrcurveto
            76 47 -51 -78 hvcurveto
            -370 41 370 vlineto
            88 -58 82 -106 vhcurveto
            -81 0 -69 -34 -59 -37 rrcurveto
            315 -41 vlineto
            return
          </CharString>
          <CharString index="86">
            -9 7 -6 9 vhcurveto
            24 hlineto
            9 6 5 10 hvcurveto
            60 vlineto
            9 -5 7 -10 vhcurveto
            -24 hlineto
            -11 -5 -6 -10 hvcurveto
            return
          </CharString>
          <CharString index="87">
            41 531 -41 hlineto
            return
          </CharString>
          <CharString index="88">
            41 284 53 hlineto
            251 -284 54 0 -265 304 266 227 -60 0 -246 -205 -53 0 0 456 -41 0 rlineto
            return
          </CharString>
          <CharString index="89">
            -135 44 -54 82 vhcurveto
            74 27 hlineto
            -7 -72 14 0 hvcurveto
            -31 5 -49 10 0 133 rrcurveto
            594 -41 vlineto
            return
          </CharString>
          <CharString index="90">
            41 439 hlineto
            75 39 48 20 84 0 rrcurveto
            76 47 -57 -72 hvcurveto
            -369 41 369 vlineto
            0 18 -4 30 -7 16 69 40 69 25 82 0 rrcurveto
            76 47 -57 -72 hvcurveto
            -369 41 369 vlineto
            93 -63 77 -101 vhcurveto
            -83 0 -94 -41 -52 -40 -25 48 -52 33 -67 0 -80 0 -68 -34 -59 -37 rrcurveto
            return
          </CharString>
          <CharString index="91">
            41 439 hlineto
            75 39 49 21 85 0 rrcurveto
            76 47 -54 -75 hvcurveto
            -370 41 370 vlineto
            88 -58 82 -106 vhcurveto
            -81 0 -69 -34 -59 -37 rrcurveto
            return
          </CharString>
          <CharString index="92">
            -190 46 -73 177 172 53 68 195 195 -50 83 -175 -164 -59 -61 -217 vhcurveto
            return
          </CharString>
          <CharString index="93">
            218 65 19 117 120 64 -29 -208 -193 -63 -29 -121 -119 -63 23 199 vhcurveto
            return
          </CharString>
          <CharString index="94">
            40 301 hlineto
            64 -26 87 -14 45 0 rrcurveto
            151 30 140 136 122 -36 147 -145 hvcurveto
            -68 0 -102 -43 -26 -22 rrcurveto
            return
          </CharString>
          <CharString index="95">
            382 vlineto
            53 25 64 27 79 0 rrcurveto
            78 62 -69 -159 -191 -63 -44 -77 hvcurveto
            -77 0 -50 11 -69 18 rrcurveto
            return
          </CharString>
          <CharString index="96">
            41 430 hlineto
            77 37 48 29 86 0 29 0 25 -3 20 -4 rrcurveto
            40 vlineto
            -17 7 -28 1 -29 0 -87 0 -63 -38 -61 -35 rrcurveto
            return
          </CharString>
          <CharString index="97">
            -103 44 -14 94 vhcurveto
            138 hlineto
            62 27 -35 -44 hvcurveto
            -49 vlineto
            -82 -58 2 -31 vhcurveto
            return
          </CharString>
          <CharString index="98">
            38 -4 167 -9 49 0 rrcurveto
            64 66 12 109 hvcurveto
            49 vlineto
            75 -50 45 -80 vhcurveto
            -138 hlineto
            -62 -35 1 75 hvcurveto
            46 vlineto
            59 20 30 77 vhcurveto
            return
          </CharString>
          <CharString index="99">
            -52 5 -137 6 -52 0 rrcurveto
            -103 -35 -47 -82 hvcurveto
            return
          </CharString>
          <CharString index="100">
            89 -302 hlineto
            -135 44 -54 82 vhcurveto
            74 27 hlineto
            -7 -72 14 0 hvcurveto
            -31 5 -49 10 0 133 rrcurveto
            return
          </CharString>
          <CharString index="101">
            -168 148 -30 hlineto
            return
          </CharString>
          <CharString index="102">
            -88 58 -82 106 vhcurveto
            81 0 69 34 59 37 rrcurveto
            return
          </CharString>
          <CharString index="103">
            14 -62 27 0 rlineto
            return
          </CharString>
          <CharString index="104">
            531 -41 -440 vlineto
            -75 -39 -49 -20 -85 0 rrcurveto
            -76 -47 54 75 hvcurveto
            370 -41 vlineto
            return
          </CharString>
          <CharString index="105">
            143 -421 rlineto
            32 -103 65 -6 21 -1 rrcurveto
            -90 -270 24 0 56 102 233 699 -44 0 -165 -488 rlineto
            1 0 -59 -14 -31 87 rrcurveto
            -142 415 rlineto
            return
          </CharString>
          <CharString index="106">
            343 0 -328 -448 0 -41 381 0 rlineto
            0 0 1 40 -1 1 rrcurveto
            -328 0 328 448 0 41 -396 0 rlineto
            return
          </CharString>
          <CharString index="107">
            -16 12 -13 16 16 13 13 16 16 -13 12 -16 -16 -12 -12 -16 vhcurveto
            return
          </CharString>
          <CharString index="108">
            -16 13 -13 16 16 13 13 16 16 -13 12 -16 -16 -13 -12 -16 vhcurveto
            return
          </CharString>
          <CharString index="109">
            -134 52 -234 184 vhcurveto
            261 hlineto
            151 62 175 193 124 -17 240 -196 hvcurveto
            -261 hlineto
            -192 -44 -201 -163 hvcurveto
            return
          </CharString>
          <CharString index="110">
            2 261 99 72 104 0 rrcurveto
            261 hlineto
            144 38 -166 -167 -222 -81 -115 -101 hvcurveto
            -261 hlineto
            -142 0 -64 185 1 152 rrcurveto
            return
          </CharString>
          <CharString index="111">
            265 31 -265 hlineto
            return
          </CharString>
          <CharString index="112">
            -57 46 -45 56 56 44 45 57 57 -44 46 -56 -56 -46 -46 -57 vhcurveto
            return
          </CharString>
          <CharString index="113">
            42 35 35 42 42 33 -35 -42 -42 -33 -34 -42 -42 -35 34 42 vhcurveto
            return
          </CharString>
          <CharString index="114">
            175 hlineto
            83 20 -42 -64 hvcurveto
            0 -108 -208 -152 -67 -54 rrcurveto
            -29 309 33 -249 vlineto
            39 32 211 158 0 123 0 78 -32 58 -98 0 rrcurveto
            return
          </CharString>
          <CharString index="115">
            -72 0 -45 -2 -66 -8 rrcurveto
            -1 1 -1 -24 2 0 rrcurveto
            return
          </CharString>
          <CharString index="116">
            191 hlineto
            48 45 -16 -64 hvcurveto
            -31 vlineto
            0 -47 -42 -27 -56 -2 rrcurveto
            -142 -5 0 -23 142 -4 rlineto
            46 -1 51 -25 0 -57 rrcurveto
            -23 vlineto
            -69 -29 -21 -72 vhcurveto
            return
          </CharString>
          <CharString index="117">
            47 -13 65 0 74 0 rrcurveto
            99 27 48 71 hvcurveto
            28 vlineto
            0 58 -48 31 -23 8 24 5 47 31 0 54 rrcurveto
            35 vlineto
            60 -34 52 -87 vhcurveto
            return
          </CharString>
          <CharString index="118">
            -76 0 -69 2 -50 -13 rrcurveto
            return
          </CharString>
          <CharString index="119">
            32 0 133 133 -49 0 rlineto
            return
          </CharString>
          <CharString index="120">
            -17 37 vlineto
            82 19 35 101 hvcurveto
            -34 hlineto
            1 -84 -21 -17 -45 -9 rrcurveto
            return
          </CharString>
          <CharString index="121">
            128 43 0 -441 33 0 0 476 -33 0 -128 -55 rlineto
            return
          </CharString>
          <CharString index="122">
            34 0 373 757 -34 0 rlineto
            return
          </CharString>
          <CharString index="123">
            10 -19 rlineto
            36 22 23 23 40 0 34 0 39 -59 47 -1 42 -1 34 33 33 30 rrcurveto
            -12 19 rlineto
            -26 -18 -36 -29 -34 0 -31 0 -46 59 -43 1 -40 0 -34 -29 -36 -31 rrcurveto
            return
          </CharString>
          <CharString index="124">
            65 -359 254 hlineto
            188 71 197 166 150 -33 219 -226 hvcurveto
            -254 -345 -65 hlineto
            return
          </CharString>
          <CharString index="125">
            317 153 28 -153 302 213 vlineto
            134 83 -98 -227 -150 -62 -172 -155 hvcurveto
            return
          </CharString>
          <CharString index="126">
            -100 58 -10 59 vhcurveto
            117 hlineto
            64 49 14 96 hvcurveto
            255 vlineto
            67 -30 43 -83 vhcurveto
            -117 hlineto
            -71 -46 -26 -84 hvcurveto
            return
          </CharString>
          <CharString index="127">
            247 vlineto
            58 22 23 66 vhcurveto
            109 hlineto
            65 19 -28 -53 hvcurveto
            -247 vlineto
            -56 -11 -25 -73 vhcurveto
            -109 hlineto
            -62 -26 15 66 hvcurveto
            return
          </CharString>
          <CharString index="128">
            10 -15 272 0 0 -150 33 0 0 150 rlineto
            return
          </CharString>
          <CharString index="129">
            59 12 0 23 -59 0 0 169 -17 0 -16 -48 rlineto
            return
          </CharString>
          <CharString index="130">
            -121 -232 vlineto
            183 289 -37 0 rlineto
            return
          </CharString>
          <CharString index="131">
            53 -9 81 0 81 0 rrcurveto
            63 46 32 82 hvcurveto
            64 vlineto
            71 -32 36 -77 vhcurveto
            -65 0 -87 11 -29 -50 rrcurveto
            11 200 265 0 0 33 -295 0 -15 -292 29 0 rlineto
            1 36 32 29 39 0 rrcurveto
            112 hlineto
            73 5 -38 -40 hvcurveto
            -56 vlineto
            -56 -28 -28 -52 vhcurveto
            return
          </CharString>
          <CharString index="132">
            -2 -213 62 -37 72 0 rrcurveto
            107 hlineto
            61 44 33 72 hvcurveto
            73 vlineto
            51 -17 36 -88 vhcurveto
            return
          </CharString>
          <CharString index="133">
            -48 0 -103 -4 -55 -6 1 100 15 92 75 0 rrcurveto
            return
          </CharString>
          <CharString index="134">
            204 hlineto
            46 28 -6 -50 hvcurveto
            -68 vlineto
            -49 -24 -26 -50 vhcurveto
            -106 hlineto
            -69 -29 72 127 hvcurveto
            return
          </CharString>
          <CharString index="135">
            296 0 -177 -443 35 0 183 456 -12 20 -325 0 rlineto
            return
          </CharString>
          <CharString index="136">
            -54 17 -50 92 vhcurveto
            120 hlineto
            55 50 20 84 hvcurveto
            58 vlineto
            0 39 -29 39 -34 6 48 6 15 45 0 27 rrcurveto
            40 vlineto
            86 -38 31 -70 vhcurveto
            -110 hlineto
            -67 -49 -25 -92 hvcurveto
            -40 vlineto
            0 -34 16 -42 51 -11 -27 -3 -40 -24 0 -48 rrcurveto
            return
          </CharString>
          <CharString index="137">
            51 vlineto
            41 32 25 46 vhcurveto
            122 hlineto
            29 39 -19 -48 hvcurveto
            -50 vlineto
            -56 -28 -19 -48 vhcurveto
            -112 hlineto
            -60 -20 21 54 hvcurveto
            return
          </CharString>
          <CharString index="138">
            32 vlineto
            68 27 20 60 vhcurveto
            97 hlineto
            56 28 -16 -72 hvcurveto
            -32 vlineto
            -41 -30 -29 -42 vhcurveto
            -124 hlineto
            -37 -35 20 50 hvcurveto
            return
          </CharString>
          <CharString index="139">
            48 0 103 3 55 6 -1 -100 -15 -92 -76 0 rrcurveto
            return
          </CharString>
          <CharString index="140">
            68 vlineto
            49 24 26 50 vhcurveto
            107 hlineto
            return
          </CharString>
          <CharString index="141">
            69 28 -72 -127 hvcurveto
            return
          </CharString>
          <CharString index="142">
            -204 hlineto
            -46 -28 6 50 hvcurveto
            return
          </CharString>
          <CharString index="143">
            -120 81 -42 91 vhcurveto
            144 hlineto
            99 69 43 119 hvcurveto
            307 vlineto
            91 -46 71 -122 vhcurveto
            -144 hlineto
            -95 -77 -54 -108 hvcurveto
            return
          </CharString>
          <CharString index="144">
            307 vlineto
            74 48 47 83 vhcurveto
            144 hlineto
            89 38 -46 -75 hvcurveto
            -307 vlineto
            -74 -37 -47 -90 vhcurveto
            -144 hlineto
            -76 -55 37 84 hvcurveto
            return
          </CharString>
          <CharString index="145">
            275 hlineto
            103 1 66 -41 0 -105 0 -152 -334 -207 -104 -56 rrcurveto
            -38 474 41 -389 vlineto
            59 30 336 213 0 167 0 113 -63 74 -140 0 rrcurveto
            return
          </CharString>
          <CharString index="146">
            93 -14 87 -1 124 0 rrcurveto
            62 101 33 137 hvcurveto
            104 vlineto
            97 -45 69 -118 vhcurveto
            -31 0 -53 2 -67 -2 -58 -1 -39 -36 -10 -16 rrcurveto
            15 308 385 0 0 41 -423 0 rlineto
            return
          </CharString>
          <CharString index="147">
            74 0 117 5 85 10 -1 -102 -21 -197 -115 0 rrcurveto
            return
          </CharString>
          <CharString index="148">
            73 -11 108 -1 101 0 rrcurveto
            89 83 94 260 307 -79 78 -109 hvcurveto
            -129 hlineto
            -94 -67 -37 -112 hvcurveto
            return
          </CharString>
          <CharString index="149">
            -72 59 -42 55 55 61 38 76 vhcurveto
            -25 hlineto
            0 -53 -39 -35 -52 -1 -47 -1 -42 39 0 51 rrcurveto
            return
          </CharString>
          <CharString index="150">
            -149 -65 77 -132 115 16 rrcurveto
            30 vlineto
            -113 -1 -10 99 101 53 rrcurveto
            return
          </CharString>
          <CharString index="151">
            118 -130 38 0 123 130 -36 0 -106 -100 -102 100 rlineto
            return
          </CharString>
          <CharString index="152">
            33 0 133 133 -50 0 rlineto
            return
          </CharString>
          <CharString index="153">
            -9 7 -7 9 vhcurveto
            24 hlineto
            9 7 6 10 hvcurveto
            59 vlineto
            9 -6 7 -10 vhcurveto
            -24 hlineto
            -11 -5 -6 -10 hvcurveto
            return
          </CharString>
          <CharString index="154">
            8 -134 26 0 7 134 0 67 -41 0 rlineto
            return
          </CharString>
          <CharString index="155">
            -158 31 -120 153 vhcurveto
            45 0 90 13 64 26 rrcurveto
            -133 vlineto
            0 -93 -63 -38 -54 3 rrcurveto
            -238 10 0 -26 238 -24 rlineto
            69 -7 89 51 0 124 rrcurveto
            625 vlineto
            -47 4 -87 12 -106 0 rrcurveto
            -125 -59 -101 -168 hvcurveto
            return
          </CharString>
          <CharString index="156">
            120 32 108 111 vhcurveto
            199 -433 hlineto
            -83 -21 -42 -11 -74 0 rrcurveto
            -115 -28 91 146 hvcurveto
            return
          </CharString>
          <CharString index="157">
            -19 -75 0 -226 -346 0 301 486 -47 0 rlineto
            return
          </CharString>
          <CharString index="158">
            -74 0 -117 -5 -85 -10 1 102 21 197 115 0 rrcurveto
            return
          </CharString>
          <CharString index="159">
            -74 9 -107 3 -101 0 rrcurveto
            -89 -83 -94 -260 hvcurveto
            return
          </CharString>
          <CharString index="160">
            0 -18.2900390625 4.310546875 -20.2646484375 13.9296875 -12.96484375 rrcurveto
            -21.240234375 -91.7998046875 0 -91.0302734375 rlineto
            -100.650390625 63.3203125 -53.349609375 94 vhcurveto
            150 hlineto
            131 19 87.2998046875 60 hvcurveto
            56.2998046875 vlineto
            80.3203125 -49.1474609375 54.330078125 -90.572265625 vhcurveto
            -208.310546875 hlineto
            -26.0869140625 -41.04296875 13.3603515625 35.3798828125 43.419921875 57.16015625 4.669921875 16 hvcurveto
            156 hlineto
            return
          </CharString>
          <CharString index="161">
            142 23 118.919921875 60 hvcurveto
            0 101.139648438 -35.41015625 31.720703125 -15.689453125 15.6396484375 rrcurveto
            return
          </CharString>
          <CharString index="162">
            101.099609375 12.6396484375 0 27.8603515625 rlineto
            return
          </CharString>
          <CharString index="163">
            -312 hlineto
            -116.379882812 -55.9501953125 -58.650390625 -130.349609375 hvcurveto
            0 -57.01953125 13.330078125 -66.3408203125 64.099609375 -29.33984375 rrcurveto
            -52.724609375 -3.9794921875 -23.6953125 -37.98046875 0 -30.990234375 rrcurveto
            return
          </CharString>
          <CharString index="164">
            166.490234375 vlineto
            0 23.3798828125 -22.0703125 46.41015625 vhcurveto
            202.350585938 hlineto
            79.642578125 23.8671875 -41.4296875 -55.0400390625 hvcurveto
            -54.650390625 vlineto
            -78.490234375 -43.1298828125 -28.3095703125 -66.3701171875 vhcurveto
            -150 hlineto
            -38.349609375 -77.80078125 14.3701171875 99.1298828125 hvcurveto
            return
          </CharString>
          <CharString index="165">
            83.8095703125 24.3701171875 64.6904296875 100.759765625 vhcurveto
            128.860351562 hlineto
            return
          </CharString>
          <CharString index="166">
            59.5693359375 0 38.7802734375 -49.01953125 0.990234375 -99.48046875 0.66015625 -65.08984375 -29.7197265625 -72.66015625 -98.7607421875 0 rrcurveto
            -100.6796875 hlineto
            -82.3603515625 -42.4697265625 50.5595703125 87.1904296875 hvcurveto
            return
          </CharString>
          <CharString index="167">
            0 80 26 39 65 -3 rrcurveto
            0 112 -5 1 vhcurveto
            26 vlineto
            -43 10 -39 9 -38 0 rrcurveto
            -120 -5 -101 -55 hvcurveto
            0 -89 rlineto
            return
          </CharString>
          <CharString index="168">
            89 -302 hlineto
            -135 38 -54 88 vhcurveto
            71 27 hlineto
            -5 -70 14 0 hvcurveto
            -35 6 -46 5 0 137 rrcurveto
            return
          </CharString>
          <CharString index="169">
            -9.8994140625 7.2001953125 -5.400390625 8.1005859375 vhcurveto
            return
          </CharString>
          <CharString index="170">
            7.19921875 -36 hlineto
            -7.2001953125 -1.7998046875 -10.7998046875 -18 vhcurveto
            -13.5 vlineto
            0 48.6005859375 -10.7998046875 53.099609375 hvcurveto
            return
          </CharString>
          <CharString index="171">
            93.6005859375 vlineto
            9 -3.6005859375 7.19921875 -10.7998046875 vhcurveto
            -21.599609375 hlineto
            -9.900390625 -5.400390625 -5.3994140625 -10.7998046875 hvcurveto
            return
          </CharString>
          <CharString index="172">
            -7 35 hlineto
            7 1 12 18 vhcurveto
            13 vlineto
            0 -48 11 -53 hvcurveto
            return
          </CharString>
          <CharString index="173">
            -85 29 -40 98 vhcurveto
            45 hlineto
            101 28 40 85 hvcurveto
            62 vlineto
            85 -29 40 -98 vhcurveto
            -45 hlineto
            -101 -28 -40 -85 hvcurveto
            return
          </CharString>
          <CharString index="174">
            62 vlineto
            74 25 19 72 vhcurveto
            45 hlineto
            73 22 -25 -68 hvcurveto
            -62 vlineto
            -74 -26 -19 -71 vhcurveto
            -45 hlineto
            -67 -28 20 73 hvcurveto
            return
          </CharString>
          <CharString index="175">
            45 0 72 172 272 0 67 -172 45 0 -220 570 -41 0 rlineto
            return
          </CharString>
          <CharString index="176">
            125 302 115 -302 rlineto
            return
          </CharString>
          <CharString index="177">
            245 hlineto
            126 31 72 85 hvcurveto
            0 90 -71 41 -21 4 33 13 56 26 0 90 rrcurveto
            67 -30 83 -124 vhcurveto
            -245 hlineto
            return
          </CharString>
          <CharString index="178">
            231 vlineto
            12 -1 192 1 0 0 rrcurveto
            65 51 -46 -70 -105 -66 -10 -50 hvcurveto
            return
          </CharString>
          <CharString index="179">
            216 204 vlineto
            51 62 -19 -90 -77 -49 -30 -64 hvcurveto
            return
          </CharString>
          <CharString index="180">
            -138 23 -161 181 vhcurveto
            77 0 84 11 58 11 rrcurveto
            29 vlineto
            0 0 -146 -8 -73 -2 -124 1 -39 95 0 162 0 161 47 81 116 0 65 0 139 -7 15 -3 rrcurveto
            29 vlineto
            -51 12 -125 10 -43 0 rrcurveto
            -170 -34 -138 -145 hvcurveto
            return
          </CharString>
          <CharString index="181">
            234 hlineto
            60 159 1 282 hvcurveto
            0 123 -43 164 -176 2 rrcurveto
            -234 hlineto
            return
          </CharString>
          <CharString index="182">
            490 193 vlineto
            90 88 -65 -183 -135 -37 -107 -141 hvcurveto
            return
          </CharString>
          <CharString index="183">
            -52 34 -33 50 vhcurveto
            return
          </CharString>
          <CharString index="184">
            -285 hlineto
            -15 -37 3 49 hvcurveto
            0 173 306 6 0 30 -306 6 0 170 rlineto
            31 9 24 56 vhcurveto
            return
          </CharString>
          <CharString index="185">
            -274 10 rlineto
            -64 -40 -29 -61 hvcurveto
            return
          </CharString>
          <CharString index="186">
            -306 6 0 171 rlineto
            1 30 8 25 56 0 rrcurveto
            return
          </CharString>
          <CharString index="187">
            0 -50 6 -244 207 1 60 0 82 24 53 34 rrcurveto
            return
          </CharString>
          <CharString index="188">
            11 -51 29 0 0 308 rlineto
            -24 2 -22 1 -21 0 rrcurveto
            return
          </CharString>
          <CharString index="189">
            -81 0 -22 -7 -62 -8 rrcurveto
            -26 191 -178 vlineto
            -22 -17 -91 -41 -81 0 rrcurveto
            -117 -55 111 143 191 49 59 123 hvcurveto
            89 0 70 -8 62 -6 rrcurveto
            30 vlineto
            -64 14 -114 11 -43 0 rrcurveto
            -172 -41 -109 -184 hvcurveto
            return
          </CharString>
          <CharString index="190">
            41 255 358 -255 41 571 -41 -274 -358 274 -41 hlineto
            return
          </CharString>
          <CharString index="191">
            41 570 -41 hlineto
            return
          </CharString>
          <CharString index="192">
            47 -25 74 -12 49 34 47 33 7 71 0 47 rrcurveto
            402 -41 -402 vlineto
            0 -151 -89 11 -90 20 rrcurveto
            return
          </CharString>
          <CharString index="193">
            41 259 112 hlineto
            204 -259 50 0 -216 281 216 290 -50 0 -203 -270 -113 0 0 270 -41 0 rlineto
            return
          </CharString>
          <CharString index="194">
            -55 33 -31 53 vhcurveto
            290 41 -277 hlineto
            -34 -24 11 42 hvcurveto
            476 -41 vlineto
            return
          </CharString>
          <CharString index="195">
            39 0 58 493 195 -493 31 0 193 486 53 -486 41 0 -63 571 -41 0 -198 -499 -198 499 -44 0 rlineto
            return
          </CharString>
          <CharString index="196">
            41 497 hlineto
            372 -497 37 0 0 571 -40 0 0 -495 -372 495 -38 0 rlineto
            return
          </CharString>
          <CharString index="197">
            -249 78 -36 161 168 72 47 245 256 -76 32 -164 -166 -73 -51 -244 vhcurveto
            return
          </CharString>
          <CharString index="198">
            1 221 63 28 134 0 153 0 42 -29 4 -218 3 -206 -59 -45 -143 0 -146 0 -53 35 1 214 rrcurveto
            return
          </CharString>
          <CharString index="199">
            212 -10 rlineto
            63 1 94 -2 0 175 rrcurveto
            117 -81 38 -71 vhcurveto
            -258 hlineto
            return
          </CharString>
          <CharString index="200">
            248 217 vlineto
            63 0 49 -35 -1 -83 rrcurveto
            return
          </CharString>
          <CharString index="201">
            222 65 27 133 148 51 -27 -220 -206 -56 -45 -143 -146 -52 35 214 vhcurveto
            return
          </CharString>
          <CharString index="202">
            41 256 hlineto
            1 -2 166 -8 30 -2 rrcurveto
            135 -244 47 0 rlineto
            return
          </CharString>
          <CharString index="203">
            -138 248 rlineto
            74 2 55 63 0 96 rrcurveto
            134 -93 28 -60 vhcurveto
            -258 hlineto
            return
          </CharString>
          <CharString index="204">
            245 217 vlineto
            39 73 -20 -102 -102 -70 -21 -35 hvcurveto
            return
          </CharString>
          <CharString index="205">
            -96 44 -18 94 vhcurveto
            143 hlineto
            62 27 -20 -52 hvcurveto
            -70 vlineto
            -33 -21 -54 -68 -96 -163 5 0 vhcurveto
            -28 vlineto
            37 -12 173 -6 49 0 rrcurveto
            55 75 19 109 hvcurveto
            70 vlineto
            75 -43 37 -87 vhcurveto
            -143 hlineto
            -59 -38 -1 75 hvcurveto
            64 vlineto
            62 28 33 69 98 148 -5 0 vhcurveto
            28 vlineto
            -67 9 -127 8 -52 0 rrcurveto
            -103 -35 -53 -82 hvcurveto
            return
          </CharString>
          <CharString index="206">
            206 -529 41 529 206 41 -453 hlineto
            return
          </CharString>
          <CharString index="207">
            -1 -239 102 -26 131 0 rrcurveto
            120 108 32 233 hvcurveto
            310 -42 -310 vlineto
            -176 -64 -48 -122 -134 -56 44 180 vhcurveto
            310 -42 vlineto
            return
          </CharString>
          <CharString index="208">
            215 -570 41 0 121 333 129 -333 39 0 208 570 -42 0 -186 -509 -126 331 64 178 -44 0 -185 -509 -189 509 rlineto
            return
          </CharString>
          <CharString index="209">
            222 -380 0 -191 41 0 0 191 220 380 -47 0 -193 -336 -196 336 rlineto
            return
          </CharString>
          <CharString index="210">
            419 41 -363 hlineto
            363 488 0 41 -419 0 0 -41 367 0 -367 -488 rlineto
            return
          </CharString>
          <CharString index="211">
            106 vlineto
            12 -5 10 -15 vhcurveto
            -29 hlineto
            -13 -7 -7 -15 hvcurveto
            return
          </CharString>
          <CharString index="212">
            9 -35 hlineto
            0 -9 -1 -17 -24 1 rrcurveto
            -18 vlineto
            0 64 -15 72 hvcurveto
            return
          </CharString>
          <CharString index="213">
            106 vlineto
            12 -4 10 -15 vhcurveto
            -29 hlineto
            -13 -7 -7 -15 hvcurveto
            return
          </CharString>
          <CharString index="214">
            106 vlineto
            12 -5 10 -15 vhcurveto
            -28 hlineto
            -13 -7 -7 -15 hvcurveto
            return
          </CharString>
          <CharString index="215">
            9 -36 hlineto
            0 -9 -1 -17 -24 1 rrcurveto
            -17 vlineto
            0 64 -15 71 hvcurveto
            return
          </CharString>
          <CharString index="216">
            8 -134 26 0 8 134 0 67 -42 0 rlineto
            return
          </CharString>
          <CharString index="217">
            63 vlineto
            74 25 19 72 vhcurveto
            46 hlineto
            73 22 -25 -68 hvcurveto
            -63 vlineto
            -74 -26 -19 -71 vhcurveto
            -46 hlineto
            -67 -28 20 73 hvcurveto
            return
          </CharString>
          <CharString index="218">
            204.939453125 -531 44.3603515625 0 106.139648438 289.040039062 129.220703125 -289.040039062 42.3193359375 0 208.940429688 531 -42.7197265625 0 -188.400390625 -474.139648438 -129.200195312 285 67.2001953125 189.139648438 -43.0400390625 0 -172.979492188 -474.139648438 -182.740234375 474.139648438 rlineto
            return
          </CharString>
          <CharString index="219">
            42 648 hlineto
            0 55 65 9 17 -47 rrcurveto
            237 -615 rlineto
            35 -93 128 29 0 93 rrcurveto
            653 -41 -652 vlineto
            -1 -48 -64 -17 -19 52 rrcurveto
            -236 613 rlineto
            -34 88 -129 -14 0 -102 rrcurveto
            return
          </CharString>
          <CharString index="220">
            40 0 42 656 rlineto
            3 45 54 14 15 -50 rrcurveto
            122 -409 rlineto
            21 -70 90 4 18 66 rrcurveto
            110 410 rlineto
            13 46 56 -7 3 -48 rrcurveto
            51 -657 41 0 -49 653 rlineto
            -5 103 -123 12 -26 -87 rrcurveto
            -110 -411 rlineto
            -8 -30 -32 -5 -11 35 rrcurveto
            -123 410 rlineto
            -27 90 -125 -16 0 -102 rrcurveto
            return
          </CharString>
          <CharString index="221">
            41 459 hlineto
            89 33 49 7 71 0 rrcurveto
            74 49 -54 -75 hvcurveto
            -370 41 370 vlineto
            0 33 -8 32 -17 26 86 31 58 7 70 0 rrcurveto
            74 49 -54 -75 hvcurveto
            -370 41 370 vlineto
            88 -58 82 -106 vhcurveto
            -100 0 -43 -11 -92 -36 -28 29 -40 18 -50 0 -108 0 -31 -13 -111 -44 rrcurveto
            return
          </CharString>
          <CharString index="222">
            41 459 hlineto
            89 33 49 7 71 0 rrcurveto
            74 49 -54 -75 hvcurveto
            -370 41 370 vlineto
            88 -58 82 -106 vhcurveto
            -108 0 -31 -13 -111 -44 rrcurveto
            return
          </CharString>
          <CharString index="223">
            41 459 hlineto
            99 37 86 11 102 -10 rrcurveto
            41 vlineto
            -163 14 -75 -30 -90 -39 rrcurveto
            return
          </CharString>
          <CharString index="224">
            -113 75 -18 61 vhcurveto
            124 hlineto
            106 49 52 104 hvcurveto
            113 vlineto
            0 201 -35 66 -140 1 -99 1 -61 -12 -70 -12 rrcurveto
            -29 vlineto
            82 6 74 5 72 0 rrcurveto
            71 65 -11 -168 hvcurveto
            return
          </CharString>
          <CharString index="225">
            -238 hlineto
            -96 -40 -45 -77 hvcurveto
            return
          </CharString>
          <CharString index="226">
            64 vlineto
            0 61 35 17 60 3 rrcurveto
            return
          </CharString>
          <CharString index="227">
            238 12 0 -132 rlineto
            -66 -21 -49 -93 vhcurveto
            -124 hlineto
            -69 -26 31 59 hvcurveto
            return
          </CharString>
          <CharString index="228">
            -88 58 -82 106 vhcurveto
            108 0 38 9 104 38 rrcurveto
            493 -41 -467 vlineto
            -75 -24 -63 -8 -71 0 rrcurveto
            -74 -49 54 75 hvcurveto
            370 -41 vlineto
            return
          </CharString>
          <CharString index="229">
            48 -7 87 -8 106 0 rrcurveto
            125 59 101 168 158 -31 120 -153 hvcurveto
            -45 0 -91 -13 -64 -26 rrcurveto
            287 -41 vlineto
            return
          </CharString>
          <CharString index="230">
            436 vlineto
            83 21 43 8 74 0 rrcurveto
            121 22 -101 -136 -112 -27 -116 -116 hvcurveto
            return
          </CharString>
          <CharString index="231">
            -168 59 -101 125 vhcurveto
            106 0 86 8 48 7 rrcurveto
            780 -41 -287 vlineto
            -64 26 -90 13 -45 0 rrcurveto
            -153 -31 -120 -158 hvcurveto
            return
          </CharString>
          <CharString index="232">
            136 22 101 121 vhcurveto
            74 0 42 -8 83 -21 rrcurveto
            -436 -199 vlineto
            -116 -27 116 112 hvcurveto
            return
          </CharString>
          <CharString index="233">
            41 474 170 40 -170 116 hlineto
            62 11 55 82 vhcurveto
            return
          </CharString>
          <CharString index="234">
            -49 15 -52 2 -49 0 rrcurveto
            -120 -4 -102 -54 hvcurveto
            return
          </CharString>
          <CharString index="235">
            41 304 hlineto
            64 -26 91 -13 45 0 rrcurveto
            153 31 120 158 168 -59 101 -125 hvcurveto
            -106 0 -87 -9 -48 -7 rrcurveto
            return
          </CharString>
          <CharString index="236">
            436 200 vlineto
            116 27 -116 -112 -136 -22 -101 -121 hvcurveto
            -74 0 -43 8 -83 21 rrcurveto
            return
          </CharString>
          <CharString index="237">
            -141 55 -48 79 vhcurveto
            78 27 hlineto
            -7 -72 14 0 hvcurveto
            -61 10 -31 37 0 101 rrcurveto
            301 187 41 -187 148 -41 vlineto
            return
          </CharString>
        <CharString name=".notdef">
          216 0 13 505 13 hstem
          113 14 530 14 vstem
          657 506 rmoveto
          0 -481 -252 241 rlineto
          -265 -253 rmoveto
          254 243 253 -243 rlineto
          -520 9 rmoveto
          0 485 256 -241 rlineto
          265 252 rmoveto
          -254 -242 -257 242 rlineto
          -24 -518 rmoveto
          558 531 -558 hlineto
          endchar
        </CharString>
        <CharString name="A">
          94 21 -21 21 -21 236 41 455 -20 hstemhm
          hintmask 10110000
          56 hmoveto
          -73 callsubr
          -125 -455 rmoveto
          -72 callsubr
          endchar
        </CharString>
        <CharString name="AE">
          360 -4 43 -30 30 205 40 56 42 309 41 -41 29 hstemhm
          469 41 hintmask 10110010
          37 hmoveto
          47 0 143 244 242 0 0 -123 rlineto
          0 -113 71 -15 65 3 rrcurveto
          hintmask 01110010
          275 13 0 30 rlineto
          hintmask 10111010
          -275 hlineto
          -46 -49 4 79 hvcurveto
          0 218 330 6 0 30 -330 6 0 214 rlineto
          1 59 -10 36 93 0 rrcurveto
          hintmask 00110110
          286 29 hlineto
          hintmask 10111010
          -286 12 rlineto
          -101 3 -41 -26 -66 -114 rrcurveto
          -136 -311 rmoveto
          219 371 0 -371 rlineto
          endchar
        </CharString>
        <CharString name="Aacute">
          94 0 21 215 41 435 20 65 133 hstem
          336 165 vstem
          336 797 rmoveto
          12 callsubr
          -396 -930 rmoveto
          -73 callsubr
          -125 -455 rmoveto
          -72 callsubr
          endchar
        </CharString>
        <CharString name="Abreve">
          94 0 21 215 41 435 20 65 25 hstem
          242 25 180 25 vstem
          242 911 rmoveto
          42 callsubr
          -211 -911 rmoveto
          -73 callsubr
          -125 -455 rmoveto
          -72 callsubr
          endchar
        </CharString>
        <CharString name="Acircumflex">
          94 0 21 215 41 435 20 65 130 hstem
          212 279 vstem
          212 797 rmoveto
          -38 callsubr
          0 vmoveto
          37 hmoveto
          -320 -927 rmoveto
          -73 callsubr
          -125 -455 rmoveto
          -72 callsubr
          endchar
        </CharString>
        <CharString name="Adieresis">
          94 0 21 215 41 435 20 65 57 hstem
          196 57 197 58 vstem
          196 826 rmoveto
          0 callsubr
          254 hmoveto
          1 callsubr
          -394 -826 rmoveto
          -73 callsubr
          -125 -455 rmoveto
          -72 callsubr
          endchar
        </CharString>
        <CharString name="Agrave">
          94 0 21 215 41 435 20 65 133 hstem
          203 165 vstem
          203 930 rmoveto
          -37 callsubr
          -196 -930 rmoveto
          -73 callsubr
          -125 -455 rmoveto
          -72 callsubr
          endchar
        </CharString>
        <CharString name="Amacron">
          94 0 21 215 41 435 20 65 31 hstem
          219 265 vstem
          219 797 rmoveto
          4 callsubr
          -163 -828 rmoveto
          -73 callsubr
          -125 -455 rmoveto
          -72 callsubr
          endchar
        </CharString>
        <CharString name="Aogonek">
          94 -181 30 131 20 0 21 215 41 435 20 hstemhm
          hintmask 11000000
          603 hmoveto
          43 callsubr
          hintmask 00111000
          -568 hmoveto
          -73 callsubr
          -125 -455 rmoveto
          -72 callsubr
          endchar
        </CharString>
        <CharString name="Aring">
          94 0 21 215 41 435 20 -2 26 153 26 hstemhm
          251 25 152 25 hintmask 00011110
          251 832 rmoveto
          5 callsubr
          25 hmoveto
          6 callsubr
          hintmask 11100000
          -220 -832 rmoveto
          -73 callsubr
          -125 -455 rmoveto
          -72 callsubr
          endchar
        </CharString>
        <CharString name="Atilde">
          94 0 21 215 41 435 20 65 34 26 34 hstem
          183 831 rmoveto
          16 callsubr
          -127 -831 rmoveto
          -73 callsubr
          -125 -455 rmoveto
          -72 callsubr
          endchar
        </CharString>
        <CharString name="B">
          29 0 42 320 42 287 41 hstem
          98 42 374 41 vstem
          98 hmoveto
          -71 callsubr
          42 -690 rmoveto
          -70 callsubr
          -221 362 rmoveto
          -69 callsubr
          endchar
        </CharString>
        <CharString name="C">
          4 -6 41 664 41 hstem
          68 41 vstem
          68 368 rmoveto
          -68 callsubr
          endchar
        </CharString>
        <CharString name="Cacute">
          4 -6 41 664 41 60 133 hstem
          68 41 201 165 vstem
          310 800 rmoveto
          12 callsubr
          -358 -565 rmoveto
          -68 callsubr
          endchar
        </CharString>
        <CharString name="Ccaron">
          4 -6 41 664 41 60 130 hstem
          68 41 89 279 vstem
          198 930 rmoveto
          44 callsubr
          83 -130 rmoveto
          38 hmoveto
          -286 -432 rmoveto
          -68 callsubr
          endchar
        </CharString>
        <CharString name="Ccedilla">
          4 -172 17 149 41 664 41 hstem
          68 41 210 34 vstem
          215 -155 rmoveto
          13 callsubr
          -186 514 rmoveto
          -68 callsubr
          endchar
        </CharString>
        <CharString name="Ccircumflex">
          4 -6 41 664 41 60 130 hstem
          68 41 84 279 vstem
          193 800 rmoveto
          -38 callsubr
          0 vmoveto
          37 hmoveto
          -289 -562 rmoveto
          -68 callsubr
          endchar
        </CharString>
        <CharString name="Cdotaccent">
          4 -6 41 664 41 61 91 hstem
          68 41 207 56 vstem
          316 817 rmoveto
          46 callsubr
          -248 -508 rmoveto
          -68 callsubr
          endchar
        </CharString>
        <CharString name="D">
          98 0 42 649 41 hstem
          98 41 437 41 vstem
          98 hmoveto
          -67 callsubr
          41 -690 rmoveto
          -66 callsubr
          endchar
        </CharString>
        <CharString name="Dcaron">
          98 0 42 649 41 60 130 hstem
          98 41 65 279 93 41 vstem
          204 922 rmoveto
          44 callsubr
          83 -130 rmoveto
          38 hmoveto
          -262 -792 rmoveto
          -67 callsubr
          41 -690 rmoveto
          -66 callsubr
          endchar
        </CharString>
        <CharString name="Dcroat">
          98 0 42 317 28 302 43 hstem
          98 41 430 42 vstem
          33 359 rmoveto
          17 callsubr
          106 -345 rmoveto
          18 callsubr
          endchar
        </CharString>
        <CharString name="E">
          8 -3 41 -29 29 303 43 -36 29 314 41 -41 29 hstemhm
          98 41 hintmask 10000010
          98 123 rmoveto
          -65 callsubr
          hintmask 01000010
          -64 callsubr
          hintmask 10100010
          -63 callsubr
          hintmask 00010010
          -62 callsubr
          hintmask 00101010
          -61 callsubr
          hintmask 00000110
          304 29 hlineto
          hintmask 10001010
          -60 callsubr
          endchar
        </CharString>
        <CharString name="Eacute">
          8 -3 41 -29 29 303 43 -36 29 314 29 -29 41 60 133 hstemhm
          98 41 178 165 hintmask 0000001010000000
          317 792 rmoveto
          12 callsubr
          hintmask 1000000100000000
          -335 -802 rmoveto
          -65 callsubr
          hintmask 0100000100000000
          -64 callsubr
          hintmask 1010000100000000
          -63 callsubr
          hintmask 0001000100000000
          -62 callsubr
          hintmask 0010010100000000
          -61 callsubr
          hintmask 0000100100000000
          304 29 hlineto
          hintmask 1000010100000000
          -60 callsubr
          endchar
        </CharString>
        <CharString name="Ecaron">
          8 -3 41 -29 29 303 43 -36 29 314 29 -29 41 60 130 hstemhm
          98 41 54 279 hintmask 0000001010000000
          193 922 rmoveto
          44 callsubr
          83 -130 rmoveto
          38 hmoveto
          hintmask 1000000100000000
          -251 -669 rmoveto
          -65 callsubr
          hintmask 0100000100000000
          -64 callsubr
          hintmask 1010000100000000
          -63 callsubr
          hintmask 0001000100000000
          -62 callsubr
          hintmask 0010010100000000
          -61 callsubr
          hintmask 0000100100000000
          304 29 hlineto
          hintmask 1000010100000000
          -60 callsubr
          endchar
        </CharString>
        <CharString name="Ecircumflex">
          8 -3 41 -29 29 303 43 -36 29 314 29 -29 41 65 130 hstemhm
          98 41 51 279 hintmask 0000001010000000
          190 797 rmoveto
          -38 callsubr
          0 vmoveto
          37 hmoveto
          hintmask 1000000100000000
          -256 -804 rmoveto
          -65 callsubr
          hintmask 0100000100000000
          -64 callsubr
          hintmask 1010000100000000
          -63 callsubr
          hintmask 0001000100000000
          -62 callsubr
          hintmask 0010010100000000
          -61 callsubr
          hintmask 0000100100000000
          304 29 hlineto
          hintmask 1000010100000000
          -60 callsubr
          endchar
        </CharString>
        <CharString name="Edieresis">
          8 -3 41 -29 29 303 43 -36 29 314 29 -29 41 82 57 hstemhm
          98 41 27 57 197 58 hintmask 0000001011000000
          166 843 rmoveto
          0 callsubr
          254 hmoveto
          1 callsubr
          hintmask 1000000100000000
          -322 -720 rmoveto
          -65 callsubr
          hintmask 0100000100000000
          -64 callsubr
          hintmask 1010000100000000
          -63 callsubr
          hintmask 0001000100000000
          -62 callsubr
          hintmask 0010010100000000
          -61 callsubr
          hintmask 0000100100000000
          304 29 hlineto
          hintmask 1000010100000000
          -60 callsubr
          endchar
        </CharString>
        <CharString name="Edotaccent">
          8 -3 41 -29 29 303 43 -36 29 314 29 -29 41 64 91 hstemhm
          98 41 163 56 hintmask 0000001010000000
          302 812 rmoveto
          46 callsubr
          hintmask 1000000100000000
          -204 -748 rmoveto
          -65 callsubr
          hintmask 0100000100000000
          -64 callsubr
          hintmask 1010000100000000
          -63 callsubr
          hintmask 0001000100000000
          -62 callsubr
          hintmask 0010010100000000
          -61 callsubr
          hintmask 0000100100000000
          304 29 hlineto
          hintmask 1000010100000000
          -60 callsubr
          endchar
        </CharString>
        <CharString name="Egrave">
          8 -3 41 -29 29 303 43 -36 29 314 29 -29 41 60 133 hstemhm
          98 41 53 165 hintmask 0000001010000000
          192 925 rmoveto
          -37 callsubr
          hintmask 1000000100000000
          -143 -802 rmoveto
          -65 callsubr
          hintmask 0100000100000000
          -64 callsubr
          hintmask 1010000100000000
          -63 callsubr
          hintmask 0001000100000000
          -62 callsubr
          hintmask 0010010100000000
          -61 callsubr
          hintmask 0000100100000000
          304 29 hlineto
          hintmask 1000010100000000
          -60 callsubr
          endchar
        </CharString>
        <CharString name="Emacron">
          8 -3 41 -29 29 303 43 -36 29 314 29 -29 41 63 31 hstemhm
          98 41 57 265 hintmask 0000001010000000
          196 795 rmoveto
          4 callsubr
          hintmask 1000000100000000
          -98 -703 rmoveto
          -65 callsubr
          hintmask 0100000100000000
          -64 callsubr
          hintmask 1010000100000000
          -63 callsubr
          hintmask 0001000100000000
          -62 callsubr
          hintmask 0010010100000000
          -61 callsubr
          hintmask 0000100100000000
          304 29 hlineto
          hintmask 1000010100000000
          -60 callsubr
          endchar
        </CharString>
        <CharString name="Eng">
          101 -257 31 247 -21 21 -21 732 -20 hstemhm
          98 42 423 41 hintmask 11011100
          98 hmoveto
          42 0 1 653 rlineto
          hintmask 10111100
          422 -653 0 -80 rlineto
          0 -140 -64 6 -76 -12 rrcurveto
          -31 vlineto
          118 63 21 152 hvcurveto
          0 84 0 732 -41 0 0 -650 -422 650 -43 0 rlineto
          endchar
        </CharString>
        <CharString name="Eogonek">
          8 -171 30 131 20 -13 41 -29 29 303 43 -36 29 314 29 -29 41 hstemhm
          98 41 hintmask 1100000000000000
          507 10 rmoveto
          43 callsubr
          hintmask 0010000010000000
          -430 113 rmoveto
          -65 callsubr
          hintmask 0001000010000000
          -64 callsubr
          hintmask 0010100010000000
          -63 callsubr
          hintmask 0000010010000000
          -62 callsubr
          hintmask 0000100110000000
          -61 callsubr
          hintmask 0000001010000000
          304 29 hlineto
          hintmask 0010000110000000
          -60 callsubr
          endchar
        </CharString>
        <CharString name="Eth">
          98 0 42 317 28 302 43 hstem
          98 41 430 42 vstem
          33 359 rmoveto
          17 callsubr
          106 -345 rmoveto
          18 callsubr
          endchar
        </CharString>
        <CharString name="Euro">
          32 -6 41 231 25 137 23 248 41 hstem
          113 41 vstem
          25 266 rmoveto
          88 -5 rlineto
          -226 157 -41 77 vhcurveto
          84 0 64 6 81 20 rrcurveto
          29 vlineto
          0 0 -124 -16 -105 2 -121 2 -74 89 2 135 -3 2 270 3 0 0 rrcurveto
          0 25 -267 5 0 127 267 5 0 24 -267 5 rlineto
          -1 130 20 111 174 1 83 1 142 -13 0 0 rrcurveto
          30 vlineto
          -70 13 -103 10 -52 0 rrcurveto
          -244 10 -211 -72 hvcurveto
          -88 -6 0 -23 88 -5 0 -127 -88 -5 rlineto
          endchar
        </CharString>
        <CharString name="Euro.smcp">
          -55 -5 42 173 23 94 21 188 41 hstem
          88 41 vstem
          20 210 rmoveto
          68 -6 rlineto
          -159 107 -50 86 vhcurveto
          65 0 63 10 63 18 rrcurveto
          29 vlineto
          0 -111 -15 -80 -91 -61 58 109 vhcurveto
          -2 2 188 4 0 0 rrcurveto
          0 24 -186 5 0 82 186 5 0 23 -186 6 rlineto
          85 18 96 134 64 124 -11 0 vhcurveto
          29 vlineto
          -55 10 -92 13 -41 0 rrcurveto
          -190 -3 -166 -56 hvcurveto
          -68 -7 0 -21 68 -6 0 -82 -68 -6 rlineto
          endchar
        </CharString>
        <CharString name="F">
          8 21 -21 21 -21 341 43 -36 29 314 41 -41 29 hstemhm
          98 41 hintmask 10100010
          98 hmoveto
          41 341 hlineto
          hintmask 00010010
          -62 callsubr
          hintmask 00101010
          -61 callsubr
          hintmask 00000110
          304 29 hlineto
          hintmask 10101010
          -60 callsubr
          endchar
        </CharString>
        <CharString name="G">
          49 -5 41 311 42 -42 26 326 41 hstemhm
          68 41 408 41 -28 28 hintmask 11011010
          68 370 rmoveto
          -59 callsubr
          hintmask 10111100
          -58 callsubr
          endchar
        </CharString>
        <CharString name="Gbreve">
          49 -5 41 311 26 -26 42 310 41 60 25 hstemhm
          68 41 116 25 180 25 62 41 -28 28 hintmask 0000101100000000
          225 914 rmoveto
          42 callsubr
          hintmask 1011010001000000
          -182 -544 rmoveto
          -59 callsubr
          hintmask 1101010010000000
          -58 callsubr
          endchar
        </CharString>
        <CharString name="Gcircumflex">
          49 -5 41 311 26 -26 42 310 41 60 130 hstemhm
          68 41 82 279 47 41 -28 28 hintmask 0000101000000000
          191 800 rmoveto
          -38 callsubr
          0 vmoveto
          37 hmoveto
          hintmask 1011010010000000
          -287 -560 rmoveto
          -59 callsubr
          hintmask 1101010100000000
          -58 callsubr
          endchar
        </CharString>
        <CharString name="Gcommaaccent">
          49 -217.5 13.5 199 41 311 26 -26 42 310 41 hstemhm
          68 41 192.600006104 51.3000030518 -28.8000030518 28.8000030518 164.099990845 41 -28 28 hintmask 0000000000000000
          hintmask 1000001000000000
          301.599609375 -134.700195312 rmoveto
          62 callsubr
          hintmask 1000000100000000
          63 callsubr
          hintmask 1000001000000000
          64 callsubr
          hintmask 0101110001000000
          -233.599609375 451.599609375 rmoveto
          -59 callsubr
          hintmask 0110110010000000
          -58 callsubr
          endchar
        </CharString>
        <CharString name="Gdotaccent">
          49 -5 41 311 26 -26 42 310 41 60 91 hstemhm
          68 41 200 56 152 41 -28 28 hintmask 0000101000000000
          309 816 rmoveto
          46 callsubr
          hintmask 1011010010000000
          -241 -505 rmoveto
          -59 callsubr
          hintmask 1101010100000000
          -58 callsubr
          endchar
        </CharString>
        <CharString name="H">
          87 21 -21 21 -21 334 40 358 -20 hstemhm
          98 41 410 41 hintmask 10111100
          98 hmoveto
          -57 callsubr
          endchar
        </CharString>
        <CharString name="Hbar">
          93 21 -21 21 -21 334 40 156 28 174 -20 hstemhm
          98 41 410 41 hintmask 10111110
          35 530 rmoveto
          63 -530 41 334 410 -334 41 530 63 28 -63 174 -41 -174 -410 hlineto
          174 -41 -174 -63 vlineto
          104 -184 rmoveto
          156 410 -156 vlineto
          endchar
        </CharString>
        <CharString name="Hcircumflex">
          87 0 21 313 40 338 20 65 130 hstem
          98 41 66 279 65 41 vstem
          205 797 rmoveto
          -38 callsubr
          0 vmoveto
          37 hmoveto
          -271 -927 rmoveto
          -57 callsubr
          endchar
        </CharString>
        <CharString name="I">
          -364 21 -21 21 -21 732 -20 hstemhm
          98 41 hintmask 10110000
          98 hmoveto
          -56 callsubr
          endchar
        </CharString>
        <CharString name="Iacute">
          -364 0 21 691 20 65 133 hstemhm
          98 41 -36 165 hintmask 00101000
          103 797 rmoveto
          12 callsubr
          hintmask 11010000
          -121 -930 rmoveto
          -56 callsubr
          endchar
        </CharString>
        <CharString name="Icircumflex">
          -364 0 21 691 20 65 130 hstemhm
          -20 279 -161 41 hintmask 00110000
          -20 797 rmoveto
          -38 callsubr
          0 vmoveto
          37 hmoveto
          hintmask 11001000
          -46 -927 rmoveto
          -56 callsubr
          endchar
        </CharString>
        <CharString name="Idieresis">
          -364 0 21 691 20 65 57 hstem
          -37 57 78 41 78 58 vstem
          -37 826 rmoveto
          0 callsubr
          254 hmoveto
          1 callsubr
          -119 -826 rmoveto
          -56 callsubr
          endchar
        </CharString>
        <CharString name="Idotaccent">
          -364 0 21 691 20 65 91 hstemhm
          91 56 -49 41 hintmask 00110000
          91 813 rmoveto
          46 callsubr
          hintmask 11001000
          7 -872 rmoveto
          -56 callsubr
          endchar
        </CharString>
        <CharString name="Idotaccent.smcp">
          -372 21 -21 21 -21 661 91 hstemhm
          88 56 -49 41 hintmask 10101000
          95 hmoveto
          84 callsubr
          hintmask 00110000
          -7 107 rmoveto
          46 callsubr
          endchar
        </CharString>
        <CharString name="Igrave">
          -364 0 21 691 20 65 133 hstemhm
          -30 165 -37 41 hintmask 00110000
          -30 930 rmoveto
          -37 callsubr
          hintmask 11001000
          79 -930 rmoveto
          -56 callsubr
          endchar
        </CharString>
        <CharString name="Imacron">
          -364 0 21 691 20 65 31 hstemhm
          -14 265 -153 41 hintmask 00110000
          -14 797 rmoveto
          4 callsubr
          hintmask 11001000
          112 -828 rmoveto
          -56 callsubr
          endchar
        </CharString>
        <CharString name="Iogonek">
          -364 -181 30 131 20 0 21 691 20 hstemhm
          98 41 hintmask 11000000
          110 hmoveto
          43 callsubr
          hintmask 00111000
          -33 hmoveto
          -56 callsubr
          endchar
        </CharString>
        <CharString name="Itilde">
          -364 0 21 691 20 65 34 26 34 hstem
          98 41 vstem
          -50 831 rmoveto
          16 callsubr
          148 -831 rmoveto
          -56 callsubr
          endchar
        </CharString>
        <CharString name="J">
          -216 732 -20 hstem
          246 41 vstem
          43 21 rmoveto
          -55 callsubr
          endchar
        </CharString>
        <CharString name="Jcircumflex">
          -216 712 20 65 130 hstemhm
          127 279 -160 41 hintmask 01100000
          127 797 rmoveto
          -38 callsubr
          0 vmoveto
          37 hmoveto
          hintmask 10010000
          -248 -906 rmoveto
          -55 callsubr
          endchar
        </CharString>
        <CharString name="K">
          24 21 -21 21 -21 346 42 344 -20 hstemhm
          98 42 hintmask 10111000
          98 hmoveto
          -54 callsubr
          endchar
        </CharString>
        <CharString name="Kcommaaccent">
          24 -213.5 13.5 200 21 325 42 324 20 hstemhm
          98 42 149.600006104 51.3000030518 -28.8000030518 28.8000030518 hintmask 00000000
          hintmask 10000100
          289.599609375 -130.700195312 rmoveto
          62 callsubr
          hintmask 10000010
          63 callsubr
          hintmask 10000100
          64 callsubr
          hintmask 01111000
          -191.599609375 77.599609375 rmoveto
          -54 callsubr
          endchar
        </CharString>
        <CharString name="L">
          -10 0 41 691 -20 hstem
          98 41 vstem
          98 126 rmoveto
          -53 callsubr
          endchar
        </CharString>
        <CharString name="Lacute">
          -10 0 41 671 20 62 133 hstemhm
          98 41 -33 165 hintmask 00101000
          106 794 rmoveto
          12 callsubr
          hintmask 11010000
          -124 -801 rmoveto
          -53 callsubr
          endchar
        </CharString>
        <CharString name="Lcaron">
          -10 0 41 691 -20 hstem
          98 41 83 41 vstem
          98 126 rmoveto
          -53 callsubr
          124 -27 rmoveto
          47 callsubr
          endchar
        </CharString>
        <CharString name="Lcommaaccent">
          -10 -212.5 13.5 199 41 671 20 hstemhm
          98 41 151.600006104 51.3000030518 -28.8000030518 28.8000030518 hintmask 00000000
          hintmask 10001000
          290.599609375 -129.700195312 rmoveto
          62 callsubr
          hintmask 10000100
          63 callsubr
          hintmask 10001000
          64 callsubr
          hintmask 01110000
          -192.599609375 202.599609375 rmoveto
          -53 callsubr
          endchar
        </CharString>
        <CharString name="Lslash">
          -11 0 41 691 -20 hstem
          98 41 vstem
          16 346 rmoveto
          82 36 0 -256 rlineto
          -113 70 -13 66 vhcurveto
          287 41 -287 hlineto
          -46 -49 6 79 hvcurveto
          0 275 127 55 0 33 -127 -55 0 298 -41 0 0 -315 -82 -36 rlineto
          endchar
        </CharString>
        <CharString name="M">
          230 21 -21 21 -21 732 -20 hstemhm
          hintmask 10100000
          68 hmoveto
          -52 callsubr
          endchar
        </CharString>
        <CharString name="M.salt">
          238 21 -21 21 -21 hstemhm
          hintmask 10000000
          68 hmoveto
          113 callsubr
          endchar
        </CharString>
        <CharString name="N">
          102 21 -21 21 -21 732 -20 hstemhm
          98 41 425 41 hintmask 10111000
          98 hmoveto
          -51 callsubr
          endchar
        </CharString>
        <CharString name="N.salt">
          119 21 -21 21 -21 732 -20 hstemhm
          98 42 441 41 hintmask 10111000
          98 hmoveto
          112 callsubr
          endchar
        </CharString>
        <CharString name="Nacute">
          102 0 21 691 20 65 133 hstem
          98 41 205 165 55 41 vstem
          344 797 rmoveto
          12 callsubr
          -362 -930 rmoveto
          -51 callsubr
          endchar
        </CharString>
        <CharString name="Nacute.salt">
          119 0 21 691 20 65 133 hstem
          98 42 219 165 57 41 vstem
          359 797 rmoveto
          12 callsubr
          -377 -930 rmoveto
          112 callsubr
          endchar
        </CharString>
        <CharString name="Ncaron">
          102 0 21 691 20 65 130 hstem
          98 41 77 279 69 41 vstem
          216 927 rmoveto
          44 callsubr
          83 -130 rmoveto
          38 hmoveto
          -274 -797 rmoveto
          -51 callsubr
          endchar
        </CharString>
        <CharString name="Ncaron.salt">
          119 0 21 691 20 65 130 hstem
          98 42 102 279 60 41 vstem
          242 927 rmoveto
          44 callsubr
          83 -130 rmoveto
          38 hmoveto
          -300 -797 rmoveto
          112 callsubr
          endchar
        </CharString>
        <CharString name="Ncommaaccent">
          102 -215.5 13.5 202 21 691 20 hstemhm
          98 41 187.600006104 51.3000030518 -28.8000030518 28.8000030518 186.099990845 41 hintmask 00000000
          hintmask 10001000
          326.599609375 -132.700195312 rmoveto
          62 callsubr
          hintmask 10000100
          63 callsubr
          hintmask 10001000
          64 callsubr
          hintmask 01110010
          -228.599609375 79.599609375 rmoveto
          -51 callsubr
          endchar
        </CharString>
        <CharString name="Ncommaaccent.salt">
          119 -219.5 13.5 206 21 691 20 hstemhm
          98 42 178.600006104 51.3000030518 -28.8000030518 28.8000030518 211.099990845 41 hintmask 00000000
          hintmask 10001000
          318.599609375 -136.700195312 rmoveto
          62 callsubr
          hintmask 10000100
          63 callsubr
          hintmask 10001000
          64 callsubr
          hintmask 01110010
          -220.599609375 83.599609375 rmoveto
          112 callsubr
          endchar
        </CharString>
        <CharString name="Ntilde">
          102 0 21 691 20 65 34 26 34 hstem
          98 41 425 41 vstem
          183 831 rmoveto
          16 callsubr
          -85 -831 rmoveto
          -51 callsubr
          endchar
        </CharString>
        <CharString name="Ntilde.salt">
          119 0 21 691 20 72 34 26 34 hstem
          98 42 441 41 vstem
          202 838 rmoveto
          16 callsubr
          -104 -838 rmoveto
          112 callsubr
          endchar
        </CharString>
        <CharString name="O">
          107 -4 41 659 41 hstem
          80 41 464 41 vstem
          80 361 rmoveto
          -50 callsubr
          41 hmoveto
          -49 callsubr
          endchar
        </CharString>
        <CharString name="OE">
          486 -4 41 -28 29 303 43 -36 29 314 29 -24 41 hstemhm
          80 41 464 41 hintmask 10000111
          121 361 rmoveto
          324 89 11 143 156 76 -27 -302 -276 -54 -54 -178 vhcurveto
          -172 -60 40 284 hvcurveto
          -41 hmoveto
          -333 93 -32 180 vhcurveto
          115 0 78 17 41 99 7 -101 60 -17 67 3 rrcurveto
          hintmask 01100011
          274 12 0 29 -274 0 rlineto
          -46 -49 6 79 hvcurveto
          0 218 rlineto
          hintmask 00010011
          329 7 0 29 rlineto
          hintmask 00101011
          -329 7 rlineto
          -1 49 1 169 0 0 rrcurveto
          59 26 30 59 vhcurveto
          284 29 hlineto
          -284 12 rlineto
          -63 3 -54 -32 -6 -86 rrcurveto
          hintmask 10000111
          -42 106 -81 14 -112 0 rrcurveto
          -171 -102 -33 -343 hvcurveto
          endchar
        </CharString>
        <CharString name="Oacute">
          107 -4 41 659 41 60 133 hstem
          80 41 217 165 82 41 vstem
          338 797 rmoveto
          12 callsubr
          -374 -569 rmoveto
          -50 callsubr
          41 hmoveto
          -49 callsubr
          endchar
        </CharString>
        <CharString name="Ocircumflex">
          107 -4 41 659 41 60 130 hstem
          80 41 93 279 92 41 vstem
          214 797 rmoveto
          -38 callsubr
          0 vmoveto
          37 hmoveto
          -298 -566 rmoveto
          -50 callsubr
          41 hmoveto
          -49 callsubr
          endchar
        </CharString>
        <CharString name="Odieresis">
          107 -4 41 659 41 60 57 hstem
          80 41 77 57 197 58 75 41 vstem
          198 826 rmoveto
          0 callsubr
          254 hmoveto
          1 callsubr
          -372 -465 rmoveto
          -50 callsubr
          41 hmoveto
          -49 callsubr
          endchar
        </CharString>
        <CharString name="Ograve">
          107 -4 41 659 41 60 133 hstem
          80 41 84 165 215 41 vstem
          205 930 rmoveto
          -37 callsubr
          -174 -569 rmoveto
          -50 callsubr
          41 hmoveto
          -49 callsubr
          endchar
        </CharString>
        <CharString name="Ohungarumlaut">
          107 -4 41 659 41 60 133 hstem
          80 41 148 303 13 41 vstem
          269 797 rmoveto
          12 callsubr
          21 -133 rmoveto
          45 callsubr
          -442 -569 rmoveto
          -50 callsubr
          41 hmoveto
          -49 callsubr
          endchar
        </CharString>
        <CharString name="Omacron">
          107 -4 41 659 41 60 31 hstem
          80 41 100 265 99 41 vstem
          221 797 rmoveto
          4 callsubr
          -141 -467 rmoveto
          -50 callsubr
          41 hmoveto
          -49 callsubr
          endchar
        </CharString>
        <CharString name="Omega">
          220 0 31 667 41 hstem
          79 41 542 41 vstem
          79 388 rmoveto
          0 -113 11 -117 161 -116 rrcurveto
          -166 -11 0 -31 220 0 0 42 rlineto
          -148 116 -37 79 0 143 rrcurveto
          170 56 148 218 218 50 -150 -163 vhcurveto
          0 -132 -40 -117 -142 -94 rrcurveto
          -42 228 31 vlineto
          -168 10 rlineto
          127 89 36 136 0 117 rrcurveto
          182 -61 174 -248 -262 -53 -197 -154 vhcurveto
          endchar
        </CharString>
        <CharString name="Oslash">
          107 -4 41 659 41 hstem
          80 41 464 41 vstem
          80 361 rmoveto
          0 -157 21 -89 40 -52 rrcurveto
          -40 -63 32 0 28 43 rlineto
          45 -40 64 -7 83 0 180 0 93 42 0 323 0 161 -22 93 -41 53 rrcurveto
          41 64 -33 0 -28 -44 rlineto
          -46 42 -64 7 -80 0 -172 0 -101 -33 0 -343 rrcurveto
          41 hmoveto
          324 89 11 143 vhcurveto
          72 0 56 -4 39 -39 rrcurveto
          -353 -551 rlineto
          -32 47 -14 79 0 133 rrcurveto
          64 -281 rmoveto
          354 550 rlineto
          31 -48 15 -82 0 -139 0 -280 -66 -44 -166 0 -78 0 -53 8 -37 35 rrcurveto
          endchar
        </CharString>
        <CharString name="Otilde">
          107 -4 41 659 41 60 34 26 34 hstem
          80 41 464 41 vstem
          185 831 rmoveto
          16 callsubr
          -105 -470 rmoveto
          -50 callsubr
          41 hmoveto
          -49 callsubr
          endchar
        </CharString>
        <CharString name="P">
          14 21 -21 21 -21 314 42 -28 28 334 42 hstemhm
          74 41 377 42 hintmask 10011110
          74 hmoveto
          41 328 hlineto
          hintmask 10101110
          -48 callsubr
          hintmask 00011110
          41 -376 rmoveto
          -47 callsubr
          hintmask 00101110
          1 -150 -65 -22 -70 0 rrcurveto
          endchar
        </CharString>
        <CharString name="Q">
          107 -4 41 659 41 hstem
          80 41 464 41 vstem
          80 361 rmoveto
          -333 93 -32 180 180 93 42 323 343 -100 33 -173 -172 -101 -33 -343 vhcurveto
          41 hmoveto
          324 89 11 143 152 80 -19 -316 -280 -66 -44 -166 -172 -60 40 284 vhcurveto
          216 -394 rmoveto
          19 -96 110 -22 72 27 rrcurveto
          43 vlineto
          -59 -20 -74 -1 -41 69 rrcurveto
          endchar
        </CharString>
        <CharString name="R">
          12 21 -21 21 -21 315 43 -32 32 332 42 hstemhm
          74 41 379 42 hintmask 10011110
          74 hmoveto
          41 326 hlineto
          hintmask 10101110
          -46 callsubr
          hintmask 00011110
          41 -374 rmoveto
          -45 callsubr
          endchar
        </CharString>
        <CharString name="Racute">
          12 0 21 294 43 -32 32 332 42 60 133 hstemhm
          74 41 158 165 56 42 hintmask 00001010
          273 792 rmoveto
          12 callsubr
          hintmask 10110101
          -315 -925 rmoveto
          41 326 hlineto
          hintmask 11010101
          -46 callsubr
          hintmask 00110101
          41 -374 rmoveto
          -45 callsubr
          endchar
        </CharString>
        <CharString name="Rcaron">
          12 0 21 294 43 -32 32 332 42 62 130 hstemhm
          74 41 40 279 60 42 hintmask 00001010
          155 924 rmoveto
          44 callsubr
          83 -130 rmoveto
          38 hmoveto
          hintmask 10110101
          -237 -794 rmoveto
          41 326 hlineto
          hintmask 11010101
          -46 callsubr
          hintmask 00110101
          41 -374 rmoveto
          -45 callsubr
          endchar
        </CharString>
        <CharString name="Rcommaaccent">
          12 -212.5 13.5 199 21 294 43 -32 32 332 42 hstemhm
          74 41 152.600006104 51.3000030518 -28.8000030518 28.8000030518 175.099990845 42 hintmask 0000000000000000
          hintmask 1000001000000000
          267.599609375 -129.700195312 rmoveto
          62 callsubr
          hintmask 1000000100000000
          63 callsubr
          hintmask 1000001000000000
          64 callsubr
          hintmask 0101110010000000
          -193.599609375 76.599609375 rmoveto
          41 326 hlineto
          hintmask 0110110010000000
          -46 callsubr
          hintmask 0001110010000000
          41 -374 rmoveto
          -45 callsubr
          endchar
        </CharString>
        <CharString name="S">
          17 -8 41 305 42 317 41 hstem
          80 41 374 41 vstem
          80 494 rmoveto
          -44 callsubr
          endchar
        </CharString>
        <CharString name="Sacute">
          17 -8 41 305 42 317 41 60 133 hstem
          80 41 172 165 37 41 vstem
          293 798 rmoveto
          12 callsubr
          -329 -437 rmoveto
          -44 callsubr
          endchar
        </CharString>
        <CharString name="Scaron">
          17 -8 41 305 42 317 41 60 130 hstem
          80 41 56 279 39 41 vstem
          177 928 rmoveto
          44 callsubr
          83 -130 rmoveto
          38 hmoveto
          -253 -304 rmoveto
          -44 callsubr
          endchar
        </CharString>
        <CharString name="Scedilla">
          17 -181 17 156 41 305 42 317 41 hstem
          80 41 187 34 153 41 vstem
          204 -164 rmoveto
          13 callsubr
          -163 649 rmoveto
          -44 callsubr
          endchar
        </CharString>
        <CharString name="Scircumflex">
          17 -8 41 305 42 317 41 60 130 hstem
          80 41 48 279 47 41 vstem
          169 798 rmoveto
          -38 callsubr
          0 vmoveto
          37 hmoveto
          -253 -434 rmoveto
          -44 callsubr
          endchar
        </CharString>
        <CharString name="T">
          27 21 -21 21 -21 691 41 hstemhm
          280 41 hintmask 10110000
          46 691 rmoveto
          -43 callsubr
          endchar
        </CharString>
        <CharString name="Tbar">
          27 21 -21 21 -21 403 28 260 41 hstemhm
          277 41 hintmask 10111000
          43 691 rmoveto
          234 -260 -127 -28 127 -403 41 403 140 28 -140 260 240 41 -515 hlineto
          endchar
        </CharString>
        <CharString name="Tcaron">
          27 0 21 670 41 65 130 hstemhm
          161 279 -160 41 hintmask 00110000
          161 927 rmoveto
          44 callsubr
          83 -130 rmoveto
          38 hmoveto
          hintmask 11001000
          -271 -106 rmoveto
          -43 callsubr
          endchar
        </CharString>
        <CharString name="Tcommaaccent">
          27 -182 17 165 21 670 41 hstemhm
          280 41 -38 34 hintmask 10001000
          179 -165 rmoveto
          13 callsubr
          hintmask 01110000
          -172 847 rmoveto
          -43 callsubr
          endchar
        </CharString>
        <CharString name="Thorn">
          -13 21 -21 21 -21 149 41 -28 28 357 41 hstemhm
          74 41 345 41 hintmask 10011110
          74 hmoveto
          41 162 hlineto
          hintmask 10101110
          67 -11 99 -1 44 -1 rrcurveto
          74 102 22 204 179 -97 34 -79 hvcurveto
          -210 141 -41 hlineto
          hintmask 00011110
          41 -539 rmoveto
          357 210 vlineto
          55 -1 79 -17 1 -152 rrcurveto
          hintmask 00101110
          -149 -55 -38 -80 vhcurveto
          endchar
        </CharString>
        <CharString name="U">
          112 -5 41 696 -20 hstem
          98 41 435 42 vstem
          98 320 rmoveto
          -42 callsubr
          endchar
        </CharString>
        <CharString name="Uacute">
          112 -5 41 676 20 65 133 hstem
          98 41 202 165 68 42 vstem
          341 797 rmoveto
          12 callsubr
          -359 -610 rmoveto
          -42 callsubr
          endchar
        </CharString>
        <CharString name="Ubreve">
          112 -5 41 676 20 65 25 hstem
          98 41 103 25 180 25 102 42 vstem
          242 911 rmoveto
          42 callsubr
          -169 -591 rmoveto
          -42 callsubr
          endchar
        </CharString>
        <CharString name="Ucircumflex">
          112 -5 41 676 20 65 130 hstem
          98 41 79 279 77 42 vstem
          218 797 rmoveto
          -38 callsubr
          0 vmoveto
          37 hmoveto
          -284 -607 rmoveto
          -42 callsubr
          endchar
        </CharString>
        <CharString name="Udieresis">
          112 -5 41 676 20 65 57 hstem
          98 41 62 57 197 58 61 42 vstem
          201 826 rmoveto
          0 callsubr
          254 hmoveto
          1 callsubr
          -357 -506 rmoveto
          -42 callsubr
          endchar
        </CharString>
        <CharString name="Ugrave">
          112 -5 41 676 20 65 133 hstem
          98 41 69 165 201 42 vstem
          208 930 rmoveto
          -37 callsubr
          -159 -610 rmoveto
          -42 callsubr
          endchar
        </CharString>
        <CharString name="Uhungarumlaut">
          112 -5 41 676 20 65 133 hstemhm
          98 41 133 303 -1 42 hintmask 00101000
          272 797 rmoveto
          12 callsubr
          21 -133 rmoveto
          45 callsubr
          hintmask 11010100
          -427 -610 rmoveto
          -42 callsubr
          endchar
        </CharString>
        <CharString name="Umacron">
          112 -5 41 676 20 65 31 hstem
          98 41 85 265 85 42 vstem
          224 797 rmoveto
          4 callsubr
          -126 -508 rmoveto
          -42 callsubr
          endchar
        </CharString>
        <CharString name="Uogonek">
          112 -185 30 131 20 -1 41 676 20 hstemhm
          98 41 435 42 hintmask 11000000
          347 -4 rmoveto
          43 callsubr
          hintmask 00111100
          -270 324 rmoveto
          -42 callsubr
          endchar
        </CharString>
        <CharString name="Uring">
          112 -5 41 676 20 65 26 153 26 hstem
          98 41 117 25 152 25 116 42 vstem
          256 899 rmoveto
          5 callsubr
          25 hmoveto
          6 callsubr
          -183 -579 rmoveto
          -42 callsubr
          endchar
        </CharString>
        <CharString name="Utilde">
          112 -5 41 676 20 64 34 26 34 hstem
          98 41 435 42 vstem
          188 830 rmoveto
          16 callsubr
          -90 -510 rmoveto
          -42 callsubr
          endchar
        </CharString>
        <CharString name="V">
          94 21 -21 21 -21 732 -20 hstemhm
          hintmask 10100000
          56 732 rmoveto
          260 -732 47 0 273 732 -45 0 -251 -676 -240 676 rlineto
          endchar
        </CharString>
        <CharString name="W">
          399 21 -21 21 -21 732 -20 hstemhm
          hintmask 10100000
          56 732 rmoveto
          -41 callsubr
          endchar
        </CharString>
        <CharString name="Wacute">
          399 0 21 691 20 63 133 hstem
          486 165 vstem
          486 795 rmoveto
          12 callsubr
          -546 -196 rmoveto
          -41 callsubr
          endchar
        </CharString>
        <CharString name="Wcircumflex">
          399 0 21 691 20 63 130 hstem
          362 279 vstem
          362 795 rmoveto
          -38 callsubr
          0 vmoveto
          37 hmoveto
          -470 -193 rmoveto
          -41 callsubr
          endchar
        </CharString>
        <CharString name="Wdieresis">
          399 0 21 691 20 64 57 hstem
          346 57 197 58 vstem
          346 825 rmoveto
          0 callsubr
          254 hmoveto
          1 callsubr
          -544 -93 rmoveto
          -41 callsubr
          endchar
        </CharString>
        <CharString name="Wgrave">
          399 0 21 691 20 63 133 hstem
          353 165 vstem
          353 928 rmoveto
          -37 callsubr
          -346 -196 rmoveto
          -41 callsubr
          endchar
        </CharString>
        <CharString name="X">
          7 21 -21 21 -21 732 -20 hstemhm
          hintmask 10100000
          56 732 rmoveto
          218 -366 -215 -366 48 0 194 327 195 -327 48 0 -216 366 221 366 -48 0 -200 -331 -197 331 rlineto
          endchar
        </CharString>
        <CharString name="X.salt">
          40 21 -21 21 -21 732 -20 hstemhm
          hintmask 10100000
          25 hmoveto
          48 0 193 284 rlineto
          45 63 -23 79 -43 61 rrcurveto
          -173 245 -47 0 183 -262 rlineto
          43 -57 15 -56 -40 -59 rrcurveto
          116 -14 rmoveto
          193 -284 48 0 -201 298 rlineto
          -40 59 15 56 43 57 rrcurveto
          183 262 -47 0 -173 -245 rlineto
          -43 -61 -23 -79 45 -63 rrcurveto
          endchar
        </CharString>
        <CharString name="Y">
          54 21 -21 21 -21 732 -20 hstemhm
          295 41 hintmask 10110000
          56 732 rmoveto
          -40 callsubr
          endchar
        </CharString>
        <CharString name="Yacute">
          54 0 21 691 20 65 133 hstemhm
          295 41 -26 165 hintmask 00101000
          310 797 rmoveto
          12 callsubr
          hintmask 11010000
          -370 -198 rmoveto
          -40 callsubr
          endchar
        </CharString>
        <CharString name="Ycircumflex">
          54 0 21 691 20 63 130 hstemhm
          183 279 -167 41 hintmask 00110000
          183 795 rmoveto
          -38 callsubr
          0 vmoveto
          37 hmoveto
          hintmask 11001000
          -291 -193 rmoveto
          -40 callsubr
          endchar
        </CharString>
        <CharString name="Ydieresis">
          54 0 21 691 20 65 57 hstem
          170 57 68 41 88 58 vstem
          170 826 rmoveto
          0 callsubr
          254 hmoveto
          1 callsubr
          -368 -94 rmoveto
          -40 callsubr
          endchar
        </CharString>
        <CharString name="Ygrave">
          54 0 21 691 20 65 133 hstemhm
          177 165 -47 41 hintmask 00110000
          177 930 rmoveto
          -37 callsubr
          hintmask 11001000
          -170 -198 rmoveto
          -40 callsubr
          endchar
        </CharString>
        <CharString name="Z">
          -15 0 41 650 41 hstem
          43 hmoveto
          -39 callsubr
          endchar
        </CharString>
        <CharString name="Zacute">
          -15 0 41 650 41 65 133 hstem
          277 165 vstem
          277 797 rmoveto
          12 callsubr
          -350 -930 rmoveto
          -39 callsubr
          endchar
        </CharString>
        <CharString name="Zcaron">
          -15 0 41 650 41 65 130 hstem
          140 279 vstem
          140 927 rmoveto
          44 callsubr
          83 -130 rmoveto
          38 hmoveto
          -253 -797 rmoveto
          -39 callsubr
          endchar
        </CharString>
        <CharString name="Zdotaccent">
          -15 0 41 650 41 65 91 hstem
          252 56 vstem
          252 813 rmoveto
          46 callsubr
          -209 -872 rmoveto
          -39 callsubr
          endchar
        </CharString>
        <CharString name="a">
          -49 -6 41 244 41 182 39 hstemhm
          49 41 327 41 -28 28 hintmask 11111000
          49 126 rmoveto
          -36 callsubr
          hintmask 11110100
          -35 callsubr
          hintmask 11111000
          -34 callsubr
          41 -56 rmoveto
          -33 callsubr
          endchar
        </CharString>
        <CharString name="a.salt">
          -29 0 41 235 41 -29 29 179 41 hstemhm
          62 41 333 41 hintmask 10111100
          62 131 rmoveto
          117 callsubr
          hintmask 11011100
          118 callsubr
          41 -64 rmoveto
          119 callsubr
          hintmask 10111100
          120 callsubr
          endchar
        </CharString>
        <CharString name="a.smcp">
          13 21 -21 21 -21 172 41 hstemhm
          hintmask 10100000
          43 hmoveto
          68 callsubr
          -105 -357 rmoveto
          69 callsubr
          endchar
        </CharString>
        <CharString name="a.superior">
          -200 374 33 161 31 108 32 hstemhm
          38 33 217 32 -21 21 hintmask 11111000
          38 463 rmoveto
          -58 48 -31 52 vhcurveto
          63 0 85 60 2 0 rrcurveto
          hintmask 11110100
          11 -56 21 0 rlineto
          hintmask 11111000
          258 vlineto
          0 73 -53 31 -62 -1 -75 -2 -30 -3 -50 -11 rrcurveto
          -23 vlineto
          58 6 40 1 54 0 56 0 30 -23 0 -53 1 -1 -1 -30 0 0 rrcurveto
          -1 -150 0 0 -62 -38 -36 -54 vhcurveto
          33 -42 rmoveto
          40 vlineto
          0 38 26 21 43 2 rrcurveto
          148 9 0 -121 rlineto
          0 -88 -49 -60 -34 -35 17 43 vhcurveto
          endchar
        </CharString>
        <CharString name="aacute">
          -49 -6 41 244 41 182 39 60 133 hstemhm
          49 41 158 165 4 41 -28 28 hintmask 00010100
          248 601 rmoveto
          12 callsubr
          hintmask 11101010
          -315 -608 rmoveto
          -36 callsubr
          hintmask 11101001
          -35 callsubr
          hintmask 11101010
          -34 callsubr
          41 -56 rmoveto
          -33 callsubr
          endchar
        </CharString>
        <CharString name="aacute.salt">
          -29 0 41 235 41 -29 29 179 41 60 133 hstemhm
          62 41 163 165 5 41 hintmask 00001010
          266 597 rmoveto
          12 callsubr
          hintmask 10110101
          -320 -599 rmoveto
          117 callsubr
          hintmask 11010101
          118 callsubr
          41 -64 rmoveto
          119 callsubr
          hintmask 10110101
          120 callsubr
          endchar
        </CharString>
        <CharString name="aacute.smcp">
          13 0 21 151 41 417 133 hstem
          287 165 vstem
          287 630 rmoveto
          12 callsubr
          -360 -763 rmoveto
          68 callsubr
          -105 -357 rmoveto
          69 callsubr
          endchar
        </CharString>
        <CharString name="abreve">
          -49 -6 41 244 41 182 39 60 25 hstemhm
          49 41 66 25 180 25 31 41 -28 28 hintmask 0001011000000000
          156 715 rmoveto
          42 callsubr
          hintmask 1110100100000000
          -132 -589 rmoveto
          -36 callsubr
          hintmask 1110100010000000
          -35 callsubr
          hintmask 1110100100000000
          -34 callsubr
          41 -56 rmoveto
          -33 callsubr
          endchar
        </CharString>
        <CharString name="abreve.salt">
          -29 0 41 235 41 -29 29 179 41 60 25 hstemhm
          62 41 59 25 180 25 44 41 hintmask 0000101100000000
          162 711 rmoveto
          42 callsubr
          hintmask 1011010010000000
          -125 -580 rmoveto
          117 callsubr
          hintmask 1101010010000000
          118 callsubr
          41 -64 rmoveto
          119 callsubr
          hintmask 1011010010000000
          120 callsubr
          endchar
        </CharString>
        <CharString name="abreve.smcp">
          13 0 21 151 41 417 25 hstem
          188 25 180 25 vstem
          188 744 rmoveto
          42 callsubr
          -170 -744 rmoveto
          68 callsubr
          -105 -357 rmoveto
          69 callsubr
          endchar
        </CharString>
        <CharString name="acircumflex">
          -49 -6 41 244 41 182 39 60 130 hstemhm
          49 41 38 279 10 41 -28 28 hintmask 00010100
          128 601 rmoveto
          -38 callsubr
          0 vmoveto
          37 hmoveto
          hintmask 11101010
          -243 -605 rmoveto
          -36 callsubr
          hintmask 11101001
          -35 callsubr
          hintmask 11101010
          -34 callsubr
          41 -56 rmoveto
          -33 callsubr
          endchar
        </CharString>
        <CharString name="acircumflex.salt">
          -29 0 41 235 41 -29 29 179 41 60 130 hstemhm
          62 41 40 279 14 41 hintmask 00001010
          143 597 rmoveto
          -38 callsubr
          0 vmoveto
          37 hmoveto
          hintmask 10110101
          -245 -596 rmoveto
          117 callsubr
          hintmask 11010101
          118 callsubr
          41 -64 rmoveto
          119 callsubr
          hintmask 10110101
          120 callsubr
          endchar
        </CharString>
        <CharString name="acircumflex.smcp">
          13 0 21 151 41 417 130 hstem
          164 279 vstem
          164 630 rmoveto
          -38 callsubr
          0 vmoveto
          37 hmoveto
          -285 -760 rmoveto
          68 callsubr
          -105 -357 rmoveto
          69 callsubr
          endchar
        </CharString>
        <CharString name="acute">
          -354 531 133 hstem
          25 165 vstem
          25 531 rmoveto
          12 callsubr
          endchar
        </CharString>
        <CharString name="acute.smcp">
          -354 531 133 hstem
          25 165 vstem
          25 531 rmoveto
          12 callsubr
          endchar
        </CharString>
        <CharString name="adieresis">
          -49 -6 41 244 41 182 39 82 57 hstemhm
          49 41 20 57 197 58 -5 41 -28 28 hintmask 0001011000000000
          110 652 rmoveto
          0 callsubr
          254 hmoveto
          1 callsubr
          hintmask 1110100100000000
          -315 -526 rmoveto
          -36 callsubr
          hintmask 1110100010000000
          -35 callsubr
          hintmask 1110100100000000
          -34 callsubr
          41 -56 rmoveto
          -33 callsubr
          endchar
        </CharString>
        <CharString name="adieresis.salt">
          -29 0 41 235 41 -29 29 179 41 60 57 hstemhm
          62 41 14 57 197 58 7 41 hintmask 0000101100000000
          117 626 rmoveto
          0 callsubr
          254 hmoveto
          1 callsubr
          hintmask 1011010010000000
          -309 -495 rmoveto
          117 callsubr
          hintmask 1101010010000000
          118 callsubr
          41 -64 rmoveto
          119 callsubr
          hintmask 1011010010000000
          120 callsubr
          endchar
        </CharString>
        <CharString name="adieresis.smcp">
          13 0 21 151 41 417 57 hstem
          147 57 197 58 vstem
          147 659 rmoveto
          0 callsubr
          254 hmoveto
          1 callsubr
          -358 -659 rmoveto
          68 callsubr
          -105 -357 rmoveto
          69 callsubr
          endchar
        </CharString>
        <CharString name="ae">
          314 -4 41 214 40 204 41 -32 39 hstemhm
          49 41 327 42 334 41 hintmask 11101110
          49 128 rmoveto
          -85 60 -47 73 vhcurveto
          96 0 155 70 2 0 19 -27 24 -43 115 0 83 0 67 5 81 23 rrcurveto
          30 vlineto
          -75 -11 -64 -7 -92 1 -130 1 -5 45 1 168 rrcurveto
          238 hlineto
          89 48 28 78 176 -81 3 -122 hvcurveto
          -96 0 -63 -15 -26 -68 rrcurveto
          hintmask 11011110
          -21 63 -56 28 -64 -1 -100 -1 -79 -13 -60 -17 rrcurveto
          -27 vlineto
          94 12 72 8 72 -1 84 -1 29 -48 0 -66 1 -1 -1 -94 0 0 rrcurveto
          -1 -235 1 0 -82 -51 -50 -83 vhcurveto
          41 -28 rmoveto
          28 vlineto
          0 51 24 40 68 3 rrcurveto
          235 9 0 -165 rlineto
          0 0 -155 -63 -80 1 -44 1 -48 23 0 72 rrcurveto
          369 158 rmoveto
          hintmask 11101110
          1 178 36 26 136 0 rrcurveto
          119 42 -3 -135 -57 -39 -9 -57 hvcurveto
          endchar
        </CharString>
        <CharString name="ae.smcp">
          242 -5 41 -30 29 157 41 25 44 -37 30 232 40 -40 30 hstemhm
          391 42 hintmask 10100001
          28 hmoveto
          48 0 120 192 195 0 0 -113 rlineto
          0 -54 34 -31 53 1 rrcurveto
          hintmask 01100001
          282 11 0 29 rlineto
          hintmask 10110001
          -275 1 rlineto
          -15 -37 3 49 hvcurveto
          0 170 rlineto
          hintmask 00101001
          296 7 0 30 rlineto
          hintmask 00110101
          -296 7 0 171 rlineto
          1 43 8 11 56 0 rrcurveto
          hintmask 00100011
          262 30 hlineto
          hintmask 10100101
          -264 10 rlineto
          -95 -4 -30 -9 -45 -72 rrcurveto
          -107 -249 rmoveto
          172 273 0 -273 rlineto
          endchar
        </CharString>
        <CharString name="afii61289">
          -162 -1 27 hstem
          94 41 vstem
          37 248 rmoveto
          14 -19 rlineto
          10 5 22 14 11 12 rrcurveto
          -72 vlineto
          -139 39 -50 84 vhcurveto
          77 27 hlineto
          -5 -74 14 0 hvcurveto
          -51 9 -29 16 0 123 rrcurveto
          106 vlineto
          100 90 93 113 2 101 2 75 -45 66 -80 0 -61 0 -51 -40 -1 -67 rrcurveto
          -328 vlineto
          -19 -20 -19 -19 -19 -17 rrcurveto
          98 102 rmoveto
          276 vlineto
          0 93 127 0 20 -79 28 -108 -112 -111 -63 -71 rrcurveto
          endchar
        </CharString>
        <CharString name="afii61352">
          519 21 -21 21 -21 381 33 285 36 hstemhm
          88 42 452 41 85 33 264 33 hintmask 10111111
          88 hmoveto
          42 645 hlineto
          0 55 65 16 20 -53 rrcurveto
          245 -614 rlineto
          37 -95 126 37 0 88 rrcurveto
          491 vlineto
          70 22 59 70 vhcurveto
          185 hlineto
          57 -1 48 -11 0 -134 rrcurveto
          -102 -35 -37 -67 vhcurveto
          -61 hlineto
          -72 -29 35 166 hvcurveto
          -33 hlineto
          -176 29 -58 103 vhcurveto
          66 hlineto
          103 29 65 107 hvcurveto
          0 121 -30 58 -102 3 rrcurveto
          -189 hlineto
          -84 -51 -45 -122 hvcurveto
          -482 vlineto
          -3 -56 -63 -11 -18 47 rrcurveto
          -245 614 rlineto
          -34 87 -131 -14 0 -102 rrcurveto
          endchar
        </CharString>
        <CharString name="agrave">
          -49 -6 41 244 41 182 39 60 133 hstemhm
          49 41 31 165 131 41 -28 28 hintmask 00010100
          121 734 rmoveto
          -37 callsubr
          hintmask 11101010
          -121 -608 rmoveto
          -36 callsubr
          hintmask 11101001
          -35 callsubr
          hintmask 11101010
          -34 callsubr
          41 -56 rmoveto
          -33 callsubr
          endchar
        </CharString>
        <CharString name="agrave.salt">
          -29 0 41 235 41 -29 29 179 41 60 133 hstemhm
          62 41 38 165 130 41 hintmask 00001010
          141 730 rmoveto
          -37 callsubr
          hintmask 10110101
          -128 -599 rmoveto
          117 callsubr
          hintmask 11010101
          118 callsubr
          41 -64 rmoveto
          119 callsubr
          hintmask 10110101
          120 callsubr
          endchar
        </CharString>
        <CharString name="agrave.smcp">
          13 0 21 151 41 418 133 hstem
          134 165 vstem
          134 764 rmoveto
          -37 callsubr
          -140 -764 rmoveto
          68 callsubr
          -105 -357 rmoveto
          69 callsubr
          endchar
        </CharString>
        <CharString name="amacron">
          -49 -6 41 244 41 182 39 60 31 hstemhm
          49 41 45 265 17 41 -28 28 hintmask 00010100
          135 601 rmoveto
          4 callsubr
          hintmask 11101010
          -86 -506 rmoveto
          -36 callsubr
          hintmask 11101001
          -35 callsubr
          hintmask 11101010
          -34 callsubr
          41 -56 rmoveto
          -33 callsubr
          endchar
        </CharString>
        <CharString name="amacron.salt">
          -29 0 41 235 41 -29 29 179 41 60 31 hstemhm
          62 41 42 265 26 41 hintmask 00001010
          145 597 rmoveto
          4 callsubr
          hintmask 10110101
          -83 -497 rmoveto
          117 callsubr
          hintmask 11010101
          118 callsubr
          41 -64 rmoveto
          119 callsubr
          hintmask 10110101
          120 callsubr
          endchar
        </CharString>
        <CharString name="amacron.smcp">
          13 0 21 151 41 417 31 hstem
          170 265 vstem
          170 630 rmoveto
          4 callsubr
          -127 -661 rmoveto
          68 callsubr
          -105 -357 rmoveto
          69 callsubr
          endchar
        </CharString>
        <CharString name="ampersand">
          79 21 -21 21 -21 693 26 hstemhm
          hintmask 10100000
          87 82 rmoveto
          78 -104 135 -9 80 75 rrcurveto
          72 67 82 -111 50 0 -102 139 66 64 62 94 -13 13 -141 -139 -270 367 rlineto
          -78 105 80 50 91 0 rrcurveto
          203 26 hlineto
          -72 10 -117 11 -78 -13 -73 -14 -75 -82 79 -107 rrcurveto
          63 -85 -86 -73 rlineto
          -87 -74 -26 -112 77 -98 rrcurveto
          34 24 rmoveto
          -59 78 5 83 87 72 rrcurveto
          78 65 194 -260 -77 -72 rlineto
          -69 -64 -104 26 -55 72 rrcurveto
          endchar
        </CharString>
        <CharString name="ampersand.salt">
          372 0 41 128 41 141 41 99 41 -28 27 hstemhm
          54 41 100 41 332 41 110 41 -28 28 hintmask 1111011110000000
          54 286 rmoveto
          -95 81 -22 60 vhcurveto
          -148 77 -21 111 vhcurveto
          144 hlineto
          103 130 24 163 hvcurveto
          0 304 rlineto
          hintmask 1110111101000000
          155 13 0 27 -155 0 0 149 -28 0 rlineto
          hintmask 1111011110000000
          -13 -148 -454 0 rlineto
          -134 -77 -20 -137 hvcurveto
          41 -89 rmoveto
          89 vlineto
          107 54 9 116 vhcurveto
          454 -304 hlineto
          -121 -94 -25 -98 vhcurveto
          -144 hlineto
          -88 1 -59 11 0 116 rrcurveto
          243 hlineto
          90 40 15 97 110 -69 1 -61 hvcurveto
          -129 hlineto
          -111 -44 -65 -117 hvcurveto
          -45 1 -55 11 0 64 rrcurveto
          141 -76 rmoveto
          119 46 22 68 vhcurveto
          129 hlineto
          69 20 -9 -61 -64 -21 -7 -68 hvcurveto
          endchar
        </CharString>
        <CharString name="ampersand.smcp">
          -33 21 -21 21 -21 534 26 hstemhm
          hintmask 10100000
          76 62 rmoveto
          62 -87 106 1 63 58 rrcurveto
          62 58 72 -92 48 0 -91 119 31 32 58 85 -12 14 -102 -98 -203 264 rlineto
          -45 59 10 59 96 0 rrcurveto
          168 26 hlineto
          -113 15 -61 1 -44 -7 -62 -11 -53 -71 66 -88 rrcurveto
          44 -57 -69 -57 rlineto
          -76 -63 -13 -82 58 -78 rrcurveto
          33 24 rmoveto
          -39 52 -4 60 70 58 rrcurveto
          65 53 143 -185 -64 -59 rlineto
          -53 -52 -78 20 -40 53 rrcurveto
          endchar
        </CharString>
        <CharString name="aogonek">
          -22 -181 30 131 20 -6 41 244 41 182 39 hstemhm
          62 41 327 41 -28 28 hintmask 11000000
          447 hmoveto
          43 callsubr
          hintmask 00111110
          -406 126 rmoveto
          -36 callsubr
          hintmask 00111101
          -35 callsubr
          hintmask 00111110
          -34 callsubr
          41 -56 rmoveto
          -33 callsubr
          endchar
        </CharString>
        <CharString name="aogonek.salt">
          -6 -163 30 131 20 -18 41 235 41 -29 29 179 41 hstemhm
          78 41 333 41 hintmask 11000000
          404 18 rmoveto
          43 callsubr
          hintmask 00101111
          -347 113 rmoveto
          117 callsubr
          hintmask 00110111
          118 callsubr
          41 -64 rmoveto
          119 callsubr
          hintmask 00101111
          120 callsubr
          endchar
        </CharString>
        <CharString name="aogonek.smcp">
          45 -181 30 131 20 0 21 151 41 hstemhm
          hintmask 11000000
          524 hmoveto
          43 callsubr
          hintmask 00110000
          -491 hmoveto
          68 callsubr
          -105 -357 rmoveto
          69 callsubr
          endchar
        </CharString>
        <CharString name="approxequal">
          -76 216 36 25 36 80 36 25 35 hstem
          62 251 rmoveto
          10 -20 rlineto
          40 22 27 24 42 0 42 0 44 -61 48 0 48 0 34 35 35 31 rrcurveto
          -12 19 rlineto
          -31 -19 -31 -30 -42 0 -42 0 -46 61 -46 0 -48 0 -36 -31 -36 -31 rrcurveto
          176 vmoveto
          10 -19 rlineto
          40 22 27 24 42 0 42 0 44 -61 48 0 48 0 34 34 35 31 rrcurveto
          -12 19 rlineto
          -31 -19 -31 -29 -42 0 -42 0 -46 60 -46 0 -48 0 -36 -31 -36 -31 rrcurveto
          endchar
        </CharString>
        <CharString name="aring">
          -49 -6 41 244 41 182 39 30 26 153 26 hstemhm
          49 41 72 25 152 25 53 41 -28 28 hintmask 0001101100000000
          162 673 rmoveto
          5 callsubr
          25 hmoveto
          6 callsubr
          hintmask 1110010010000000
          -138 -547 rmoveto
          -36 callsubr
          hintmask 1110010001000000
          -35 callsubr
          hintmask 1110010010000000
          -34 callsubr
          41 -56 rmoveto
          -33 callsubr
          endchar
        </CharString>
        <CharString name="aring.salt">
          -29 0 41 235 41 -29 29 179 41 60 26 153 26 hstemhm
          62 41 78 25 152 25 53 41 hintmask 0000110110000000
          181 699 rmoveto
          5 callsubr
          25 hmoveto
          6 callsubr
          hintmask 1011001001000000
          -144 -568 rmoveto
          117 callsubr
          hintmask 1101001001000000
          118 callsubr
          41 -64 rmoveto
          119 callsubr
          hintmask 1011001001000000
          120 callsubr
          endchar
        </CharString>
        <CharString name="aring.smcp">
          13 0 21 151 41 355 26 153 26 hstem
          202 25 152 25 vstem
          202 670 rmoveto
          5 callsubr
          25 hmoveto
          6 callsubr
          -184 -670 rmoveto
          68 callsubr
          -105 -357 rmoveto
          69 callsubr
          endchar
        </CharString>
        <CharString name="asciicircum">
          -167 531 130 hstem
          62 279 vstem
          62 531 rmoveto
          -38 callsubr
          0 vmoveto
          37 hmoveto
          endchar
        </CharString>
        <CharString name="asciitilde">
          -107 538 35 25 35 hstem
          62 572 rmoveto
          10 -19 rlineto
          36 22 25 23 38 0 35 0 42 -60 43 0 46 0 32 35 31 30 rrcurveto
          -12 19 rlineto
          -24 -18 -34 -31 -39 0 -35 0 -43 60 -41 0 -44 0 -30 -30 -36 -31 rrcurveto
          endchar
        </CharString>
        <CharString name="asterisk">
          -109 583 23 hstem
          62 583 rmoveto
          143 -5 -2 40 -141 -12 rlineto
          76 -195 rmoveto
          21 -7 50 133 -41 8 rlineto
          28 176 rmoveto
          52 -131 39 18 -69 121 rlineto
          10 -240 rmoveto
          125 -68 13 18 -116 86 rlineto
          22 33 rmoveto
          28 -31 99 92 -12 20 rlineto
          endchar
        </CharString>
        <CharString name="asterisk.smcp">
          -110 437 23 hstem
          62 437 rmoveto
          142 -6 -1 41 -141 -12 rlineto
          75 -195 rmoveto
          22 -7 50 132 -41 9 rlineto
          28 176 rmoveto
          52 -131 39 18 -69 121 rlineto
          10 -241 rmoveto
          125 -67 13 18 -116 86 rlineto
          22 34 rmoveto
          28 -32 99 92 -13 20 rlineto
          endchar
        </CharString>
        <CharString name="at">
          290 -178 42 127 41 -11 -21 21 -21 471 41 147 41 -41 25 hstemhm
          80 41 109 41 295 40 -29 29 107 41 hintmask 1001110110110000
          80 hmoveto
          -78 callsubr
          hintmask 1000101110110000
          -77 callsubr
          hintmask 1001110110110000
          -76 callsubr
          hintmask 1100100111010000
          -75 callsubr
          hintmask 1010100110110000
          10 -64 29 0 rlineto
          hintmask 1001110111010000
          -74 callsubr
          191 -234 rmoveto
          -1 1 0 43 1 1 0 77 53 16 40 3 rrcurveto
          202 12 0 -175 rlineto
          hintmask 1100100111010000
          -50 -24 -92 -37 -59 1 -56 0 -38 35 0 47 rrcurveto
          endchar
        </CharString>
        <CharString name="at.alt">
          291 -85 42 127 41 439 41 147 41 -41 25 hstemhm
          81 41 109 41 294 41 -30 30 107 41 hintmask 1111011101000000
          80 441 rmoveto
          1 -348 rlineto
          -116 66 -62 102 vhcurveto
          329 hlineto
          138 39 80 98 hvcurveto
          512 vlineto
          0 125 -71 60 -106 2 rrcurveto
          -106 1 rlineto
          hintmask 1110111101000000
          -77 callsubr
          hintmask 1111011101000000
          394 hlineto
          89 47 -59 -88 hvcurveto
          -512 vlineto
          -90 -40 -46 -96 vhcurveto
          -329 hlineto
          -58 -69 28 108 hvcurveto
          348 vlineto
          95 54 28 73 vhcurveto
          202 hlineto
          71 44 -28 -73 hvcurveto
          1 -1 -1 -75 0 0 rrcurveto
          -1 -125 1 -81 -83 -46 -53 -80 vhcurveto
          -53 vlineto
          -1 -68 55 -51 74 2 91 0 116 73 2 0 rrcurveto
          hintmask 1111011011000000
          9 -64 30 0 rlineto
          hintmask 1111011101000000
          372 vlineto
          110 -82 30 -71 vhcurveto
          -205 hlineto
          -166 -3 -128 -36 hvcurveto
          192 -234 rmoveto
          -1 1 1 43 0 1 0 77 53 16 40 3 rrcurveto
          201 12 0 -176 rlineto
          -50 -24 -91 -36 -59 1 -56 0 -38 35 0 47 rrcurveto
          endchar
        </CharString>
        <CharString name="at.smcp">
          290 -136 42 127 41 439 41 147 41 -41 25 hstemhm
          80 41 109 41 295 40 -29 29 107 41 hintmask 1111011011000000
          80 42 rmoveto
          -78 callsubr
          hintmask 1110111011000000
          -77 callsubr
          hintmask 1111011011000000
          -76 callsubr
          hintmask 1111011101000000
          -75 callsubr
          hintmask 1111011011000000
          10 -64 29 0 rlineto
          hintmask 1111011101000000
          -74 callsubr
          191 -234 rmoveto
          -1 1 0 43 1 1 0 77 53 16 40 3 rrcurveto
          202 12 0 -175 rlineto
          -50 -24 -92 -37 -59 1 -56 0 -38 35 0 47 rrcurveto
          endchar
        </CharString>
        <CharString name="atilde">
          -49 -6 41 244 41 182 39 67 34 26 34 hstemhm
          49 41 327 41 -28 28 hintmask 00011000
          93 642 rmoveto
          16 callsubr
          hintmask 11100110
          -44 -516 rmoveto
          -36 callsubr
          hintmask 11100101
          -35 callsubr
          hintmask 11100110
          -34 callsubr
          41 -56 rmoveto
          -33 callsubr
          endchar
        </CharString>
        <CharString name="atilde.salt">
          -29 0 41 235 41 -29 29 179 41 60 34 26 34 hstemhm
          62 41 333 41 hintmask 00001100
          116 631 rmoveto
          16 callsubr
          hintmask 10110011
          -54 -500 rmoveto
          117 callsubr
          hintmask 11010011
          118 callsubr
          41 -64 rmoveto
          119 callsubr
          hintmask 10110011
          120 callsubr
          endchar
        </CharString>
        <CharString name="atilde.smcp">
          13 0 21 151 41 417 34 26 34 hstem
          134 664 rmoveto
          16 callsubr
          -91 -664 rmoveto
          68 callsubr
          -105 -357 rmoveto
          69 callsubr
          endchar
        </CharString>
        <CharString name="b">
          -16 -6 41 463 41 hstemhm
          74 40 -40 26 350 41 hintmask 11011000
          74 hmoveto
          26 0 rlineto
          hintmask 11101000
          -32 callsubr
          40 -698 rmoveto
          -31 callsubr
          endchar
        </CharString>
        <CharString name="b.salt">
          -8 -12 41 465 41 248 -20 hstem
          74 41 343 41 vstem
          74 3 rmoveto
          122 callsubr
          41 -754 rmoveto
          123 callsubr
          endchar
        </CharString>
        <CharString name="b.smcp">
          -20 0 42 231 41 216 41 hstem
          98 41 320 41 vstem
          98 hmoveto
          70 callsubr
          41 -529 rmoveto
          71 callsubr
          -204 272 rmoveto
          72 callsubr
          endchar
        </CharString>
        <CharString name="b.superior">
          -180 374 33 299 33 hstemhm
          47 33 -33 21 243 33 hintmask 11011000
          47 378 rmoveto
          21 0 rlineto
          hintmask 11101000
          12 52 rlineto
          19 -15 53 -41 64 0 rrcurveto
          109 19 98 82 91 -11 94 -114 hvcurveto
          -34 0 -57 -10 -48 -20 rrcurveto
          193 -33 vlineto
          33 -449 rmoveto
          231 vlineto
          46 11 31 11 58 0 rrcurveto
          69 27 -34 -118 -98 -32 -49 -66 hvcurveto
          -59 0 -41 29 -33 17 rrcurveto
          endchar
        </CharString>
        <CharString name="backslash">
          -199 25 320 vstem
          25 770 rmoveto
          281 -842 39 0 -281 842 rlineto
          endchar
        </CharString>
        <CharString name="bar">
          -318 106 41 vstem
          106 -72 rmoveto
          41 842 -41 hlineto
          endchar
        </CharString>
        <CharString name="braceleft">
          -259 -210 41 482 41 447 41 hstem
          114 41 vstem
          25 313 rmoveto
          40 3 49 -23 0 -46 rrcurveto
          -285 vlineto
          -78 22 -94 149 vhcurveto
          41 vlineto
          -84 -1 -46 35 0 97 rrcurveto
          289 vlineto
          0 42 -36 35 -45 6 45 7 37 31 0 48 rrcurveto
          236 vlineto
          111 49 34 80 vhcurveto
          41 vlineto
          -133 -37 -90 -96 hvcurveto
          -236 vlineto
          0 -56 -57 -7 -33 -3 rrcurveto
          endchar
        </CharString>
        <CharString name="braceright">
          -259 -210 41 482 41 447 41 hstem
          155 41 vstem
          25 -169 rmoveto
          -41 vlineto
          149 22 94 78 hvcurveto
          285 vlineto
          0 46 49 23 40 -3 rrcurveto
          41 vlineto
          -33 3 -57 7 0 56 rrcurveto
          236 vlineto
          96 -37 90 -133 vhcurveto
          -41 vlineto
          80 49 -34 -111 hvcurveto
          -236 vlineto
          0 -48 37 -31 45 -7 -45 -6 -36 -35 0 -42 rrcurveto
          -289 vlineto
          0 -97 -46 -35 -84 1 rrcurveto
          endchar
        </CharString>
        <CharString name="bracketleft">
          -244 -210 41 970 41 hstem
          105 41 vstem
          105 -38 rmoveto
          -60 15 -112 121 vhcurveto
          60 41 -60 hlineto
          -68 -27 58 73 hvcurveto
          708 vlineto
          90 39 41 56 vhcurveto
          60 41 -60 hlineto
          -121 -15 -112 -60 hvcurveto
          endchar
        </CharString>
        <CharString name="bracketright">
          -244 -210 41 970 41 hstem
          180 41 vstem
          25 -169 rmoveto
          -41 60 vlineto
          121 15 112 60 hvcurveto
          708 vlineto
          60 -15 112 -121 vhcurveto
          -60 -41 60 hlineto
          56 39 -41 -90 hvcurveto
          -708 vlineto
          -73 -27 -58 -68 vhcurveto
          endchar
        </CharString>
        <CharString name="breve">
          -217 530 25 hstem
          62 25 180 25 vstem
          62 644 rmoveto
          42 callsubr
          endchar
        </CharString>
        <CharString name="brokenbar">
          -316 106 41 vstem
          106 -72 rmoveto
          41 328 -41 hlineto
          173 vmoveto
          41 341 -41 hlineto
          endchar
        </CharString>
        <CharString name="bullet">
          -251 326 114 hstem
          105 109 vstem
          105 358 rmoveto
          -20 13 -12 20 vhcurveto
          41 hlineto
          20 15 8 24 hvcurveto
          46 vlineto
          22 -10 14 -25 vhcurveto
          -41 hlineto
          -22 -11 -15 -21 hvcurveto
          endchar
        </CharString>
        <CharString name="bullet.smcp">
          -251 267 114 hstem
          105 109 vstem
          105 299 rmoveto
          -20 13 -12 20 vhcurveto
          41 hlineto
          20 15 8 24 hvcurveto
          47 vlineto
          22 -10 13 -25 vhcurveto
          -41 hlineto
          -22 -11 -14 -21 hvcurveto
          endchar
        </CharString>
        <CharString name="c">
          -68 -5 41 459 41 hstem
          62 41 vstem
          62 266 rmoveto
          -30 callsubr
          endchar
        </CharString>
        <CharString name="c.smcp">
          -40 -4 41 500 41 hstem
          68 41 vstem
          68 295 rmoveto
          73 callsubr
          endchar
        </CharString>
        <CharString name="c.superior">
          -211 373 33 298 33 hstem
          38 33 vstem
          38 555 rmoveto
          -156 57 -26 74 vhcurveto
          62 1 39 6 46 15 rrcurveto
          24 vlineto
          0 -69 -13 -75 -72 -29 37 110 136 40 15 60 51 89 -10 0 vhcurveto
          23 vlineto
          -50 11 -53 9 -39 0 rrcurveto
          -77 -54 -27 -155 hvcurveto
          endchar
        </CharString>
        <CharString name="c_h">
          474 -6 41 -13 -21 21 -21 495 41 247 -20 hstemhm
          49 41 477 41 332 42 hintmask 10011111
          49 266 rmoveto
          -233 73 -39 102 vhcurveto
          179 2 205 -32 0 242 rrcurveto
          234 vlineto
          70 37 52 23 88 0 rrcurveto
          76 46 -51 -78 hvcurveto
          hintmask 01011111
          -370 42 370 vlineto
          88 -58 82 -106 vhcurveto
          -82 0 -71 -35 -57 -36 rrcurveto
          314 -41 -578 vlineto
          hintmask 10011111
          -197 -169 26 -174 -81 -53 39 188 207 54 27 80 89 119 -14 0 vhcurveto
          28 vlineto
          -65 14 -91 13 -52 0 rrcurveto
          -102 -73 -39 -232 hvcurveto
          endchar
        </CharString>
        <CharString name="c_k">
          414 -6 41 -13 -21 21 -21 495 41 245 -20 hstemhm
          49 41 470 41 hintmask 10011110
          49 266 rmoveto
          0 -233 97 -38 99 -1 86 -1 98 65 131 114 rrcurveto
          -172 41 208 vlineto
          77 70 rlineto
          hintmask 01011110
          228 -277 52 0 -251 305 246 225 -59 0 -293 -267 0 518 -41 0 0 -553 rlineto
          hintmask 10011110
          -78 -72 -139 -122 -98 0 rrcurveto
          -88 -67 39 188 207 54 27 80 89 119 -14 0 hvcurveto
          28 vlineto
          -65 14 -91 13 -52 0 rrcurveto
          -102 -73 -39 -232 hvcurveto
          endchar
        </CharString>
        <CharString name="c_t">
          248 -7 41 -36 27 464 42 hstemhm
          49 41 493 41 -29 29 hintmask 10111000
          49 263 rmoveto
          -233 76 -37 99 vhcurveto
          83 1 51 5 81 23 rrcurveto
          30 vlineto
          0 -123 -18 -92 -81 -53 37 188 202 57 28 77 vhcurveto
          359 0 1 -302 rlineto
          hintmask 01110100
          -135 38 -54 88 vhcurveto
          71 27 hlineto
          -5 -70 14 0 hvcurveto
          -35 6 -46 5 0 137 rrcurveto
          -1 303 168 0 0 41 rlineto
          hintmask 10111000
          -168 hlineto
          hintmask 10110100
          148 -29 vlineto
          hintmask 10111000
          -12 -148 -359 0 rlineto
          -99 -76 -38 -230 hvcurveto
          endchar
        </CharString>
        <CharString name="cacute">
          -68 -5 41 459 41 61 133 hstem
          62 41 152 165 vstem
          255 597 rmoveto
          12 callsubr
          -309 -464 rmoveto
          -30 callsubr
          endchar
        </CharString>
        <CharString name="cacute.smcp">
          -40 -4 41 500 41 65 133 hstem
          68 41 155 165 vstem
          264 643 rmoveto
          12 callsubr
          -312 -481 rmoveto
          73 callsubr
          endchar
        </CharString>
        <CharString name="caron">
          -167 531 130 hstem
          62 279 vstem
          62 661 rmoveto
          44 callsubr
          83 -130 rmoveto
          38 hmoveto
          endchar
        </CharString>
        <CharString name="caron.smcp">
          -167 531 140 hstem
          62 279 vstem
          62 671 rmoveto
          113 -140 39 0 127 140 -33 0 -113 -107 -102 107 rlineto
          82 -140 rmoveto
          39 hmoveto
          endchar
        </CharString>
        <CharString name="ccaron">
          -68 -5 41 459 41 61 130 hstem
          62 41 37 279 vstem
          140 727 rmoveto
          44 callsubr
          83 -130 rmoveto
          38 hmoveto
          -234 -331 rmoveto
          -30 callsubr
          endchar
        </CharString>
        <CharString name="ccaron.smcp">
          -40 -4 41 500 41 65 130 hstem
          68 41 60 279 vstem
          169 773 rmoveto
          44 callsubr
          83 -130 rmoveto
          38 hmoveto
          -257 -348 rmoveto
          73 callsubr
          endchar
        </CharString>
        <CharString name="ccedilla">
          -68 -172 18 148 41 461 41 hstem
          62 41 166 34 vstem
          62 266 rmoveto
          -233 75 -39 99 vhcurveto
          83 1 52 5 81 23 rrcurveto
          30 vlineto
          0 -124 -18 -92 -81 -52 39 188 207 53 27 80 89 119 -14 0 vhcurveto
          28 vlineto
          -65 14 -91 13 -52 0 rrcurveto
          -102 -72 -39 -232 hvcurveto
          102 -420 rmoveto
          -18 38 vlineto
          82 19 35 101 hvcurveto
          -34 hlineto
          1 -84 -22 -17 -44 -9 rrcurveto
          endchar
        </CharString>
        <CharString name="ccedilla.smcp">
          -40 -174 17 153 41 500 41 hstem
          68 41 181 34 vstem
          186 -157 rmoveto
          13 callsubr
          -157 443 rmoveto
          73 callsubr
          endchar
        </CharString>
        <CharString name="ccircumflex">
          -68 -5 41 459 41 61 130 hstem
          62 41 31 279 vstem
          134 597 rmoveto
          -38 callsubr
          0 vmoveto
          37 hmoveto
          -236 -461 rmoveto
          -30 callsubr
          endchar
        </CharString>
        <CharString name="ccircumflex.smcp">
          -40 -4 41 500 41 65 130 hstem
          68 41 59 279 vstem
          168 643 rmoveto
          -38 callsubr
          0 vmoveto
          37 hmoveto
          -264 -478 rmoveto
          73 callsubr
          endchar
        </CharString>
        <CharString name="cdotaccent">
          -68 -5 41 459 41 62 91 hstem
          62 41 151 56 vstem
          254 614 rmoveto
          46 callsubr
          -192 -407 rmoveto
          -30 callsubr
          endchar
        </CharString>
        <CharString name="cdotaccent.smcp">
          -40 -4 41 500 41 65 91 hstem
          68 41 165 56 vstem
          274 659 rmoveto
          46 callsubr
          -206 -423 rmoveto
          73 callsubr
          endchar
        </CharString>
        <CharString name="cedilla">
          -307 -173 17 hstem
          166 34 vstem
          62 -156 rmoveto
          13 callsubr
          endchar
        </CharString>
        <CharString name="cent">
          -80 -6 41 hstem
          49 41 151 32 vstem
          49 266 rmoveto
          0 -243 77 -30 115 1 rrcurveto
          -81 32 83 vlineto
          58 2 44 6 64 19 rrcurveto
          30 vlineto
          0 -123 -18 -92 -81 -53 39 188 207 54 27 80 89 119 -14 0 vhcurveto
          28 vlineto
          -47 11 -62 9 -50 4 rrcurveto
          89 -32 -86 vlineto
          -115 2 -77 -33 0 -240 rrcurveto
          endchar
        </CharString>
        <CharString name="circumflex">
          -167 531 130 hstem
          62 279 vstem
          62 531 rmoveto
          -38 callsubr
          0 vmoveto
          37 hmoveto
          endchar
        </CharString>
        <CharString name="circumflex.smcp">
          -167 531 130 hstem
          62 278 vstem
          62 531 rmoveto
          36 0 109 100 98 -100 35 0 -114 130 -37 0 rlineto
          0 vmoveto
          37 hmoveto
          endchar
        </CharString>
        <CharString name="colon">
          -359 0 92 346 93 hstem
          74 58 vstem
          74 16 rmoveto
          -101 callsubr
          377 vmoveto
          -9 8 -6 9 vhcurveto
          25 hlineto
          9 7 4 11 hvcurveto
          61 vlineto
          10 -5 7 -11 vhcurveto
          -25 hlineto
          -11 -6 -7 -10 hvcurveto
          endchar
        </CharString>
        <CharString name="comma">
          -364 -75 15 hstemhm
          74 57 -32 32 hintmask 11000000
          74 17 rmoveto
          -11 8 -6 9 vhcurveto
          hintmask 10100000
          8 -40 hlineto
          -8 -2 -12 -20 vhcurveto
          -15 vlineto
          0 54 -12 59 hvcurveto
          hintmask 11000000
          104 vlineto
          10 -4 8 -12 vhcurveto
          -24 hlineto
          -11 -6 -6 -12 hvcurveto
          endchar
        </CharString>
        <CharString name="copyright">
          277 0 31 116 31 374 31 118 31 hstem
          68 31 145 31 472 31 vstem
          68 368 rmoveto
          2 callsubr
          31 hmoveto
          3 callsubr
          145 -3 rmoveto
          -177 65 -41 79 vhcurveto
          67 0 53 5 64 18 rrcurveto
          24 vlineto
          -43 -9 -69 -7 -72 0 rrcurveto
          -85 -28 72 112 134 43 56 70 hvcurveto
          33 0 82 -3 63 -9 rrcurveto
          24 vlineto
          -56 10 -81 9 -41 0 rrcurveto
          -81 -63 -57 -161 hvcurveto
          endchar
        </CharString>
        <CharString name="currency">
          -105 144 30 272 30 hstem
          69 29 266 29 vstem
          63 464 rmoveto
          46 -45 rlineto
          -25 -28 -15 -36 0 -40 0 -40 13 -38 23 -29 rrcurveto
          -41 -42 18 -19 41 42 rlineto
          28 -27 38 -18 42 0 42 0 37 17 28 27 rrcurveto
          41 -42 20 18 -43 43 rlineto
          23 30 14 38 0 40 0 40 -15 37 -24 27 rrcurveto
          45 44 -17 20 -46 -45 rlineto
          -28 24 -36 14 -41 0 -39 0 -37 -15 -28 -24 rrcurveto
          -45 45 rlineto
          16 -168 rmoveto
          72 61 60 72 74 59 -58 -74 -75 -58 -65 -75 -75 -58 65 75 vhcurveto
          endchar
        </CharString>
        <CharString name="d">
          -16 -6 41 463 41 hstemhm
          62 41 336 40 -27 27 hintmask 11110000
          62 263 rmoveto
          -29 callsubr
          hintmask 11101000
          13 -59 27 0 rlineto
          hintmask 11110000
          -28 callsubr
          41 hmoveto
          -27 callsubr
          endchar
        </CharString>
        <CharString name="d.salt">
          -8 -12 41 465 41 248 -20 hstem
          62 41 342 41 vstem
          62 257 rmoveto
          124 callsubr
          41 hmoveto
          125 callsubr
          endchar
        </CharString>
        <CharString name="d.smcp">
          42 0 41 490 41 hstem
          98 41 371 41 vstem
          98 hmoveto
          74 callsubr
          41 -531 rmoveto
          75 callsubr
          endchar
        </CharString>
        <CharString name="d.superior">
          -182 374 33 299 33 hstemhm
          38 33 232 33 -22 22 hintmask 11110000
          38 554 rmoveto
          -82 19 -98 109 vhcurveto
          64 0 54 41 19 15 rrcurveto
          hintmask 11101000
          11 -52 22 0 rlineto
          hintmask 11110000
          525 -33 -194 vlineto
          -48 20 -58 10 -34 0 rrcurveto
          -114 -11 -94 -91 hvcurveto
          33 hmoveto
          118 28 34 69 vhcurveto
          58 0 31 -10 46 -11 rrcurveto
          -232 vlineto
          -33 -17 -42 -29 -59 0 rrcurveto
          -66 -32 49 98 hvcurveto
          endchar
        </CharString>
        <CharString name="dagger">
          -175 504 29 hstemhm
          175 43 -38 31 hintmask 11000000
          25 504 rmoveto
          150 -7 rlineto
          hintmask 10100000
          5 -569 31 0 rlineto
          hintmask 11000000
          7 569 151 7 0 29 -151 7 -6 230 -31 0 -6 -230 -150 -7 rlineto
          endchar
        </CharString>
        <CharString name="daggerdbl">
          -151 187 29 288 29 hstem
          180 31 vstem
          25 187 rmoveto
          153 -7 2 -252 31 0 3 252 155 7 0 29 -154 7 3 274 151 7 0 29 -151 7 -6 230 -30 0 -7 -230 -150 -7 rlineto
          0 -29 150 -7 2 -274 -152 -7 rlineto
          endchar
        </CharString>
        <CharString name="dcaron">
          -16 -6 41 463 41 hstemhm
          62 41 336 40 -27 27 63 33 hintmask 11110100
          62 263 rmoveto
          -29 callsubr
          hintmask 11101100
          13 -59 27 0 rlineto
          hintmask 11110100
          -28 callsubr
          41 hmoveto
          -27 callsubr
          434 474 rmoveto
          5 -111 11 -46 22 89 4 90 -16 22 rlineto
          endchar
        </CharString>
        <CharString name="dcaron.salt">
          12 -12 41 465 41 248 -20 hstem
          62 41 342 41 65 42 vstem
          62 257 rmoveto
          124 callsubr
          41 hmoveto
          125 callsubr
          448 459 rmoveto
          109 callsubr
          endchar
        </CharString>
        <CharString name="dcaron.smcp">
          36 0 41 490 41 60 130 hstem
          118 41 34 279 58 41 vstem
          193 762 rmoveto
          44 callsubr
          83 -130 rmoveto
          38 hmoveto
          -231 -632 rmoveto
          74 callsubr
          41 -531 rmoveto
          75 callsubr
          endchar
        </CharString>
        <CharString name="dcroat">
          -16 -6 41 463 41 93 28 hstemhm
          62 41 337 39 -26 26 hintmask 11110100
          62 263 rmoveto
          -122 36 -147 145 vhcurveto
          68 0 102 43 26 22 rrcurveto
          14 -59 26 0 rlineto
          hintmask 11111000
          632 80 28 -80 125 -39 -125 -128 -28 128 -133 vlineto
          -64 26 -88 14 -45 0 rrcurveto
          -151 -30 -140 -136 hvcurveto
          41 hmoveto
          191 63 44 77 vhcurveto
          77 0 50 -11 69 -18 rrcurveto
          -382 vlineto
          -53 -25 -64 -27 -79 0 rrcurveto
          -78 -62 69 159 hvcurveto
          endchar
        </CharString>
        <CharString name="dcroat.salt">
          -17 -12 41 465 41 97 28 123 -20 hstem
          62 41 342 41 vstem
          62 257 rmoveto
          -168 59 -101 125 vhcurveto
          106 0 86 8 48 7 rrcurveto
          629 66 28 -66 123 -41 -123 -140 -28 140 -136 vlineto
          -64 26 -90 13 -45 0 rrcurveto
          -153 -31 -120 -158 hvcurveto
          41 hmoveto
          125 callsubr
          endchar
        </CharString>
        <CharString name="dcroat.smcp">
          35 0 41 235 28 226 42 hstem
          90 43 353 44 vstem
          25 276 rmoveto
          65 -276 223 hlineto
          55 162 1 282 hvcurveto
          0 123 -43 165 -173 1 rrcurveto
          -224 -268 -65 hlineto
          108 -263 rmoveto
          235 116 28 -116 226 177 vlineto
          90 86 -63 -184 -137 -37 -105 -141 hvcurveto
          endchar
        </CharString>
        <CharString name="degree">
          -242 530 26 153 26 hstem
          62 25 152 25 vstem
          62 632 rmoveto
          5 callsubr
          25 hmoveto
          6 callsubr
          endchar
        </CharString>
        <CharString name="degree.smcp">
          -243 368 27 152 26 hstem
          62 25 152 25 vstem
          62 470 rmoveto
          5 callsubr
          25 hmoveto
          42 35 35 42 42 33 -35 -42 -42 -33 -33 -42 -42 -35 33 42 vhcurveto
          endchar
        </CharString>
        <CharString name="dieresis">
          -134 553 57 hstem
          62 57 197 58 vstem
          62 582 rmoveto
          0 callsubr
          254 hmoveto
          1 callsubr
          endchar
        </CharString>
        <CharString name="dieresis.smcp">
          -134 552 58 hstem
          62 57 197 58 vstem
          62 582 rmoveto
          -16 12 -14 16 16 13 14 16 16 -13 12 -16 -16 -12 -12 -16 vhcurveto
          254 hmoveto
          -16 13 -14 16 16 13 14 16 16 -13 12 -16 -16 -13 -12 -16 vhcurveto
          endchar
        </CharString>
        <CharString name="divide">
          -29 148 78 106 42 97 79 hstem
          245 56 vstem
          62 332 rmoveto
          416 42 -416 hlineto
          183 -210 rmoveto
          -9 7 -7 9 vhcurveto
          24 hlineto
          9 7 6 10 hvcurveto
          46 vlineto
          9 -6 7 -10 vhcurveto
          -24 hlineto
          -11 -5 -6 -10 hvcurveto
          277 vmoveto
          -9 7 -7 9 vhcurveto
          24 hlineto
          9 7 6 10 hvcurveto
          46 vlineto
          9 -6 8 -10 vhcurveto
          -24 hlineto
          -11 -5 -7 -10 hvcurveto
          endchar
        </CharString>
        <CharString name="dollar">
          13 338 42 hstem
          68 41 161 31 172 41 vstem
          68 494 rmoveto
          -74 22 -82 152 vhcurveto
          112 hlineto
          88 31 -39 -75 hvcurveto
          -68 vlineto
          -105 -78 -18 -78 vhcurveto
          -93 0 -94 3 -43 3 rrcurveto
          -29 vlineto
          34 -6 88 -6 61 -4 rrcurveto
          -83 31 81 vlineto
          108 -3 105 22 0 145 rrcurveto
          68 vlineto
          82 -25 74 -135 vhcurveto
          -113 hlineto
          -76 -56 21 93 hvcurveto
          66 vlineto
          0 115 60 26 93 -4 0 0 163 -5 59 -3 rrcurveto
          28 vlineto
          -40 5 -84 10 -59 4 rrcurveto
          88 -31 -86 vlineto
          -117 2 -84 -32 -1 -148 rrcurveto
          endchar
        </CharString>
        <CharString name="dollar.smcp">
          -43 -3 42 -28 28 227 39 228 42 -42 29 hstemhm
          62 41 145 34 137 42 hintmask 10100111
          62 397 rmoveto
          -76 43 -55 119 vhcurveto
          82 hlineto
          66 47 -39 -54 hvcurveto
          -38 vlineto
          -75 -73 -21 -48 vhcurveto
          hintmask 01100111
          -218 -28 hlineto
          hintmask 10110111
          29 -5 97 -5 42 -4 rrcurveto
          -66 34 65 vlineto
          80 -4 99 36 0 107 rrcurveto
          38 vlineto
          65 -49 67 -106 vhcurveto
          -82 hlineto
          -65 -56 25 67 hvcurveto
          31 vlineto
          72 33 33 98 vhcurveto
          hintmask 00101111
          206 29 hlineto
          -37 5 -84 6 -37 1 rrcurveto
          66 -34 vlineto
          hintmask 10110111
          -65 vlineto
          -92 -94 -13 -134 hvcurveto
          endchar
        </CharString>
        <CharString name="dotaccent">
          -389 555 91 hstem
          58 56 vstem
          58 571 rmoveto
          46 callsubr
          endchar
        </CharString>
        <CharString name="dotlessi">
          -380 21 -21 21 -21 531 -20 hstemhm
          74 41 hintmask 10110000
          74 hmoveto
          -20 callsubr
          endchar
        </CharString>
        <CharString name="e">
          -43 -5 41 206 40 212 41 hstem
          62 41 332 41 vstem
          62 268 rmoveto
          -26 callsubr
          41 14 rmoveto
          -25 callsubr
          endchar
        </CharString>
        <CharString name="e.smcp">
          -43 -2 41 -29 29 225 42 225 40 -40 30 hstemhm
          98 41 hintmask 10100100
          98 83 rmoveto
          76 callsubr
          hintmask 01100100
          -64 callsubr
          hintmask 10110100
          77 callsubr
          hintmask 00101100
          272 30 hlineto
          hintmask 10110100
          78 callsubr
          endchar
        </CharString>
        <CharString name="e.superior">
          -180 373 33 131 32 131 33 hstem
          38 33 241 33 vstem
          cntrmask 11100000
          38 557 rmoveto
          -146 41 -38 91 vhcurveto
          62 0 44 6 61 17 rrcurveto
          23 vlineto
          -57 -10 -35 -3 -69 0 rrcurveto
          -66 -39 17 114 hvcurveto
          167 hlineto
          76 31 21 50 119 -70 6 -76 -121 -40 -43 -133 hvcurveto
          33 12 rmoveto
          118 47 13 81 88 25 -19 -72 -35 -35 -5 -41 vhcurveto
          endchar
        </CharString>
        <CharString name="eacute">
          -43 -5 41 206 40 212 41 58 133 hstem
          62 41 158 165 9 41 vstem
          261 593 rmoveto
          12 callsubr
          -315 -458 rmoveto
          -26 callsubr
          41 14 rmoveto
          -25 callsubr
          endchar
        </CharString>
        <CharString name="eacute.smcp">
          -43 -2 41 -29 29 225 42 225 30 -30 40 60 133 hstemhm
          98 41 148 165 hintmask 00000101
          287 631 rmoveto
          12 callsubr
          hintmask 10100010
          -305 -681 rmoveto
          76 callsubr
          hintmask 01100010
          -64 callsubr
          hintmask 10101010
          77 callsubr
          hintmask 00110010
          272 30 hlineto
          hintmask 10101010
          78 callsubr
          endchar
        </CharString>
        <CharString name="ecaron">
          -43 -5 41 206 40 212 41 59 130 hstem
          62 41 42 279 11 41 vstem
          145 724 rmoveto
          44 callsubr
          83 -130 rmoveto
          38 hmoveto
          -239 -326 rmoveto
          -26 callsubr
          41 14 rmoveto
          -25 callsubr
          endchar
        </CharString>
        <CharString name="ecaron.smcp">
          -43 -2 41 -29 29 225 42 225 30 -30 40 60 130 hstemhm
          98 41 18 279 hintmask 00000101
          157 761 rmoveto
          44 callsubr
          83 -130 rmoveto
          38 hmoveto
          hintmask 10100010
          -215 -548 rmoveto
          76 callsubr
          hintmask 01100010
          -64 callsubr
          hintmask 10101010
          77 callsubr
          hintmask 00110010
          272 30 hlineto
          hintmask 10101010
          78 callsubr
          endchar
        </CharString>
        <CharString name="ecircumflex">
          -43 -5 41 206 40 212 41 58 130 hstem
          62 41 30 279 23 41 vstem
          133 593 rmoveto
          -38 callsubr
          0 vmoveto
          37 hmoveto
          -235 -455 rmoveto
          -26 callsubr
          41 14 rmoveto
          -25 callsubr
          endchar
        </CharString>
        <CharString name="ecircumflex.smcp">
          -43 -2 41 -29 29 225 42 225 30 -30 40 61 130 hstemhm
          98 41 20 279 hintmask 00000101
          159 632 rmoveto
          -38 callsubr
          0 vmoveto
          37 hmoveto
          hintmask 10100010
          -225 -679 rmoveto
          76 callsubr
          hintmask 01100010
          -64 callsubr
          hintmask 10101010
          77 callsubr
          hintmask 00110010
          272 30 hlineto
          hintmask 10101010
          78 callsubr
          endchar
        </CharString>
        <CharString name="edieresis">
          -43 -5 41 206 40 212 41 80 57 hstem
          62 41 17 57 197 58 3 41 vstem
          120 644 rmoveto
          0 callsubr
          254 hmoveto
          1 callsubr
          -312 -376 rmoveto
          -26 callsubr
          41 14 rmoveto
          -25 callsubr
          endchar
        </CharString>
        <CharString name="edieresis.smcp">
          -43 -2 41 -29 29 225 42 225 30 -30 40 83 57 hstemhm
          98 41 -1 57 197 58 hintmask 0000010110000000
          138 683 rmoveto
          0 callsubr
          254 hmoveto
          1 callsubr
          hintmask 1010001000000000
          -294 -600 rmoveto
          76 callsubr
          hintmask 0110001000000000
          -64 callsubr
          hintmask 1010101000000000
          77 callsubr
          hintmask 0011001000000000
          272 30 hlineto
          hintmask 1010101000000000
          78 callsubr
          endchar
        </CharString>
        <CharString name="edotaccent">
          -43 -5 41 206 40 212 41 61 91 hstem
          62 41 153 56 123 41 vstem
          256 612 rmoveto
          46 callsubr
          -194 -403 rmoveto
          -26 callsubr
          41 14 rmoveto
          -25 callsubr
          endchar
        </CharString>
        <CharString name="edotaccent.smcp">
          -43 -2 41 -29 29 225 42 225 30 -30 40 61 91 hstemhm
          98 41 137 56 hintmask 00000101
          276 648 rmoveto
          46 callsubr
          hintmask 10100010
          -178 -624 rmoveto
          76 callsubr
          hintmask 01100010
          -64 callsubr
          hintmask 10101010
          77 callsubr
          hintmask 00110010
          272 30 hlineto
          hintmask 10101010
          78 callsubr
          endchar
        </CharString>
        <CharString name="egrave">
          -43 -5 41 206 40 212 41 58 133 hstem
          62 41 32 165 135 41 vstem
          135 726 rmoveto
          -37 callsubr
          -122 -458 rmoveto
          -26 callsubr
          41 14 rmoveto
          -25 callsubr
          endchar
        </CharString>
        <CharString name="egrave.smcp">
          -43 -2 41 -29 29 225 42 225 30 -30 40 61 133 hstemhm
          98 41 20 165 hintmask 00000101
          159 765 rmoveto
          -37 callsubr
          hintmask 10100010
          -110 -682 rmoveto
          76 callsubr
          hintmask 01100010
          -64 callsubr
          hintmask 10101010
          77 callsubr
          hintmask 00110010
          272 30 hlineto
          hintmask 10101010
          78 callsubr
          endchar
        </CharString>
        <CharString name="eight">
          79 0 41 313 40 302 41 hstem
          92 41 382 41 vstem
          92 154 rmoveto
          -87 callsubr
          41 -102 rmoveto
          -86 callsubr
          343 vmoveto
          -85 callsubr
          endchar
        </CharString>
        <CharString name="eight.denominator">
          -73 -1 33 192 33 190 33 hstem
          81 33 268 33 vstem
          81 103 rmoveto
          29 callsubr
          33 -54 rmoveto
          30 callsubr
          220 vmoveto
          31 callsubr
          endchar
        </CharString>
        <CharString name="eight.numerator">
          -73 254 33 192 33 190 33 hstem
          81 33 268 33 vstem
          81 358 rmoveto
          29 callsubr
          33 -54 rmoveto
          30 callsubr
          220 vmoveto
          31 callsubr
          endchar
        </CharString>
        <CharString name="eight.oldstyle">
          79 0 41 313 40 302 41 hstem
          92 41 382 41 vstem
          92 154 rmoveto
          -87 callsubr
          41 -102 rmoveto
          -86 callsubr
          343 vmoveto
          -85 callsubr
          endchar
        </CharString>
        <CharString name="eight.smcp">
          36 0 41 227 42 224 41 hstem
          92 41 340 41 vstem
          92 133 rmoveto
          -41 3 -92 131 vhcurveto
          161 hlineto
          64 63 32 101 hvcurveto
          45 vlineto
          0 55 -33 55 -45 6 44 8 34 42 0 59 rrcurveto
          33 vlineto
          95 -43 44 -83 vhcurveto
          -160 hlineto
          -90 -46 -33 -106 hvcurveto
          -33 vlineto
          0 -55 29 -50 53 -15 -30 -4 -52 -19 0 -80 rrcurveto
          41 -49 rmoveto
          47 vlineto
          76 55 14 41 vhcurveto
          150 hlineto
          42 52 -15 -78 hvcurveto
          -44 vlineto
          -59 -36 -31 -54 vhcurveto
          -153 hlineto
          -70 -27 30 60 hvcurveto
          271 vmoveto
          32 vlineto
          87 31 13 68 vhcurveto
          152 hlineto
          63 27 -27 -73 hvcurveto
          -32 vlineto
          -49 -31 -43 -64 vhcurveto
          -150 hlineto
          -41 -55 16 76 hvcurveto
          endchar
        </CharString>
        <CharString name="eight.tnum">
          56 0 41 313 40 302 41 hstem
          80 41 382 41 vstem
          80 154 rmoveto
          -87 callsubr
          41 -102 rmoveto
          -86 callsubr
          343 vmoveto
          -85 callsubr
          endchar
        </CharString>
        <CharString name="eight.tosf">
          56 0 41 313 40 302 41 hstem
          84 41 382 41 vstem
          84 154 rmoveto
          -87 callsubr
          41 -102 rmoveto
          -86 callsubr
          343 vmoveto
          -85 callsubr
          endchar
        </CharString>
        <CharString name="eightinferior">
          -73 -201 33 192 33 190 33 hstem
          81 33 268 33 vstem
          81 -39 rmoveto
          -58 vlineto
          -54 17 -50 92 vhcurveto
          120 hlineto
          55 50 20 84 hvcurveto
          58 vlineto
          0 39 -29 39 -34 6 48 6 15 45 0 27 rrcurveto
          40 vlineto
          86 -38 31 -70 vhcurveto
          -110 hlineto
          -67 -49 -25 -92 hvcurveto
          -40 vlineto
          0 -34 16 -42 51 -11 -27 -3 -40 -24 0 -48 rrcurveto
          33 -3 rmoveto
          41 32 25 46 vhcurveto
          122 hlineto
          29 39 -19 -48 hvcurveto
          -50 vlineto
          -56 -28 -19 -48 vhcurveto
          -112 hlineto
          -60 -20 21 54 hvcurveto
          220 vmoveto
          31 callsubr
          endchar
        </CharString>
        <CharString name="eightsuperior">
          -73 371 33 192 33 190 33 hstem
          81 33 268 33 vstem
          81 475 rmoveto
          29 callsubr
          33 -54 rmoveto
          30 callsubr
          220 vmoveto
          31 callsubr
          endchar
        </CharString>
        <CharString name="ellipsis">
          242 0 92 hstem
          100 58 214 58 214 58 vstem
          cntrmask 01110000
          644 16 rmoveto
          -101 callsubr
          -272 -60 rmoveto
          -101 callsubr
          -272 -60 rmoveto
          -101 callsubr
          endchar
        </CharString>
        <CharString name="emacron">
          -43 -5 41 206 40 212 41 61 31 hstem
          62 41 36 265 31 41 vstem
          139 596 rmoveto
          4 callsubr
          -77 -359 rmoveto
          -26 callsubr
          41 14 rmoveto
          -25 callsubr
          endchar
        </CharString>
        <CharString name="emacron.smcp">
          -43 -2 41 -29 29 225 42 225 30 -30 40 61 31 hstemhm
          98 41 27 265 hintmask 00000101
          166 632 rmoveto
          4 callsubr
          hintmask 10100010
          -68 -580 rmoveto
          76 callsubr
          hintmask 01100010
          -64 callsubr
          hintmask 10101010
          77 callsubr
          hintmask 00110010
          272 30 hlineto
          hintmask 10101010
          78 callsubr
          endchar
        </CharString>
        <CharString name="emdash">
          177 268 42 hstem
          25 268 rmoveto
          696 42 -696 hlineto
          endchar
        </CharString>
        <CharString name="emdash.alt">
          177 338 42 hstem
          25 338 rmoveto
          696 42 -696 hlineto
          endchar
        </CharString>
        <CharString name="emdash.smcp">
          177 256 42 hstem
          25 256 rmoveto
          696 42 -696 hlineto
          endchar
        </CharString>
        <CharString name="endash">
          -46 266 42 hstem
          25 266 rmoveto
          473 42 -473 hlineto
          endchar
        </CharString>
        <CharString name="endash.alt">
          -46 336 42 hstem
          25 336 rmoveto
          473 42 -473 hlineto
          endchar
        </CharString>
        <CharString name="endash.smcp">
          -46 252 42 hstem
          25 252 rmoveto
          473 42 -473 hlineto
          endchar
        </CharString>
        <CharString name="eng">
          -7 -253 23 251 -21 21 -21 499 41 -9 -20 hstemhm
          74 41 -41 25 348 41 hintmask 11010101
          74 hmoveto
          41 437 hlineto
          66 34 53 28 83 0 rrcurveto
          77 53 -60 -69 hvcurveto
          hintmask 10110101
          0 -370 0 -91 rlineto
          -2 -90 -67 -33 -64 -16 rrcurveto
          18 -23 rlineto
          58 11 95 22 3 130 rrcurveto
          0 90 0 370 rlineto
          88 -65 82 -106 vhcurveto
          -81 0 -60 -36 -61 -35 rrcurveto
          hintmask 11001011
          -16 62 -25 0 rlineto
          endchar
        </CharString>
        <CharString name="eng.smcp">
          46 -215 33 203 -21 21 -21 hstemhm
          98 41 369 41 hintmask 11011000
          98 hmoveto
          41 497 hlineto
          370 -496 0 -51 rlineto
          0 -120 -58 -5 -73 -7 rrcurveto
          -33 vlineto
          114 0 56 33 1 132 rrcurveto
          hintmask 10111000
          0 50 0 571 -41 0 0 -498 -371 498 -39 0 rlineto
          endchar
        </CharString>
        <CharString name="eogonek">
          -43 -158 30 123 41 -33 20 219 40 212 41 hstemhm
          62 41 332 41 hintmask 10100000
          445 23 rmoveto
          43 callsubr
          hintmask 01011110
          -404 245 rmoveto
          -26 callsubr
          41 14 rmoveto
          -25 callsubr
          endchar
        </CharString>
        <CharString name="eogonek.smcp">
          -43 -171 30 131 20 -12 41 -29 29 225 42 225 30 -30 40 hstemhm
          98 41 hintmask 11000000
          455 10 rmoveto
          43 callsubr
          hintmask 00101001
          -378 73 rmoveto
          76 callsubr
          hintmask 00011001
          -64 callsubr
          hintmask 00101011
          77 callsubr
          hintmask 00001101
          272 30 hlineto
          hintmask 00101011
          78 callsubr
          endchar
        </CharString>
        <CharString name="equal">
          -92 212 41 201 41 hstem
          25 212 rmoveto
          427 41 -427 hlineto
          201 vmoveto
          427 41 -427 hlineto
          endchar
        </CharString>
        <CharString name="estimated">
          181 0 21 237 17 239 19 hstem
          74 111 379 112 vstem
          74 266 rmoveto
          0 -78 28 -63 55 -51 55 -51 67 -23 96 0 62 0 30 6 42 16 40 16 35 27 38 40 rrcurveto
          -56 hlineto
          -43 -48 -72 -36 -76 0 rrcurveto
          -114 -76 66 27 hvcurveto
          133 vlineto
          13 5 -2 7 vhcurveto
          479 hlineto
          -4 89 -31 75 -58 45 -58 45 -61 21 -89 0 -97 0 -64 -25 -56 -50 -55 -52 -29 -62 0 -78 rrcurveto
          111 18 rmoveto
          137 vlineto
          23 81 70 108 86 104 -57 -42 vhcurveto
          -133 vlineto
          -10 -1 3 -12 vhcurveto
          -357 hlineto
          -5 -4 0 9 hvcurveto
          endchar
        </CharString>
        <CharString name="eth">
          -29 0 43 447 41 216 36 hstem
          49 41 356 41 vstem
          49 264 rmoveto
          -179 41 -85 137 vhcurveto
          80 hlineto
          107 73 65 199 hvcurveto
          0 132 -18 181 -98 110 rrcurveto
          112 44 -13 29 -124 -49 rlineto
          -52 45 -66 27 -95 0 rrcurveto
          -36 vlineto
          70 0 55 -18 45 -34 rrcurveto
          -139 -56 12 -29 155 62 rlineto
          57 -57 24 -79 12 -54 -11 18 -47 31 -59 0 rrcurveto
          -80 hlineto
          -135 -43 -97 -170 hvcurveto
          41 hmoveto
          189 56 37 81 vhcurveto
          80 hlineto
          123 16 -102 -124 -127 -27 -94 -112 hvcurveto
          -80 hlineto
          -84 -53 27 194 hvcurveto
          endchar
        </CharString>
        <CharString name="eth.smcp">
          40 0 41 235 28 226 42 hstem
          101 42 354 43 vstem
          35 276 rmoveto
          66 -276 222 hlineto
          55 162 1 282 hvcurveto
          0 123 -42 165 -173 1 rrcurveto
          -224 -268 -66 hlineto
          108 -263 rmoveto
          235 116 28 -116 226 177 vlineto
          90 87 -63 -184 -137 -38 -105 -141 hvcurveto
          endchar
        </CharString>
        <CharString name="exclam">
          -305 0 92 639 -20 hstemhm
          101 58 -46 33 hintmask 11100000
          101 16 rmoveto
          -107 callsubr
          6 655 rmoveto
          hintmask 11010000
          6 -535 33 0 6 535 rlineto
          endchar
        </CharString>
        <CharString name="exclam.smcp">
          -305 0 92 hstemhm
          101 58 -46 33 hintmask 11000000
          101 16 rmoveto
          -107 callsubr
          6 494 rmoveto
          hintmask 10100000
          6 -404 33 0 6 404 rlineto
          endchar
        </CharString>
        <CharString name="exclamdown">
          -301 369 91 hstemhm
          102 56 -44 33 hintmask 11000000
          102 386 rmoveto
          -10 5 -7 11 vhcurveto
          24 hlineto
          11 5 9 9 hvcurveto
          58 vlineto
          9 -7 6 -9 vhcurveto
          -24 hlineto
          -9 -7 -4 -10 hvcurveto
          6 -716 rmoveto
          45 0 rlineto
          hintmask 10100000
          -6 534 -33 0 rlineto
          endchar
        </CharString>
        <CharString name="exclamdown.alt">
          -305 21 -21 21 -21 535 -20 124 92 hstemhm
          101 58 -51 45 hintmask 00111000
          101 655 rmoveto
          -9 6 -7 10 vhcurveto
          26 hlineto
          11 5 6 10 hvcurveto
          60 vlineto
          9 -7 7 -9 vhcurveto
          -26 hlineto
          -9 -7 -6 -10 hvcurveto
          hintmask 10110100
          7 -715 rmoveto
          45 0 -6 535 -33 0 rlineto
          endchar
        </CharString>
        <CharString name="exclamdown.smcp">
          -305 21 -21 21 -21 478 92 hstemhm
          101 58 -51 45 hintmask 00110000
          101 494 rmoveto
          -9 5 -7 10 vhcurveto
          27 hlineto
          11 5 6 10 hvcurveto
          60 vlineto
          9 -7 7 -9 vhcurveto
          -27 hlineto
          -9 -6 -6 -10 hvcurveto
          hintmask 10101000
          7 -554 rmoveto
          45 0 -6 404 -33 0 rlineto
          endchar
        </CharString>
        <CharString name="f">
          -179 21 -21 21 -21 490 41 -41 29 226 26 -25 40 hstemhm
          115 41 hintmask 10010010
          25 490 rmoveto
          90 -490 41 hlineto
          hintmask 00100110
          -24 callsubr
          hintmask 00001010
          136 -1 0 26 rlineto
          hintmask 00100110
          -23 callsubr
          hintmask 10010010
          -90 -12 rlineto
          endchar
        </CharString>
        <CharString name="f.salt">
          -196 21 -21 21 -21 474 40 233 39 -39 22 hstemhm
          74 41 hintmask 10110100
          74 hmoveto
          126 callsubr
          hintmask 00101100
          140 22 hlineto
          hintmask 10110100
          127 callsubr
          endchar
        </CharString>
        <CharString name="f.smcp">
          -43 21 -21 21 -21 262 43 -36 30 232 40 -40 30 hstemhm
          98 41 hintmask 10100010
          98 hmoveto
          41 262 hlineto
          hintmask 00010010
          306 7 0 30 rlineto
          hintmask 00101010
          79 callsubr
          hintmask 00000110
          272 30 hlineto
          hintmask 10101010
          78 callsubr
          endchar
        </CharString>
        <CharString name="f.superior">
          -242 687 32 -32 21 163 32 -32 22 hstemhm
          106 33 hintmask 01001000
          32 687 rmoveto
          hintmask 10101000
          74 -309 33 309 124 32 -124 75 hlineto
          50 15 27 63 vhcurveto
          hintmask 00011000
          78 22 hlineto
          hintmask 01101000
          -32 6 -23 4 -37 0 rrcurveto
          -90 -7 -69 -36 hvcurveto
          0 -80 -74 -10 rlineto
          endchar
        </CharString>
        <CharString name="f_f">
          194 20 -20 20 -20 490 41 -41 27 219 40 -30 40 hstemhm
          122 41 325 41 hintmask 00010011
          25 490 rmoveto
          hintmask 10100011
          97 -490 41 490 325 -491 41 hlineto
          hintmask 00010011
          491 vlineto
          hintmask 00100111
          168 41 -167 99 hlineto
          0 61 6 58 67 -3 rrcurveto
          0 135 -6 1 vhcurveto
          26 vlineto
          -40 12 -71 8 -36 0 rrcurveto
          -100 -3 -102 -54 hvcurveto
          -99 -326 89 vlineto
          hintmask 00101011
          60 callsubr
          hintmask 00010011
          -97 -14 rlineto
          endchar
        </CharString>
        <CharString name="f_f_i">
          396 21 -21 21 -21 490 41 -41 33 213 40 -40 26 -17 41 hstemhm
          122 41 319 41 327 41 hintmask 0001000111000000
          25 490 rmoveto
          hintmask 1010000111000000
          97 -490 41 490 319 -490 41 hlineto
          hintmask 1001000111000000
          490 327 -490 41 523 vlineto
          hintmask 0010001111000000
          -367 8 0 53 rlineto
          0 121 70 44 83 -4 rrcurveto
          hintmask 0000010111000000
          0 170 -9 1 vhcurveto
          26 vlineto
          hintmask 0010001111000000
          -60 15 -82 9 -40 0 rrcurveto
          -120 -63 -84 -118 hvcurveto
          -53 -320 89 vlineto
          hintmask 0010100111000000
          0 80 26 39 65 -3 rrcurveto
          0 112 -5 1 vhcurveto
          26 vlineto
          -43 10 -39 9 -38 0 rrcurveto
          -120 -5 -101 -55 hvcurveto
          0 -89 -97 -14 rlineto
          endchar
        </CharString>
        <CharString name="f_t">
          178 0 27 463 41 -41 29 226 26 -25 40 hstemhm
          115 41 358 41 -30 30 hintmask 10100110
          25 490 rmoveto
          hintmask 11000110
          90 -490 41 hlineto
          hintmask 10100110
          490 vlineto
          hintmask 11001110
          358 -301 hlineto
          -135 39 -54 88 vhcurveto
          71 27 hlineto
          -5 -71 14 0 hvcurveto
          -35 6 -46 5 0 137 rrcurveto
          301 168 41 -168 vlineto
          hintmask 11001101
          149 -30 vlineto
          hintmask 11001110
          -11 -149 -357 0 0 99 rlineto
          68 6 48 67 vhcurveto
          hintmask 10010110
          136 -1 0 26 rlineto
          hintmask 11001110
          -23 callsubr
          hintmask 10100110
          -91 -12 rlineto
          endchar
        </CharString>
        <CharString name="f_y">
          368 21 -21 21 -21 490 41 -41 29 223 25 -21 40 hstemhm
          115 41 hintmask 00010010
          25 490 rmoveto
          hintmask 10100010
          90 -490 41 hlineto
          hintmask 00010010
          490 vlineto
          hintmask 00100110
          178 hlineto
          77 0 26 -13 26 -72 rrcurveto
          107 -292 rlineto
          35 -100 62 -9 22 -1 rrcurveto
          -92 -270 25 0 57 102 233 699 -45 0 -165 -488 rlineto
          0 0 -59 -11 -30 84 rrcurveto
          -110 301 rlineto
          -29 80 -24 31 -116 1 rrcurveto
          -177 -1 0 99 rlineto
          0 68 6 50 67 -2 rrcurveto
          hintmask 00001010
          136 -4 0 25 rlineto
          hintmask 00100110
          -40 12 -71 7 -36 0 rrcurveto
          -100 -3 -102 -54 hvcurveto
          0 -99 rlineto
          hintmask 00010010
          -91 -12 rlineto
          endchar
        </CharString>
        <CharString name="ffl">
          508 2 27 461 41 -41 27 219 40 -29 38 hstemhm
          122 41 317 41 331 41 hintmask 10100111
          25 490 rmoveto
          hintmask 11001111
          97 -490 41 490 317 -490 41 490 147 41 -147 53 hlineto
          120 54 43 79 vhcurveto
          198 -556 hlineto
          -135 39 -54 87 vhcurveto
          74 27 hlineto
          -7 -72 14 0 hvcurveto
          -34 7 -46 8 0 133 rrcurveto
          594 -249 vlineto
          -120 -44 -93 -108 hvcurveto
          -53 -317 89 vlineto
          hintmask 11010111
          60 callsubr
          hintmask 10100111
          -97 -14 rlineto
          endchar
        </CharString>
        <CharString name="fi">
          30 21 -21 21 -21 487 41 -41 33 237 -21 9 41 hstemhm
          123 41 326 41 hintmask 00010011
          25 487 rmoveto
          hintmask 10100011
          98 -487 41 487 hlineto
          hintmask 10010011
          326 -487 41 520 hlineto
          hintmask 00100111
          -367 8 0 56 rlineto
          0 121 70 44 83 -4 rrcurveto
          hintmask 00001011
          0 171 -9 1 vhcurveto
          26 vlineto
          hintmask 00100111
          -60 15 -83 9 -40 0 rrcurveto
          -120 -63 -84 -118 hvcurveto
          0 -56 -98 -13 rlineto
          endchar
        </CharString>
        <CharString name="five">
          65 -4 43 -28 28 356 41 255 41 hstemhm
          95 38 -16 38 365 41 hintmask 01110110
          94 11 rmoveto
          hintmask 10110110
          93 -14 87 -1 124 0 rrcurveto
          62 101 33 137 hvcurveto
          104 vlineto
          97 -45 69 -118 vhcurveto
          -31 0 -53 2 -67 -2 -58 -1 -39 -37 -10 -16 rrcurveto
          15 309 385 0 0 41 -423 0 rlineto
          hintmask 10111010
          -92 callsubr
          hintmask 01110110
          -304 hlineto
          endchar
        </CharString>
        <CharString name="five.denominator">
          -128 -4 34 -25 25 218 33 161 33 hstemhm
          68 29 262 33 hintmask 01111100
          68 5 rmoveto
          hintmask 10111100
          24 callsubr
          hintmask 01111100
          -211 hlineto
          endchar
        </CharString>
        <CharString name="five.numerator">
          -128 251 34 -25 25 218 33 161 33 hstemhm
          68 29 262 33 hintmask 01111100
          68 260 rmoveto
          hintmask 10111100
          24 callsubr
          hintmask 01111100
          -211 hlineto
          endchar
        </CharString>
        <CharString name="five.oldstyle">
          86 -105 43 -28 28 356 41 255 41 hstemhm
          95 38 -16 38 365 41 hintmask 01110110
          94 -62 rmoveto
          -28 vlineto
          hintmask 10110110
          39 callsubr
          hintmask 10111010
          -92 callsubr
          endchar
        </CharString>
        <CharString name="five.smcp">
          1 -1 43 -26 26 262 40 185 41 hstemhm
          95 37 325 41 hintmask 01111100
          94 16 rmoveto
          hintmask 10111100
          47 -13 100 -5 99 1 85 1 73 37 0 113 rrcurveto
          53 vlineto
          85 -34 56 -118 vhcurveto
          -100 hlineto
          -50 0 -40 -26 -16 -23 rrcurveto
          12 234 320 0 0 41 -360 0 -17 -358 37 0 rlineto
          54 56 38 58 vhcurveto
          100 hlineto
          101 10 -49 -54 hvcurveto
          -49 vlineto
          -69 -35 -41 -82 vhcurveto
          hintmask 01111100
          -246 hlineto
          endchar
        </CharString>
        <CharString name="five.tnum">
          56 -4 43 -28 28 356 41 255 41 hstemhm
          90 38 -16 38 365 41 hintmask 01110110
          89 11 rmoveto
          hintmask 10110110
          93 -14 87 -1 124 0 rrcurveto
          62 101 33 137 hvcurveto
          104 vlineto
          97 -45 69 -118 vhcurveto
          -31 0 -54 2 -67 -2 -58 -1 -38 -37 -10 -16 rrcurveto
          15 309 385 0 0 41 -423 0 rlineto
          hintmask 10111010
          -92 callsubr
          hintmask 01110110
          -304 hlineto
          endchar
        </CharString>
        <CharString name="five.tosf">
          56 -105 43 -28 28 356 41 255 41 hstemhm
          95 38 -16 38 365 41 hintmask 01110110
          94 -62 rmoveto
          -28 vlineto
          hintmask 10110110
          39 callsubr
          hintmask 10111010
          -92 callsubr
          endchar
        </CharString>
        <CharString name="fiveinferior">
          -128 -204 34 -25 25 218 33 161 33 hstemhm
          68 29 262 33 hintmask 10111100
          68 -17 rmoveto
          29 hlineto
          1 36 32 29 39 0 rrcurveto
          112 hlineto
          73 5 -38 -40 hvcurveto
          -56 vlineto
          -56 -28 -28 -52 vhcurveto
          hintmask 01111100
          -211 -25 hlineto
          hintmask 10111100
          53 -9 81 0 81 0 rrcurveto
          63 46 32 82 hvcurveto
          64 vlineto
          71 -32 36 -77 vhcurveto
          -65 0 -87 11 -29 -50 rrcurveto
          11 200 265 0 0 33 -295 0 rlineto
          endchar
        </CharString>
        <CharString name="fivesuperior">
          -128 368 34 -25 25 218 33 161 33 hstemhm
          68 29 262 33 hintmask 01111100
          68 377 rmoveto
          hintmask 10111100
          24 callsubr
          hintmask 01111100
          -211 hlineto
          endchar
        </CharString>
        <CharString name="fl">
          151 2 27 461 41 -41 29 227 40 hstemhm
          122 41 332 41 hintmask 10111100
          25 490 rmoveto
          hintmask 11011100
          97 -490 41 hlineto
          hintmask 10111100
          490 vlineto
          hintmask 11011100
          148 41 -147 53 hlineto
          120 53 42 79 vhcurveto
          199 -555 hlineto
          -135 39 -54 87 vhcurveto
          74 27 hlineto
          -7 -72 14 0 hvcurveto
          -34 7 -46 8 0 133 rrcurveto
          595 -249 vlineto
          -120 -44 -94 -108 hvcurveto
          0 -53 rlineto
          hintmask 10111100
          -98 -12 rlineto
          endchar
        </CharString>
        <CharString name="florin">
          29 -204 41 -25 25 576 41 305 41 -41 25 hstemhm
          hintmask 01100000
          25 -188 rmoveto
          hintmask 10110000
          6 -4 39 -12 39 0 132 0 26 161 20 131 rrcurveto
          51 325 143 0 7 41 -143 0 8 52 rlineto
          20 117 20 136 88 0 rrcurveto
          88 0 rlineto
          hintmask 00101000
          4 25 rlineto
          hintmask 10110000
          -6 2 -37 14 -49 0 -117 0 -29 -144 -24 -150 rrcurveto
          -8 -51 -102 0 -7 -42 102 0 -51 -325 rlineto
          -15 -99 -25 -152 -96 0 rrcurveto
          -80 hlineto
          endchar
        </CharString>
        <CharString name="four">
          16 204 42 -29 29 486 -20 hstemhm
          429 41 -22 22 hintmask 10110000
          25 233 rmoveto
          -94 callsubr
          hintmask 01110000
          90 13 0 29 rlineto
          hintmask 10110000
          -90 hlineto
          hintmask 10101000
          301 -22 vlineto
          hintmask 10110000
          -93 callsubr
          endchar
        </CharString>
        <CharString name="four.denominator">
          -157 22 -21 21 -21 150 35 -23 23 hstemhm
          302 33 hintmask 10101000
          20 166 rmoveto
          21 callsubr
          hintmask 00011000
          22 callsubr
          hintmask 10101000
          23 callsubr
          endchar
        </CharString>
        <CharString name="four.numerator">
          -157 406 35 -23 23 hstemhm
          302 33 hintmask 10100000
          20 421 rmoveto
          21 callsubr
          hintmask 01100000
          22 callsubr
          hintmask 10100000
          23 callsubr
          endchar
        </CharString>
        <CharString name="four.oldstyle">
          16 103 42 -29 29 hstemhm
          429 41 -22 22 hintmask 10100000
          25 132 rmoveto
          -94 callsubr
          hintmask 01100000
          90 13 0 29 rlineto
          hintmask 10100000
          -90 hlineto
          hintmask 10010000
          301 -22 vlineto
          hintmask 10100000
          -93 callsubr
          endchar
        </CharString>
        <CharString name="four.smcp">
          -34 157 43 -30 30 hstemhm
          379 41 -22 22 hintmask 10100000
          25 185 rmoveto
          22 -28 332 0 0 -155 41 0 0 155 rlineto
          hintmask 01100000
          90 13 0 30 rlineto
          hintmask 10100000
          -90 hlineto
          hintmask 10010000
          256 -22 vlineto
          hintmask 10100000
          -19 -75 0 -181 -297 0 206 370 -47 0 rlineto
          endchar
        </CharString>
        <CharString name="four.tnum">
          56 204 42 -29 29 486 -20 hstemhm
          457 41 -22 22 hintmask 10110000
          53 233 rmoveto
          -94 callsubr
          hintmask 01110000
          90 13 0 29 rlineto
          hintmask 10110000
          -90 hlineto
          hintmask 10101000
          301 -22 vlineto
          hintmask 10110000
          50 callsubr
          endchar
        </CharString>
        <CharString name="four.tosf">
          56 103 42 -29 29 hstemhm
          459 41 -22 22 hintmask 10100000
          55 132 rmoveto
          -94 callsubr
          hintmask 01100000
          90 13 0 29 rlineto
          hintmask 10100000
          -90 hlineto
          hintmask 10010000
          301 -22 vlineto
          hintmask 10100000
          50 callsubr
          endchar
        </CharString>
        <CharString name="fourinferior">
          -157 -49 35 -23 23 hstemhm
          302 33 hintmask 10100000
          20 -34 rmoveto
          21 callsubr
          hintmask 01100000
          22 callsubr
          hintmask 10100000
          23 callsubr
          endchar
        </CharString>
        <CharString name="foursuperior">
          -157 523 35 -23 23 hstemhm
          302 33 hintmask 10100000
          20 538 rmoveto
          21 callsubr
          hintmask 01100000
          22 callsubr
          hintmask 10100000
          23 callsubr
          endchar
        </CharString>
        <CharString name="fraction">
          -383 21 -21 21 -21 hstemhm
          hintmask 10000000
          -111 hmoveto
          15 callsubr
          endchar
        </CharString>
        <CharString name="g">
          -2 -270 40.5 257.919998169 39.8300018311 96.8300018311 41.1699981689 286.25 40.5 -27.8600006104 27.8600006104 hstemhm
          55.7200012207 41.1699981689 354.649993896 40.5 -19.5 40.5 hintmask 11110101
          58.7200012207 118.350006104 rmoveto
          0 -18.2900085449 4.30999755859 -20.2649993896 13.9300079346 -12.9649963379 rrcurveto
          -21.2400054932 -91.8000030518 0 -91.0299987793 rlineto
          -100.649993896 63.3199920654 -53.3500061035 94 vhcurveto
          150 hlineto
          130.999984741 19 87.3000030518 60 hvcurveto
          56.3000030518 vlineto
          -1.52587890625e-05 80.3199920654 -49.146987915 54.3300018311 -90.5729980469 0 rrcurveto
          -208.309997559 hlineto
          -26.0870056152 -41.0429992676 13.3600006104 35.3800048828 43.4199981689 57.1599884033 4.66999816895 16 hvcurveto
          156 hlineto
          hintmask 11110110
          141.999984741 1.52587890625e-05 23 118.919998169 0 60 0 101.13999939 -35.4099884033 31.7200012207 -15.6900024414 15.6399993896 rrcurveto
          hintmask 11101101
          101.100006104 12.6399993896 0 27.8600006104 rlineto
          hintmask 11110101
          -312 hlineto
          -116.380004883 -55.9499969482 -58.6499938965 -130.350006104 hvcurveto
          0 -57.0200042725 13.3299865723 -66.3399963379 64.1000061035 -29.3399963379 rrcurveto
          -52.7250061035 -3.97999572754 -23.6949920654 -37.9800109863 0 -30.9899902344 rrcurveto
          38.1699981689 -234.350006104 rmoveto
          166.490005493 vlineto
          -1.52587890625e-05 1.52587890625e-05 23.3800048828 -22.0700073242 46.4099884033 0 rrcurveto
          202.350006104 hlineto
          79.6430053711 -1.52587890625e-05 23.8669891357 -41.4299926758 0 -55.0400085449 rrcurveto
          -54.6499938965 vlineto
          -1.52587890625e-05 -78.4899902344 -43.129989624 -28.3099975586 -66.370010376 0 rrcurveto
          -150 hlineto
          -38.3500061035 -77.8000030518 14.3699951172 99.1300048828 hvcurveto
          1.32000732422 460 rmoveto
          1.52587890625e-05 83.8099975586 24.3699951172 64.6900024414 100.759994507 0 rrcurveto
          128.86000061 hlineto
          hintmask 11110110
          59.5699920654 0 38.7799987793 -49.0200042725 0.989990234375 -99.4799957275 0.660003662109 -65.0899963379 -29.7200012207 -72.6600036621 -98.7599945068 0 rrcurveto
          -100.679992676 hlineto
          -82.3600158691 -42.4699859619 50.5599975586 87.1900024414 hvcurveto
          endchar
        </CharString>
        <CharString name="g.salt">
          -8 -248 26 212 41 465 41 hstem
          62 41 342 41 vstem
          62 268 rmoveto
          48 callsubr
          41 hmoveto
          49 callsubr
          endchar
        </CharString>
        <CharString name="g.smcp">
          7 -7 41 -13 -21 21 -21 270 41 -41 26 242 41 hstemhm
          68 41 366 41 -29 29 hintmask 1000011010000000
          68 286 rmoveto
          80 callsubr
          hintmask 0101011010000000
          81 callsubr
          hintmask 1000111100000000
          82 callsubr
          endchar
        </CharString>
        <CharString name="g.superior">
          -154 186 32 262 31 189 32 -18 18 hstemhm
          43 32 238 34 -23 33 hintmask 11101010
          43 291 rmoveto
          -71 45 -34 64 vhcurveto
          104 hlineto
          89 12 68 41 hvcurveto
          8 vlineto
          0 54 -39 25 -59 7 rrcurveto
          -149 17 rlineto
          -28 3 -11 13 1 22 1 33 48 3 11 0 rrcurveto
          93 hlineto
          hintmask 11101100
          97 25 70 53 hvcurveto
          0 55 -28 35 -16 7 rrcurveto
          hintmask 11011010
          74 14 0 18 rlineto
          hintmask 11101010
          -211 hlineto
          -73 -48 -43 -86 hvcurveto
          0 -52 29 -42 31 -12 -48 -3 -18 -27 0 -25 0 -18 2 -18 16 -14 rrcurveto
          -14 -59 rlineto
          32 -33 rmoveto
          83 vlineto
          0 0 20 -7 14 -1 rrcurveto
          141 -16 rlineto
          36 -4 38 -10 0 -45 rrcurveto
          -5 vlineto
          -52 -23 -25 -52 vhcurveto
          -89 hlineto
          -53 -32 21 61 hvcurveto
          3 303 rmoveto
          43 15 54 76 vhcurveto
          63 hlineto
          hintmask 11101100
          53 28 -44 -53 -56 -34 -36 -58 hvcurveto
          -52 hlineto
          -60 -31 42 50 hvcurveto
          endchar
        </CharString>
        <CharString name="gbreve">
          -2 -270 40.5 257.919998169 39.8300018311 96.8300018311 41.1699981689 286.25 40.5 -27.8600006104 27.8600006104 63 25 hstemhm
          55.7200012207 41.1699981689 65.1100006104 25 180 25 59.5399932861 40.5 -19.5 40.5 hintmask 0000010110000000
          162 710 rmoveto
          42 callsubr
          hintmask 1111001000100000
          -128.280273438 -591.650390625 rmoveto
          53 callsubr
          hintmask 1111001001000000
          54 callsubr
          hintmask 1110101000100000
          55 callsubr
          hintmask 1111001000100000
          56 callsubr
          38.169921875 -234.349609375 rmoveto
          57 callsubr
          1.3203125 460 rmoveto
          58 callsubr
          hintmask 1111001001000000
          59 callsubr
          endchar
        </CharString>
        <CharString name="gbreve.salt">
          -8 -248 26 212 41 465 41 56 25 hstem
          62 41 72 25 180 25 40 41 vstem
          175 707 rmoveto
          42 callsubr
          -138 -439 rmoveto
          48 callsubr
          41 hmoveto
          49 callsubr
          endchar
        </CharString>
        <CharString name="gbreve.smcp">
          7 -7 41 -34 21 249 26 -26 41 227 41 60 25 hstemhm
          68 41 74 25 180 25 62 41 -29 29 hintmask 0000010110000000
          183 753 rmoveto
          42 callsubr
          hintmask 1000101000100000
          -140 -467 rmoveto
          80 callsubr
          hintmask 0101101000100000
          81 callsubr
          hintmask 1010101001000000
          82 callsubr
          endchar
        </CharString>
        <CharString name="gcircumflex">
          -2 -270 40.5 257.919998169 39.8300018311 96.8300018311 41.1699981689 286.25 40.5 -27.8600006104 27.8600006104 64 130 hstemhm
          55.7200012207 41.1699981689 44.1100006104 279 31.5399932861 40.5 -19.5 40.5 hintmask 0000010100000000
          141 597 rmoveto
          -38 callsubr
          0 vmoveto
          37 hmoveto
          hintmask 1111001001000000
          -246.280273438 -608.650390625 rmoveto
          53 callsubr
          hintmask 1111001010000000
          54 callsubr
          hintmask 1110101001000000
          55 callsubr
          hintmask 1111001001000000
          56 callsubr
          38.169921875 -234.349609375 rmoveto
          57 callsubr
          1.3203125 460 rmoveto
          58 callsubr
          hintmask 1111001010000000
          59 callsubr
          endchar
        </CharString>
        <CharString name="gcircumflex.salt">
          -8 -248 26 212 41 465 41 59 130 hstem
          62 41 52 279 11 41 vstem
          155 596 rmoveto
          -38 callsubr
          0 vmoveto
          37 hmoveto
          -257 -458 rmoveto
          48 callsubr
          41 hmoveto
          49 callsubr
          endchar
        </CharString>
        <CharString name="gcircumflex.smcp">
          7 -7 41 -34 21 249 26 -26 41 227 41 60 130 hstemhm
          68 41 63 279 24 41 -29 29 hintmask 0000010100000000
          172 639 rmoveto
          -38 callsubr
          0 vmoveto
          37 hmoveto
          hintmask 1000101001000000
          -268 -483 rmoveto
          80 callsubr
          hintmask 0101101001000000
          81 callsubr
          hintmask 1010101010000000
          82 callsubr
          endchar
        </CharString>
        <CharString name="gcommaaccent">
          -3 -270 41 394 41 286 41 -28 28 198 13 hstemhm
          57 42 158 51 -51 29 165 41 -20 41 hintmask 1100111000000000
          257 608 rmoveto
          -9 4 -7 11 vhcurveto
          21 hlineto
          10 5 5 11 hvcurveto
          53 vlineto
          10 -7 6 -8 vhcurveto
          hintmask 1100110100000000
          65 callsubr
          -200 -585 rmoveto
          0 -14 3 -23 17 -15 rrcurveto
          -21 -90 0 -91 rlineto
          -101 63 -53 94 vhcurveto
          150 hlineto
          hintmask 1110110001000000
          131 19 94 60 hvcurveto
          33 vlineto
          0 79 -68 37 -77 10 rrcurveto
          -197 25 rlineto
          -22 3 -50 12 0 35 rrcurveto
          43 56 4 16 vhcurveto
          156 hlineto
          hintmask 1110110010000000
          142 23 119 60 hvcurveto
          0 101 -35 31 -16 16 rrcurveto
          hintmask 1101110001000000
          101 13 0 28 rlineto
          hintmask 1110110001000000
          -312 hlineto
          -116 -56 -59 -130 hvcurveto
          0 -57 13 -67 64 -29 -53 -3 -25 -36 0 -35 rrcurveto
          40 -233 rmoveto
          167 vlineto
          0 0 32 -17 42 -6 rrcurveto
          193 -26 rlineto
          68 -9 40 -26 0 -55 rrcurveto
          -28 vlineto
          -78 -43 -35 -66 vhcurveto
          -150 hlineto
          -38 -78 14 99 hvcurveto
          2 460 rmoveto
          83 24 65 100 vhcurveto
          129 hlineto
          hintmask 1110110010000000
          60 0 38 -49 1 -99 1 -65 -30 -73 -98 0 rrcurveto
          -101 hlineto
          -82 -42 51 87 hvcurveto
          endchar
        </CharString>
        <CharString name="gcommaaccent.salt">
          -8 -248 26 212 41 465 41 194 13 hstemhm
          62 41 167 51 -51 29 146 41 hintmask 11111101
          270 608 rmoveto
          -9 3 -7 11 vhcurveto
          22 hlineto
          10 5 5 11 hvcurveto
          53 vlineto
          10 -7 6 -8 vhcurveto
          hintmask 11111011
          65 callsubr
          -208 -434 rmoveto
          48 callsubr
          41 hmoveto
          49 callsubr
          endchar
        </CharString>
        <CharString name="gcommaaccent.smcp">
          8 -215.5 13.5 195 41 -13 -21 21 -21 270 41 -41 26 242 41 hstemhm
          67 41 165.600006104 51.3000030518 -28.8000030518 28.8000030518 142.099990845 41 -28 28 hintmask 1100001100010000
          67 286 rmoveto
          0 -50 1 -244 214 1 60 0 73 20 53 34 rrcurveto
          hintmask 1010101100010000
          12 -47 rlineto
          5 1 20 -2 3 1 rrcurveto
          308 vlineto
          -24 2 -22 1 -21 0 rrcurveto
          hintmask 1100011100100000
          -81 0 -20 -7 -62 -8 rrcurveto
          -26 189 -184 vlineto
          -25 -19 -74 -34 -84 1 -118 2 -58 91 0 161 0 193 52 57 126 0 57 0 110 -10 41 -4 rrcurveto
          30 vlineto
          -64 14 -102 11 -43 0 rrcurveto
          -174 -44 -109 -184 hvcurveto
          hintmask 1000000010000000
          206.599609375 -418.700195312 rmoveto
          62 callsubr
          hintmask 1000000001000000
          63 callsubr
          hintmask 1000000010000000
          64 callsubr
          endchar
        </CharString>
        <CharString name="gdotaccent">
          -2 -270 40.5 257.919998169 39.8300018311 96.8300018311 41.1699981689 286.25 40.5 -27.8600006104 27.8600006104 64 91 hstemhm
          55.7200012207 41.1699981689 159.11000061 56 139.539993286 40.5 -19.5 40.5 hintmask 0000010100000000
          256 613 rmoveto
          46 callsubr
          hintmask 1111001001000000
          -197.280273438 -553.650390625 rmoveto
          53 callsubr
          hintmask 1111001010000000
          54 callsubr
          hintmask 1110101001000000
          55 callsubr
          hintmask 1111001001000000
          56 callsubr
          38.169921875 -234.349609375 rmoveto
          57 callsubr
          1.3203125 460 rmoveto
          58 callsubr
          hintmask 1111001010000000
          59 callsubr
          endchar
        </CharString>
        <CharString name="gdotaccent.salt">
          -8 -248 26 212 41 465 41 60 91 hstem
          62 41 164 56 122 41 vstem
          267 613 rmoveto
          46 callsubr
          -205 -404 rmoveto
          48 callsubr
          41 hmoveto
          49 callsubr
          endchar
        </CharString>
        <CharString name="gdotaccent.smcp">
          7 -7 41 -34 21 249 26 -26 41 227 41 60 91 hstemhm
          68 41 170 56 140 41 -29 29 hintmask 0000010100000000
          279 655 rmoveto
          46 callsubr
          hintmask 1000101001000000
          -211 -428 rmoveto
          80 callsubr
          hintmask 0101101001000000
          81 callsubr
          hintmask 1010101010000000
          82 callsubr
          endchar
        </CharString>
        <CharString name="germandbls">
          -1 -8 41 -12 -21 21 -21 736 41 hstemhm
          74 41 146 41 201 41 hintmask 01011110
          74 hmoveto
          41 566 hlineto
          114 69 56 103 vhcurveto
          116 0 72 -40 -15 -88 -7 -44 -30 -44 -33 -23 -100 -71 -29 -20 0 -58 0 -146 243 86 -1 -109 rrcurveto
          -47 vlineto
          hintmask 10011110
          -1 -42 -26 -57 -89 0 -69 0 -66 4 -39 1 rrcurveto
          -30 vlineto
          36 -6 69 -10 68 0 rrcurveto
          84 74 43 97 hvcurveto
          47 vlineto
          -1 149 -241 -78 0 98 0 48 44 17 68 53 109 76 59 235 -295 0 rrcurveto
          -142 -71 -95 -116 hvcurveto
          endchar
        </CharString>
        <CharString name="germandbls.smcp">
          428 -10 41 -23 28 224 40 228 28 -23 40 hstemhm
          46 41 326 41 81 41 326 41 hintmask 0010111110000000
          46 374 rmoveto
          67 vlineto
          82 35 50 103 vhcurveto
          hintmask 0011011110000000
          52 0 124 -8 67 -9 rrcurveto
          -28 vlineto
          hintmask 1010111110000000
          0 -145 5 -98 -69 -28 -30 -62 vhcurveto
          -67 vlineto
          -75 38 1 59 vhcurveto
          140 hlineto
          87 43 -37 -75 hvcurveto
          -70 vlineto
          -109 -75 -19 -55 vhcurveto
          hintmask 0110011110000000
          -49 0 -170 6 -37 12 rrcurveto
          28 vlineto
          hintmask 1010111110000000
          0 160 -5 96 68 21 44 43 vhcurveto
          70 vlineto
          52 -27 20 -62 vhcurveto
          -140 hlineto
          -94 -44 18 96 hvcurveto
          489 67 rmoveto
          -67 vlineto
          -96 44 -18 94 vhcurveto
          140 hlineto
          62 27 -20 -52 hvcurveto
          -70 vlineto
          -43 -21 -44 -68 vhcurveto
          hintmask 0110011110000000
          -96 -160 5 0 hvcurveto
          -28 vlineto
          hintmask 1010111110000000
          37 -12 170 -6 49 0 rrcurveto
          55 75 19 109 hvcurveto
          70 vlineto
          75 -43 37 -87 vhcurveto
          -140 hlineto
          -59 -38 -1 75 hvcurveto
          67 vlineto
          62 28 30 69 vhcurveto
          hintmask 0011011110000000
          98 145 -5 0 hvcurveto
          28 vlineto
          hintmask 1010111110000000
          -67 9 -124 8 -52 0 rrcurveto
          -103 -35 -50 -82 hvcurveto
          endchar
        </CharString>
        <CharString name="grave">
          -354 531 133 hstem
          25 165 vstem
          25 664 rmoveto
          -37 callsubr
          endchar
        </CharString>
        <CharString name="grave.smcp">
          -354 531 133 hstem
          25 165 vstem
          25 664 rmoveto
          -37 callsubr
          endchar
        </CharString>
        <CharString name="greater">
          -90 62 141 rmoveto
          354 193 0 41 -354 182 0 -45 301 -157 -301 -168 rlineto
          endchar
        </CharString>
        <CharString name="greaterequal">
          -70 120 41 hstem
          62 120 rmoveto
          377 41 -377 hlineto
          21 60 rmoveto
          356 193 0 41 -356 182 0 -45 301 -157 -301 -168 rlineto
          endchar
        </CharString>
        <CharString name="guillemotleft">
          -20 62 354 rmoveto
          210 -209 30 30 -183 179 177 175 -29 29 rlineto
          -20 -204 rmoveto
          210 -209 29 30 -182 179 177 175 -28 29 rlineto
          endchar
        </CharString>
        <CharString name="guillemotright">
          -20 62 175 rmoveto
          29 -30 211 209 -206 204 -28 -29 176 -175 rlineto
          3 -179 rmoveto
          29 -30 210 209 -204 204 -30 -29 177 -175 rlineto
          endchar
        </CharString>
        <CharString name="guilsinglleft">
          -213 62 240 vstem
          62 354 rmoveto
          210 -208 30 29 -184 179 178 175 -28 28 rlineto
          endchar
        </CharString>
        <CharString name="guilsinglright">
          -213 62 240 vstem
          62 175 rmoveto
          28 -29 212 208 -206 203 -30 -28 178 -175 rlineto
          endchar
        </CharString>
        <CharString name="h">
          21 -21 21 -21 499 41 244 -20 hstemhm
          74 41 332 41 hintmask 10111100
          74 hmoveto
          -22 callsubr
          endchar
        </CharString>
        <CharString name="h.smcp">
          34 20 -21 21 -21 255 42 hstemhm
          98 41 358 41 hintmask 10111000
          98 -1 rmoveto
          83 callsubr
          endchar
        </CharString>
        <CharString name="h.superior">
          -175 706 33 hstem
          47 33 233 33 vstem
          47 378 rmoveto
          33 285 hlineto
          47 23 40 20 59 0 rrcurveto
          47 40 -29 -56 hvcurveto
          -243 33 247 vlineto
          59 -35 55 -81 vhcurveto
          -61 0 -52 -29 -37 -25 rrcurveto
          216 -33 vlineto
          endchar
        </CharString>
        <CharString name="hbar">
          21 -21 21 -21 500 40 84 27 133 -20 hstemhm
          74 42 330 42 hintmask 10111110
          1 624 rmoveto
          73 -624 42 439 hlineto
          75 39 54 21 76 1 83 0 41 -54 1 -76 rrcurveto
          -370 42 371 vlineto
          0 88 -56 82 -105 -1 -76 0 -76 -34 -59 -37 rrcurveto
          155 140 27 -140 133 -42 -133 -73 vlineto
          endchar
        </CharString>
        <CharString name="hbar.smcp">
          34 20 -21 21 -21 256 41 116 25 hstemhm
          98 41 357 41 hintmask 10111100
          49 412 rmoveto
          49 -413 41 256 357 -256 41 413 51 25 -51 133 -41 -133 -357 hlineto
          133 -41 -133 -49 vlineto
          90 -141 rmoveto
          116 357 -116 vlineto
          endchar
        </CharString>
        <CharString name="hcircumflex">
          0 21 478 41 224 20 60 130 hstemhm
          -35 279 -157 41 332 41 hintmask 00011000
          -35 844 rmoveto
          -38 callsubr
          0 vmoveto
          37 hmoveto
          hintmask 11100110
          -42 -974 rmoveto
          -22 callsubr
          endchar
        </CharString>
        <CharString name="hcircumflex.smcp">
          34 -1 21 234 42 334 130 hstem
          98 41 38 279 41 41 vstem
          177 630 rmoveto
          -38 callsubr
          0 vmoveto
          37 hmoveto
          -243 -761 rmoveto
          83 callsubr
          endchar
        </CharString>
        <CharString name="hungarumlaut">
          -212 531 133 hstem
          25 303 vstem
          25 531 rmoveto
          12 callsubr
          21 -133 rmoveto
          45 callsubr
          endchar
        </CharString>
        <CharString name="hyphen">
          -225 270 40 hstem
          25 294 vstem
          25 270 rmoveto
          294 40 -294 hlineto
          endchar
        </CharString>
        <CharString name="hyphen.alt">
          -205 340 40 hstem
          25 314 vstem
          25 340 rmoveto
          314 40 -314 hlineto
          endchar
        </CharString>
        <CharString name="hyphen.smcp">
          -205 254 42 hstem
          25 314 vstem
          25 254 rmoveto
          314 42 -314 hlineto
          endchar
        </CharString>
        <CharString name="i">
          -389 21 -21 21 -21 531 -20 94 91 hstemhm
          62 55 -49 41 hintmask 00111000
          62 620 rmoveto
          -21 callsubr
          hintmask 10110100
          6 -680 rmoveto
          -20 callsubr
          endchar
        </CharString>
        <CharString name="i.smcp">
          -364 21 -21 21 -21 hstemhm
          98 41 hintmask 10100000
          98 hmoveto
          84 callsubr
          endchar
        </CharString>
        <CharString name="i.superior">
          -439 734 -20 67 64 hstem
          46 33 vstem
          42 794 rmoveto
          -8 6 -5 8 vhcurveto
          16 hlineto
          8 5 4 9 hvcurveto
          36 vlineto
          8 -4 7 -9 vhcurveto
          -16 hlineto
          -9 -5 -6 -9 hvcurveto
          4 -452 rmoveto
          33 356 -33 hlineto
          endchar
        </CharString>
        <CharString name="iacute">
          -380 0 21 490 20 65 133 hstemhm
          74 41 -37 165 hintmask 00101000
          78 596 rmoveto
          12 callsubr
          hintmask 11010000
          -120 -729 rmoveto
          -20 callsubr
          endchar
        </CharString>
        <CharString name="iacute.smcp">
          -364 0 21 609 133 hstemhm
          98 41 -33 165 hintmask 01010000
          106 630 rmoveto
          12 callsubr
          hintmask 10100000
          -124 -763 rmoveto
          84 callsubr
          endchar
        </CharString>
</ttFont>
